<ttFont>
    <TTGlyph name=".notdef" xMin="102" yMin="-362" xMax="1126" yMax="1444">
      <contour>
        <pt x="102" y="-362" on="1"/>
        <pt x="102" y="1444" on="1"/>
        <pt x="1126" y="1444" on="1"/>
        <pt x="1126" y="-362" on="1"/>
      </contour>
      <contour>
        <pt x="217" y="-248" on="1"/>
        <pt x="1012" y="-248" on="1"/>
        <pt x="1012" y="1329" on="1"/>
        <pt x="217" y="1329" on="1"/>
      </contour>
    </TTGlyph>
    <TTGlyph name="Ghunna_above" xMin="-254" yMin="1194" xMax="215" yMax="1843">
      <contour>
        <pt x="-66" y="1194" on="1"/>
        <pt x="-152" y="1194" on="0"/>
        <pt x="-254" y="1311" on="0"/>
        <pt x="-254" y="1419" on="1"/>
        <pt x="-254" y="1535" on="0"/>
        <pt x="-217" y="1628" on="1"/>
        <pt x="-137" y="1628" on="1"/>
        <pt x="-170" y="1547" on="0"/>
        <pt x="-170" y="1425" on="1"/>
        <pt x="-170" y="1268" on="0"/>
        <pt x="-47" y="1268" on="1"/>
        <pt x="-23" y="1268" on="1"/>
        <pt x="59" y="1268" on="0"/>
        <pt x="135" y="1341" on="0"/>
        <pt x="135" y="1415" on="1"/>
        <pt x="135" y="1630" on="1"/>
        <pt x="215" y="1630" on="1"/>
        <pt x="215" y="1421" on="1"/>
        <pt x="215" y="1309" on="0"/>
        <pt x="103" y="1194" on="0"/>
        <pt x="-18" y="1194" on="1"/>
      </contour>
      <contour>
        <pt x="-51" y="1843" on="1"/>
        <pt x="29" y="1843" on="1"/>
        <pt x="29" y="1509" on="1"/>
        <pt x="-51" y="1509" on="1"/>
      </contour>
    </TTGlyph>
    <TTGlyph name="alef_alt.fina" xMin="205" yMin="0" xMax="668" yMax="1434">
      <contour>
        <pt x="205" y="1434" on="1"/>
        <pt x="387" y="1434" on="1"/>
        <pt x="387" y="160" on="1"/>
        <pt x="657" y="160" on="1"/>
        <pt x="668" y="160" on="0"/>
        <pt x="668" y="152" on="1"/>
        <pt x="668" y="10" on="1"/>
        <pt x="668" y="0" on="0"/>
        <pt x="657" y="0" on="1"/>
        <pt x="205" y="0" on="1"/>
      </contour>
    </TTGlyph>
    <TTGlyph name="alef_alt.isol" xMin="205" yMin="0" xMax="387" yMax="1434">
      <contour>
        <pt x="205" y="1434" on="1"/>
        <pt x="387" y="1434" on="1"/>
        <pt x="387" y="0" on="1"/>
        <pt x="205" y="0" on="1"/>
      </contour>
    </TTGlyph>
    <TTGlyph name="allah" xMin="133" yMin="0" xMax="3009" yMax="2161">
      <contour>
        <pt x="653" y="0" on="1"/>
        <pt x="407" y="0" on="0"/>
        <pt x="133" y="249" on="0"/>
        <pt x="133" y="473" on="1"/>
        <pt x="133" y="715" on="0"/>
        <pt x="437" y="993" on="0"/>
        <pt x="694" y="993" on="1"/>
        <pt x="829" y="993" on="1"/>
        <pt x="829" y="1122" on="1"/>
        <pt x="1004" y="1122" on="1"/>
        <pt x="1004" y="160" on="1"/>
        <pt x="1487" y="160" on="1"/>
        <pt x="1487" y="1249" on="1"/>
        <pt x="1669" y="1249" on="1"/>
        <pt x="1669" y="160" on="1"/>
        <pt x="2185" y="160" on="1"/>
        <pt x="2185" y="1249" on="1"/>
        <pt x="2367" y="1249" on="1"/>
        <pt x="2367" y="0" on="1"/>
      </contour>
      <contour>
        <pt x="829" y="160" on="1"/>
        <pt x="829" y="834" on="1"/>
        <pt x="700" y="834" on="1"/>
        <pt x="516" y="834" on="0"/>
        <pt x="315" y="645" on="0"/>
        <pt x="315" y="475" on="1"/>
        <pt x="315" y="322" on="0"/>
        <pt x="489" y="160" on="0"/>
        <pt x="649" y="160" on="1"/>
      </contour>
      <contour>
        <pt x="2826" y="1556" on="1"/>
        <pt x="3009" y="1556" on="1"/>
        <pt x="3009" y="0" on="1"/>
        <pt x="2826" y="0" on="1"/>
      </contour>
      <contour>
        <pt x="1393" y="1339" on="1"/>
        <pt x="1313" y="1339" on="0"/>
        <pt x="1225" y="1441" on="0"/>
        <pt x="1225" y="1538" on="1"/>
        <pt x="1225" y="1667" on="1"/>
        <pt x="1331" y="1667" on="1"/>
        <pt x="1331" y="1556" on="1"/>
        <pt x="1331" y="1501" on="0"/>
        <pt x="1364" y="1444" on="0"/>
        <pt x="1413" y="1444" on="1"/>
        <pt x="1503" y="1444" on="0"/>
        <pt x="1503" y="1538" on="1"/>
        <pt x="1503" y="1718" on="1"/>
        <pt x="1599" y="1718" on="1"/>
        <pt x="1599" y="1579" on="1"/>
        <pt x="1599" y="1525" on="0"/>
        <pt x="1637" y="1485" on="0"/>
        <pt x="1677" y="1485" on="1"/>
        <pt x="1733" y="1485" on="0"/>
        <pt x="1772" y="1537" on="0"/>
        <pt x="1772" y="1597" on="1"/>
        <pt x="1772" y="1749" on="1"/>
        <pt x="1878" y="1749" on="1"/>
        <pt x="1878" y="1579" on="1"/>
        <pt x="1878" y="1483" on="0"/>
        <pt x="1788" y="1380" on="0"/>
        <pt x="1702" y="1380" on="1"/>
        <pt x="1608" y="1380" on="0"/>
        <pt x="1559" y="1442" on="1"/>
        <pt x="1510" y="1339" on="0"/>
      </contour>
      <contour>
        <pt x="1493" y="2161" on="1"/>
        <pt x="1610" y="2161" on="1"/>
        <pt x="1610" y="1823" on="1"/>
        <pt x="1493" y="1823" on="1"/>
      </contour>
    </TTGlyph>
    <TTGlyph name="beh_dotless_alt.init" xMin="-20" yMin="0" xMax="565" yMax="993">
      <contour>
        <pt x="-10" y="0" on="1"/>
        <pt x="-20" y="0" on="0"/>
        <pt x="-20" y="10" on="1"/>
        <pt x="-20" y="152" on="1"/>
        <pt x="-20" y="160" on="0"/>
        <pt x="-10" y="160" on="1"/>
        <pt x="383" y="160" on="1"/>
        <pt x="383" y="993" on="1"/>
        <pt x="565" y="993" on="1"/>
        <pt x="565" y="0" on="1"/>
      </contour>
    </TTGlyph>
    <TTGlyph name="beh_dotless_alt.medi" xMin="-20" yMin="0" xMax="821" yMax="993">
      <contour>
        <pt x="-10" y="0" on="1"/>
        <pt x="-20" y="0" on="0"/>
        <pt x="-20" y="10" on="1"/>
        <pt x="-20" y="152" on="1"/>
        <pt x="-20" y="160" on="0"/>
        <pt x="-10" y="160" on="1"/>
        <pt x="322" y="160" on="1"/>
        <pt x="322" y="993" on="1"/>
        <pt x="504" y="993" on="1"/>
        <pt x="504" y="160" on="1"/>
        <pt x="811" y="160" on="1"/>
        <pt x="821" y="160" on="0"/>
        <pt x="821" y="152" on="1"/>
        <pt x="821" y="10" on="1"/>
        <pt x="821" y="0" on="0"/>
        <pt x="811" y="0" on="1"/>
      </contour>
    </TTGlyph>
    <TTGlyph name="circumflex.arabic" xMin="-270" yMin="1286" xMax="268" yMax="1694">
      <contour>
        <pt x="-270" y="1286" on="1"/>
        <pt x="-45" y="1694" on="1"/>
        <pt x="41" y="1694" on="1"/>
        <pt x="268" y="1286" on="1"/>
        <pt x="129" y="1286" on="1"/>
        <pt x="0" y="1550" on="1"/>
        <pt x="-133" y="1286" on="1"/>
      </contour>
    </TTGlyph>
    <TTGlyph name="damma_01" xMin="-301" yMin="1597" xMax="301" yMax="2058">
      <component glyphName="uni064F" x="0" y="0" flags="0x204"/>
    </TTGlyph>
    <TTGlyph name="dammatan_01" xMin="-367" yMin="1597" xMax="352" yMax="2058">
      <component glyphName="uni064C" x="0" y="0" flags="0x204"/>
    </TTGlyph>
    <TTGlyph name="diagonal" xMin="0" yMin="1163" xMax="721" yMax="1880">
      <contour>
        <pt x="0" y="1284" on="1"/>
        <pt x="67" y="1434" on="0"/>
        <pt x="463" y="1797" on="0"/>
        <pt x="662" y="1880" on="1"/>
        <pt x="721" y="1743" on="1"/>
        <pt x="595" y="1695" on="0"/>
        <pt x="315" y="1495" on="0"/>
        <pt x="102" y="1265" on="0"/>
        <pt x="55" y="1163" on="1"/>
      </contour>
    </TTGlyph>
    <TTGlyph name="fatha_01" xMin="-240" yMin="1589" xMax="240" yMax="1880">
      <component glyphName="uni064E" x="0" y="0" flags="0x204"/>
    </TTGlyph>
    <TTGlyph name="fathatan_01" xMin="-240" yMin="1589" xMax="240" yMax="2111">
      <component glyphName="uni064B" x="0" y="0" flags="0x204"/>
    </TTGlyph>
    <TTGlyph name="feh_dotless.isol" xMin="133" yMin="0" xMax="1898" yMax="993">
      <contour>
        <pt x="516" y="0" on="1"/>
        <pt x="339" y="0" on="0"/>
        <pt x="133" y="213" on="0"/>
        <pt x="133" y="397" on="1"/>
        <pt x="133" y="465" on="0"/>
        <pt x="162" y="643" on="0"/>
        <pt x="184" y="705" on="1"/>
        <pt x="348" y="705" on="1"/>
        <pt x="317" y="557" on="0"/>
        <pt x="317" y="412" on="1"/>
        <pt x="317" y="300" on="0"/>
        <pt x="423" y="160" on="0"/>
        <pt x="510" y="160" on="1"/>
        <pt x="1176" y="160" on="1"/>
        <pt x="1128" y="212" on="0"/>
        <pt x="1069" y="382" on="0"/>
        <pt x="1069" y="469" on="1"/>
        <pt x="1069" y="709" on="0"/>
        <pt x="1370" y="993" on="0"/>
        <pt x="1630" y="993" on="1"/>
        <pt x="1898" y="993" on="1"/>
        <pt x="1898" y="0" on="1"/>
      </contour>
      <contour>
        <pt x="1724" y="160" on="1"/>
        <pt x="1724" y="834" on="1"/>
        <pt x="1636" y="834" on="1"/>
        <pt x="1454" y="834" on="0"/>
        <pt x="1251" y="644" on="0"/>
        <pt x="1251" y="471" on="1"/>
        <pt x="1251" y="160" on="0"/>
        <pt x="1532" y="160" on="1"/>
      </contour>
    </TTGlyph>
    <TTGlyph name="fourdots.above" xMin="-266" yMin="1219" xMax="260" yMax="1782">
      <contour>
        <pt x="-162" y="1219" on="1"/>
        <pt x="-211" y="1219" on="0"/>
        <pt x="-266" y="1275" on="0"/>
        <pt x="-266" y="1329" on="1"/>
        <pt x="-266" y="1387" on="0"/>
        <pt x="-205" y="1440" on="0"/>
        <pt x="-162" y="1440" on="1"/>
        <pt x="-120" y="1440" on="0"/>
        <pt x="-59" y="1388" on="0"/>
        <pt x="-59" y="1329" on="1"/>
        <pt x="-59" y="1276" on="0"/>
        <pt x="-114" y="1219" on="0"/>
      </contour>
      <contour>
        <pt x="156" y="1219" on="1"/>
        <pt x="112" y="1219" on="0"/>
        <pt x="53" y="1270" on="0"/>
        <pt x="53" y="1329" on="1"/>
        <pt x="53" y="1388" on="0"/>
        <pt x="112" y="1440" on="0"/>
        <pt x="156" y="1440" on="1"/>
        <pt x="203" y="1440" on="0"/>
        <pt x="260" y="1381" on="0"/>
        <pt x="260" y="1329" on="1"/>
        <pt x="260" y="1277" on="0"/>
        <pt x="204" y="1219" on="0"/>
      </contour>
      <contour>
        <pt x="-162" y="1561" on="1"/>
        <pt x="-211" y="1561" on="0"/>
        <pt x="-266" y="1617" on="0"/>
        <pt x="-266" y="1671" on="1"/>
        <pt x="-266" y="1729" on="0"/>
        <pt x="-205" y="1782" on="0"/>
        <pt x="-162" y="1782" on="1"/>
        <pt x="-120" y="1782" on="0"/>
        <pt x="-59" y="1730" on="0"/>
        <pt x="-59" y="1671" on="1"/>
        <pt x="-59" y="1618" on="0"/>
        <pt x="-114" y="1561" on="0"/>
      </contour>
      <contour>
        <pt x="156" y="1561" on="1"/>
        <pt x="112" y="1561" on="0"/>
        <pt x="53" y="1612" on="0"/>
        <pt x="53" y="1671" on="1"/>
        <pt x="53" y="1730" on="0"/>
        <pt x="112" y="1782" on="0"/>
        <pt x="156" y="1782" on="1"/>
        <pt x="203" y="1782" on="0"/>
        <pt x="260" y="1723" on="0"/>
        <pt x="260" y="1671" on="1"/>
        <pt x="260" y="1619" on="0"/>
        <pt x="204" y="1561" on="0"/>
      </contour>
    </TTGlyph>
    <TTGlyph name="fourdots.below" xMin="-266" yMin="-762" xMax="260" yMax="-199">
      <contour>
        <pt x="-162" y="-762" on="1"/>
        <pt x="-209" y="-762" on="0"/>
        <pt x="-266" y="-705" on="0"/>
        <pt x="-266" y="-651" on="1"/>
        <pt x="-266" y="-593" on="0"/>
        <pt x="-205" y="-541" on="0"/>
        <pt x="-162" y="-541" on="1"/>
        <pt x="-120" y="-541" on="0"/>
        <pt x="-59" y="-593" on="0"/>
        <pt x="-59" y="-651" on="1"/>
        <pt x="-59" y="-710" on="0"/>
        <pt x="-120" y="-762" on="0"/>
      </contour>
      <contour>
        <pt x="156" y="-762" on="1"/>
        <pt x="112" y="-762" on="0"/>
        <pt x="53" y="-710" on="0"/>
        <pt x="53" y="-651" on="1"/>
        <pt x="53" y="-592" on="0"/>
        <pt x="112" y="-541" on="0"/>
        <pt x="156" y="-541" on="1"/>
        <pt x="205" y="-541" on="0"/>
        <pt x="260" y="-600" on="0"/>
        <pt x="260" y="-651" on="1"/>
        <pt x="260" y="-703" on="0"/>
        <pt x="203" y="-762" on="0"/>
      </contour>
      <contour>
        <pt x="-162" y="-420" on="1"/>
        <pt x="-209" y="-420" on="0"/>
        <pt x="-266" y="-363" on="0"/>
        <pt x="-266" y="-309" on="1"/>
        <pt x="-266" y="-251" on="0"/>
        <pt x="-205" y="-199" on="0"/>
        <pt x="-162" y="-199" on="1"/>
        <pt x="-120" y="-199" on="0"/>
        <pt x="-59" y="-251" on="0"/>
        <pt x="-59" y="-309" on="1"/>
        <pt x="-59" y="-368" on="0"/>
        <pt x="-120" y="-420" on="0"/>
      </contour>
      <contour>
        <pt x="156" y="-420" on="1"/>
        <pt x="112" y="-420" on="0"/>
        <pt x="53" y="-368" on="0"/>
        <pt x="53" y="-309" on="1"/>
        <pt x="53" y="-250" on="0"/>
        <pt x="112" y="-199" on="0"/>
        <pt x="156" y="-199" on="1"/>
        <pt x="205" y="-199" on="0"/>
        <pt x="260" y="-258" on="0"/>
        <pt x="260" y="-309" on="1"/>
        <pt x="260" y="-361" on="0"/>
        <pt x="203" y="-420" on="0"/>
      </contour>
    </TTGlyph>
    <TTGlyph name="hah_alt.fina" xMin="92" yMin="-657" xMax="1278" yMax="1014">
      <contour>
        <pt x="518" y="-657" on="1"/>
        <pt x="320" y="-657" on="0"/>
        <pt x="92" y="-450" on="0"/>
        <pt x="92" y="-262" on="1"/>
        <pt x="92" y="-132" on="0"/>
        <pt x="246" y="86" on="0"/>
        <pt x="574" y="266" on="0"/>
        <pt x="862" y="350" on="1"/>
        <pt x="840" y="420" on="0"/>
        <pt x="821" y="535" on="1"/>
        <pt x="794" y="697" on="0"/>
        <pt x="647" y="854" on="0"/>
        <pt x="522" y="854" on="1"/>
        <pt x="449" y="854" on="0"/>
        <pt x="243" y="795" on="0"/>
        <pt x="164" y="752" on="1"/>
        <pt x="92" y="893" on="1"/>
        <pt x="171" y="944" on="0"/>
        <pt x="409" y="1014" on="0"/>
        <pt x="524" y="1014" on="1"/>
        <pt x="916" y="1014" on="0"/>
        <pt x="983" y="582" on="1"/>
        <pt x="1015" y="386" on="0"/>
        <pt x="1077" y="236" on="0"/>
        <pt x="1177" y="160" on="0"/>
        <pt x="1257" y="160" on="1"/>
        <pt x="1268" y="160" on="1"/>
        <pt x="1278" y="160" on="0"/>
        <pt x="1278" y="152" on="1"/>
        <pt x="1278" y="10" on="1"/>
        <pt x="1278" y="0" on="0"/>
        <pt x="1268" y="0" on="1"/>
        <pt x="1257" y="0" on="1"/>
        <pt x="1145" y="0" on="0"/>
        <pt x="978" y="97" on="0"/>
        <pt x="920" y="205" on="1"/>
        <pt x="675" y="138" on="0"/>
        <pt x="405" y="5" on="0"/>
        <pt x="279" y="-153" on="0"/>
        <pt x="279" y="-246" on="1"/>
        <pt x="279" y="-500" on="0"/>
        <pt x="557" y="-500" on="1"/>
      </contour>
    </TTGlyph>
    <TTGlyph name="hah_alt.isol" xMin="92" yMin="-657" xMax="1186" yMax="1014">
      <contour>
        <pt x="1077" y="25" on="1"/>
        <pt x="1022" y="69" on="0"/>
        <pt x="944" y="151" on="0"/>
        <pt x="915" y="205" on="1"/>
        <pt x="572" y="112" on="0"/>
        <pt x="279" y="-104" on="0"/>
        <pt x="279" y="-246" on="1"/>
        <pt x="279" y="-500" on="0"/>
        <pt x="557" y="-500" on="1"/>
        <pt x="518" y="-657" on="1"/>
        <pt x="320" y="-657" on="0"/>
        <pt x="92" y="-450" on="0"/>
        <pt x="92" y="-262" on="1"/>
        <pt x="92" y="-133" on="0"/>
        <pt x="242" y="83" on="0"/>
        <pt x="564" y="262" on="0"/>
        <pt x="860" y="350" on="1"/>
        <pt x="844" y="404" on="0"/>
        <pt x="821" y="535" on="1"/>
        <pt x="794" y="697" on="0"/>
        <pt x="647" y="854" on="0"/>
        <pt x="522" y="854" on="1"/>
        <pt x="449" y="854" on="0"/>
        <pt x="243" y="795" on="0"/>
        <pt x="164" y="752" on="1"/>
        <pt x="92" y="893" on="1"/>
        <pt x="171" y="944" on="0"/>
        <pt x="409" y="1014" on="0"/>
        <pt x="524" y="1014" on="1"/>
        <pt x="916" y="1014" on="0"/>
        <pt x="983" y="582" on="1"/>
        <pt x="1008" y="422" on="0"/>
        <pt x="1104" y="221" on="0"/>
        <pt x="1186" y="166" on="1"/>
      </contour>
    </TTGlyph>
    <TTGlyph name="hamza_medial" xMin="-203" yMin="836" xMax="193" yMax="1257">
      <contour>
        <pt x="-203" y="930" on="1"/>
        <pt x="-106" y="944" on="1"/>
        <pt x="-178" y="991" on="0"/>
        <pt x="-178" y="1073" on="1"/>
        <pt x="-178" y="1159" on="0"/>
        <pt x="-67" y="1257" on="0"/>
        <pt x="31" y="1257" on="1"/>
        <pt x="109" y="1257" on="0"/>
        <pt x="166" y="1227" on="1"/>
        <pt x="135" y="1135" on="1"/>
        <pt x="96" y="1159" on="0"/>
        <pt x="33" y="1159" on="1"/>
        <pt x="-12" y="1159" on="0"/>
        <pt x="-74" y="1109" on="0"/>
        <pt x="-74" y="1055" on="1"/>
        <pt x="-74" y="989" on="0"/>
        <pt x="-12" y="958" on="1"/>
        <pt x="1" y="963" on="0"/>
        <pt x="165" y="985" on="0"/>
        <pt x="193" y="985" on="1"/>
        <pt x="193" y="885" on="1"/>
        <pt x="177" y="885" on="0"/>
        <pt x="64" y="874" on="0"/>
        <pt x="-88" y="854" on="1"/>
        <pt x="-203" y="836" on="1"/>
      </contour>
    </TTGlyph>
    <TTGlyph name="heh_ae.fina" xMin="133" yMin="0" xMax="1247" yMax="1122">
      <component glyphName="uni0647.fina" x="0" y="0" flags="0x204"/>
    </TTGlyph>
    <TTGlyph name="kasra_01" xMin="-240" yMin="-561" xMax="240" yMax="-270">
      <component glyphName="uni0650" x="0" y="0" flags="0x204"/>
    </TTGlyph>
    <TTGlyph name="kasratan_01" xMin="-240" yMin="-793" xMax="240" yMax="-270">
      <component glyphName="uni064D" x="0" y="0" flags="0x204"/>
    </TTGlyph>
    <TTGlyph name="onedot.above" xMin="-115" yMin="1188" xMax="115" yMax="1434">
      <contour>
        <pt x="0" y="1188" on="1"/>
        <pt x="-53" y="1188" on="0"/>
        <pt x="-115" y="1252" on="0"/>
        <pt x="-115" y="1311" on="1"/>
        <pt x="-115" y="1370" on="0"/>
        <pt x="-54" y="1434" on="0"/>
        <pt x="0" y="1434" on="1"/>
        <pt x="55" y="1434" on="0"/>
        <pt x="115" y="1367" on="0"/>
        <pt x="115" y="1311" on="1"/>
        <pt x="115" y="1255" on="0"/>
        <pt x="55" y="1188" on="0"/>
      </contour>
    </TTGlyph>
    <TTGlyph name="onedot.below" xMin="-115" yMin="-410" xMax="115" yMax="-164">
      <contour>
        <pt x="0" y="-410" on="1"/>
        <pt x="-53" y="-410" on="0"/>
        <pt x="-115" y="-346" on="0"/>
        <pt x="-115" y="-287" on="1"/>
        <pt x="-115" y="-228" on="0"/>
        <pt x="-54" y="-164" on="0"/>
        <pt x="0" y="-164" on="1"/>
        <pt x="55" y="-164" on="0"/>
        <pt x="115" y="-231" on="0"/>
        <pt x="115" y="-287" on="1"/>
        <pt x="115" y="-343" on="0"/>
        <pt x="55" y="-410" on="0"/>
      </contour>
    </TTGlyph>
    <TTGlyph name="patah.wide" xMin="0" yMin="287" xMax="700" yMax="449">
      <contour>
        <pt x="0" y="287" on="1"/>
        <pt x="0" y="449" on="1"/>
        <pt x="700" y="449" on="1"/>
        <pt x="700" y="287" on="1"/>
      </contour>
    </TTGlyph>
    <TTGlyph name="riyal" xMin="133" yMin="-492" xMax="3111" yMax="1556">
      <contour>
        <pt x="545" y="-492" on="1"/>
        <pt x="355" y="-492" on="0"/>
        <pt x="133" y="-212" on="0"/>
        <pt x="133" y="33" on="1"/>
        <pt x="133" y="159" on="0"/>
        <pt x="177" y="418" on="0"/>
        <pt x="217" y="516" on="1"/>
        <pt x="387" y="516" on="1"/>
        <pt x="317" y="339" on="0"/>
        <pt x="317" y="33" on="1"/>
        <pt x="317" y="-142" on="0"/>
        <pt x="457" y="-332" on="0"/>
        <pt x="584" y="-332" on="1"/>
        <pt x="684" y="-332" on="1"/>
        <pt x="862" y="-332" on="0"/>
        <pt x="1028" y="-170" on="0"/>
        <pt x="1028" y="-6" on="1"/>
        <pt x="1028" y="1556" on="1"/>
        <pt x="1202" y="1556" on="1"/>
        <pt x="1202" y="8" on="1"/>
        <pt x="1202" y="-240" on="0"/>
        <pt x="956" y="-492" on="0"/>
        <pt x="692" y="-492" on="1"/>
      </contour>
      <contour>
        <pt x="1565" y="1556" on="1"/>
        <pt x="1747" y="1556" on="1"/>
        <pt x="1747" y="160" on="1"/>
        <pt x="2279" y="160" on="1"/>
        <pt x="2279" y="993" on="1"/>
        <pt x="2462" y="993" on="1"/>
        <pt x="2462" y="0" on="1"/>
        <pt x="1565" y="0" on="1"/>
      </contour>
      <contour>
        <pt x="2746" y="-492" on="1"/>
        <pt x="2650" y="-492" on="0"/>
        <pt x="2537" y="-434" on="1"/>
        <pt x="2591" y="-297" on="1"/>
        <pt x="2667" y="-332" on="0"/>
        <pt x="2742" y="-332" on="1"/>
        <pt x="2833" y="-332" on="0"/>
        <pt x="2939" y="-184" on="0"/>
        <pt x="2939" y="-59" on="1"/>
        <pt x="2939" y="993" on="1"/>
        <pt x="3111" y="993" on="1"/>
        <pt x="3111" y="-49" on="1"/>
        <pt x="3111" y="-256" on="0"/>
        <pt x="2923" y="-492" on="0"/>
      </contour>
      <contour>
        <pt x="1937" y="-410" on="1"/>
        <pt x="1884" y="-410" on="0"/>
        <pt x="1823" y="-346" on="0"/>
        <pt x="1823" y="-287" on="1"/>
        <pt x="1823" y="-229" on="0"/>
        <pt x="1883" y="-164" on="0"/>
        <pt x="1937" y="-164" on="1"/>
        <pt x="1992" y="-164" on="0"/>
        <pt x="2052" y="-231" on="0"/>
        <pt x="2052" y="-287" on="1"/>
        <pt x="2052" y="-343" on="0"/>
        <pt x="1992" y="-410" on="0"/>
      </contour>
      <contour>
        <pt x="2292" y="-410" on="1"/>
        <pt x="2244" y="-410" on="0"/>
        <pt x="2177" y="-352" on="0"/>
        <pt x="2177" y="-287" on="1"/>
        <pt x="2177" y="-222" on="0"/>
        <pt x="2244" y="-164" on="0"/>
        <pt x="2292" y="-164" on="1"/>
        <pt x="2344" y="-164" on="0"/>
        <pt x="2406" y="-227" on="0"/>
        <pt x="2406" y="-287" on="1"/>
        <pt x="2406" y="-346" on="0"/>
        <pt x="2345" y="-410" on="0"/>
      </contour>
    </TTGlyph>
    <TTGlyph name="shadda_01" xMin="-326" yMin="1651" xMax="328" yMax="2060">
      <component glyphName="uni0651" x="0" y="0" flags="0x204"/>
    </TTGlyph>
    <TTGlyph name="smallv.arabic" xMin="-289" yMin="1288" xMax="291" yMax="1696">
      <contour>
        <pt x="291" y="1696" on="1"/>
        <pt x="66" y="1288" on="1"/>
        <pt x="-61" y="1288" on="1"/>
        <pt x="-289" y="1696" on="1"/>
        <pt x="-129" y="1696" on="1"/>
        <pt x="0" y="1432" on="1"/>
        <pt x="133" y="1696" on="1"/>
      </contour>
    </TTGlyph>
    <TTGlyph name="sukun_01" xMin="-225" yMin="1671" xMax="227" yMax="2101">
      <component glyphName="uni0652" x="0" y="0" flags="0x204"/>
    </TTGlyph>
    <TTGlyph name="threedots.above" xMin="-291" yMin="1188" xMax="293" yMax="1690">
      <contour>
        <pt x="0" y="1464" on="1"/>
        <pt x="-46" y="1464" on="0"/>
        <pt x="-106" y="1517" on="0"/>
        <pt x="-106" y="1577" on="1"/>
        <pt x="-106" y="1636" on="0"/>
        <pt x="-46" y="1690" on="0"/>
        <pt x="0" y="1690" on="1"/>
        <pt x="43" y="1690" on="0"/>
        <pt x="106" y="1635" on="0"/>
        <pt x="106" y="1577" on="1"/>
        <pt x="106" y="1517" on="0"/>
        <pt x="43" y="1464" on="0"/>
      </contour>
      <contour>
        <pt x="-176" y="1188" on="1"/>
        <pt x="-224" y="1188" on="0"/>
        <pt x="-291" y="1246" on="0"/>
        <pt x="-291" y="1311" on="1"/>
        <pt x="-291" y="1376" on="0"/>
        <pt x="-224" y="1434" on="0"/>
        <pt x="-176" y="1434" on="1"/>
        <pt x="-121" y="1434" on="0"/>
        <pt x="-61" y="1367" on="0"/>
        <pt x="-61" y="1311" on="1"/>
        <pt x="-61" y="1255" on="0"/>
        <pt x="-121" y="1188" on="0"/>
      </contour>
      <contour>
        <pt x="178" y="1188" on="1"/>
        <pt x="125" y="1188" on="0"/>
        <pt x="63" y="1252" on="0"/>
        <pt x="63" y="1311" on="1"/>
        <pt x="63" y="1370" on="0"/>
        <pt x="124" y="1434" on="0"/>
        <pt x="178" y="1434" on="1"/>
        <pt x="233" y="1434" on="0"/>
        <pt x="293" y="1367" on="0"/>
        <pt x="293" y="1311" on="1"/>
        <pt x="293" y="1255" on="0"/>
        <pt x="233" y="1188" on="0"/>
      </contour>
    </TTGlyph>
    <TTGlyph name="threedots.below" xMin="-291" yMin="-688" xMax="293" yMax="-193">
      <contour>
        <pt x="0" y="-688" on="1"/>
        <pt x="-46" y="-688" on="0"/>
        <pt x="-106" y="-635" on="0"/>
        <pt x="-106" y="-575" on="1"/>
        <pt x="-106" y="-517" on="0"/>
        <pt x="-46" y="-463" on="0"/>
        <pt x="0" y="-463" on="1"/>
        <pt x="43" y="-463" on="0"/>
        <pt x="106" y="-517" on="0"/>
        <pt x="106" y="-575" on="1"/>
        <pt x="106" y="-635" on="0"/>
        <pt x="43" y="-688" on="0"/>
      </contour>
      <contour>
        <pt x="-176" y="-438" on="1"/>
        <pt x="-224" y="-438" on="0"/>
        <pt x="-291" y="-380" on="0"/>
        <pt x="-291" y="-315" on="1"/>
        <pt x="-291" y="-251" on="0"/>
        <pt x="-224" y="-193" on="0"/>
        <pt x="-176" y="-193" on="1"/>
        <pt x="-122" y="-193" on="0"/>
        <pt x="-61" y="-259" on="0"/>
        <pt x="-61" y="-315" on="1"/>
        <pt x="-61" y="-371" on="0"/>
        <pt x="-121" y="-438" on="0"/>
      </contour>
      <contour>
        <pt x="178" y="-438" on="1"/>
        <pt x="125" y="-438" on="0"/>
        <pt x="63" y="-374" on="0"/>
        <pt x="63" y="-315" on="1"/>
        <pt x="63" y="-257" on="0"/>
        <pt x="125" y="-193" on="0"/>
        <pt x="178" y="-193" on="1"/>
        <pt x="232" y="-193" on="0"/>
        <pt x="293" y="-259" on="0"/>
        <pt x="293" y="-315" on="1"/>
        <pt x="293" y="-371" on="0"/>
        <pt x="233" y="-438" on="0"/>
      </contour>
    </TTGlyph>
    <TTGlyph name="threedots.horz.below" xMin="-479" yMin="-410" xMax="469" yMax="-164">
      <contour>
        <pt x="-365" y="-410" on="1"/>
        <pt x="-418" y="-410" on="0"/>
        <pt x="-479" y="-346" on="0"/>
        <pt x="-479" y="-287" on="1"/>
        <pt x="-479" y="-229" on="0"/>
        <pt x="-419" y="-164" on="0"/>
        <pt x="-365" y="-164" on="1"/>
        <pt x="-310" y="-164" on="0"/>
        <pt x="-250" y="-231" on="0"/>
        <pt x="-250" y="-287" on="1"/>
        <pt x="-250" y="-343" on="0"/>
        <pt x="-310" y="-410" on="0"/>
      </contour>
      <contour>
        <pt x="0" y="-410" on="1"/>
        <pt x="-53" y="-410" on="0"/>
        <pt x="-115" y="-346" on="0"/>
        <pt x="-115" y="-287" on="1"/>
        <pt x="-115" y="-228" on="0"/>
        <pt x="-54" y="-164" on="0"/>
        <pt x="0" y="-164" on="1"/>
        <pt x="55" y="-164" on="0"/>
        <pt x="115" y="-231" on="0"/>
        <pt x="115" y="-287" on="1"/>
        <pt x="115" y="-343" on="0"/>
        <pt x="55" y="-410" on="0"/>
      </contour>
      <contour>
        <pt x="354" y="-410" on="1"/>
        <pt x="301" y="-410" on="0"/>
        <pt x="240" y="-346" on="0"/>
        <pt x="240" y="-287" on="1"/>
        <pt x="240" y="-229" on="0"/>
        <pt x="300" y="-164" on="0"/>
        <pt x="354" y="-164" on="1"/>
        <pt x="409" y="-164" on="0"/>
        <pt x="469" y="-231" on="0"/>
        <pt x="469" y="-287" on="1"/>
        <pt x="469" y="-343" on="0"/>
        <pt x="409" y="-410" on="0"/>
      </contour>
    </TTGlyph>
    <TTGlyph name="threedots.horz_alt1.below" xMin="41" yMin="-410" xMax="989" yMax="-164">
      <component glyphName="threedots.horz.below" x="520" y="0" flags="0x4"/>
    </TTGlyph>
    <TTGlyph name="threedots.rev.above" xMin="-293" yMin="1186" xMax="291" yMax="1688">
      <contour>
        <pt x="0" y="1411" on="1"/>
        <pt x="46" y="1411" on="0"/>
        <pt x="106" y="1358" on="0"/>
        <pt x="106" y="1298" on="1"/>
        <pt x="106" y="1240" on="0"/>
        <pt x="46" y="1186" on="0"/>
        <pt x="0" y="1186" on="1"/>
        <pt x="-43" y="1186" on="0"/>
        <pt x="-106" y="1240" on="0"/>
        <pt x="-106" y="1298" on="1"/>
        <pt x="-106" y="1358" on="0"/>
        <pt x="-43" y="1411" on="0"/>
      </contour>
      <contour>
        <pt x="176" y="1688" on="1"/>
        <pt x="224" y="1688" on="0"/>
        <pt x="291" y="1630" on="0"/>
        <pt x="291" y="1565" on="1"/>
        <pt x="291" y="1500" on="0"/>
        <pt x="224" y="1442" on="0"/>
        <pt x="176" y="1442" on="1"/>
        <pt x="121" y="1442" on="0"/>
        <pt x="61" y="1509" on="0"/>
        <pt x="61" y="1565" on="1"/>
        <pt x="61" y="1621" on="0"/>
        <pt x="121" y="1688" on="0"/>
      </contour>
      <contour>
        <pt x="-178" y="1688" on="1"/>
        <pt x="-125" y="1688" on="0"/>
        <pt x="-63" y="1624" on="0"/>
        <pt x="-63" y="1565" on="1"/>
        <pt x="-63" y="1506" on="0"/>
        <pt x="-124" y="1442" on="0"/>
        <pt x="-178" y="1442" on="1"/>
        <pt x="-231" y="1442" on="0"/>
        <pt x="-293" y="1506" on="0"/>
        <pt x="-293" y="1565" on="1"/>
        <pt x="-293" y="1624" on="0"/>
        <pt x="-232" y="1688" on="0"/>
      </contour>
    </TTGlyph>
    <TTGlyph name="threedots.rev.below" xMin="-293" yMin="-688" xMax="291" yMax="-193">
      <contour>
        <pt x="0" y="-193" on="1"/>
        <pt x="46" y="-193" on="0"/>
        <pt x="106" y="-245" on="0"/>
        <pt x="106" y="-305" on="1"/>
        <pt x="106" y="-364" on="0"/>
        <pt x="46" y="-418" on="0"/>
        <pt x="0" y="-418" on="1"/>
        <pt x="-50" y="-418" on="0"/>
        <pt x="-106" y="-357" on="0"/>
        <pt x="-106" y="-305" on="1"/>
        <pt x="-106" y="-252" on="0"/>
        <pt x="-49" y="-193" on="0"/>
      </contour>
      <contour>
        <pt x="176" y="-442" on="1"/>
        <pt x="224" y="-442" on="0"/>
        <pt x="291" y="-500" on="0"/>
        <pt x="291" y="-565" on="1"/>
        <pt x="291" y="-630" on="0"/>
        <pt x="224" y="-688" on="0"/>
        <pt x="176" y="-688" on="1"/>
        <pt x="121" y="-688" on="0"/>
        <pt x="61" y="-621" on="0"/>
        <pt x="61" y="-565" on="1"/>
        <pt x="61" y="-509" on="0"/>
        <pt x="121" y="-442" on="0"/>
      </contour>
      <contour>
        <pt x="-178" y="-442" on="1"/>
        <pt x="-125" y="-442" on="0"/>
        <pt x="-63" y="-506" on="0"/>
        <pt x="-63" y="-565" on="1"/>
        <pt x="-63" y="-624" on="0"/>
        <pt x="-124" y="-688" on="0"/>
        <pt x="-178" y="-688" on="1"/>
        <pt x="-231" y="-688" on="0"/>
        <pt x="-293" y="-624" on="0"/>
        <pt x="-293" y="-565" on="1"/>
        <pt x="-293" y="-506" on="0"/>
        <pt x="-232" y="-442" on="0"/>
      </contour>
    </TTGlyph>
    <TTGlyph name="threedots.rev_alt1.below" xMin="41" yMin="-688" xMax="625" yMax="-193">
      <component glyphName="threedots.rev.below" x="334" y="0" flags="0x4"/>
    </TTGlyph>
    <TTGlyph name="threedots.rev_alt2.below" xMin="631" yMin="-621" xMax="1178" yMax="-74">
      <contour>
        <pt x="811" y="-621" on="1"/>
        <pt x="762" y="-621" on="0"/>
        <pt x="680" y="-539" on="0"/>
        <pt x="680" y="-489" on="1"/>
        <pt x="680" y="-445" on="0"/>
        <pt x="755" y="-375" on="0"/>
        <pt x="799" y="-375" on="1"/>
        <pt x="843" y="-375" on="0"/>
        <pt x="928" y="-457" on="0"/>
        <pt x="928" y="-502" on="1"/>
        <pt x="928" y="-547" on="0"/>
        <pt x="856" y="-621" on="0"/>
      </contour>
      <contour>
        <pt x="631" y="-182" on="1"/>
        <pt x="631" y="-143" on="0"/>
        <pt x="699" y="-74" on="0"/>
        <pt x="739" y="-74" on="1"/>
        <pt x="780" y="-74" on="0"/>
        <pt x="860" y="-150" on="0"/>
        <pt x="860" y="-190" on="1"/>
        <pt x="860" y="-232" on="0"/>
        <pt x="794" y="-301" on="0"/>
        <pt x="752" y="-301" on="1"/>
        <pt x="708" y="-301" on="0"/>
        <pt x="631" y="-225" on="0"/>
      </contour>
      <contour>
        <pt x="1061" y="-369" on="1"/>
        <pt x="1012" y="-369" on="0"/>
        <pt x="930" y="-287" on="0"/>
        <pt x="930" y="-238" on="1"/>
        <pt x="930" y="-193" on="0"/>
        <pt x="1006" y="-123" on="0"/>
        <pt x="1049" y="-123" on="1"/>
        <pt x="1093" y="-123" on="0"/>
        <pt x="1178" y="-205" on="0"/>
        <pt x="1178" y="-250" on="1"/>
        <pt x="1178" y="-295" on="0"/>
        <pt x="1106" y="-369" on="0"/>
      </contour>
    </TTGlyph>
    <TTGlyph name="threedots.small.above" xMin="-203" yMin="1264" xMax="205" yMax="1614">
      <contour>
        <pt x="0" y="1456" on="1"/>
        <pt x="-74" y="1456" on="0"/>
        <pt x="-74" y="1536" on="1"/>
        <pt x="-74" y="1576" on="0"/>
        <pt x="-32" y="1614" on="0"/>
        <pt x="0" y="1614" on="1"/>
        <pt x="31" y="1614" on="0"/>
        <pt x="76" y="1576" on="0"/>
        <pt x="76" y="1536" on="1"/>
        <pt x="76" y="1493" on="0"/>
        <pt x="31" y="1456" on="0"/>
      </contour>
      <contour>
        <pt x="-123" y="1264" on="1"/>
        <pt x="-203" y="1264" on="0"/>
        <pt x="-203" y="1350" on="1"/>
        <pt x="-203" y="1395" on="0"/>
        <pt x="-157" y="1436" on="0"/>
        <pt x="-123" y="1436" on="1"/>
        <pt x="-91" y="1436" on="0"/>
        <pt x="-43" y="1395" on="0"/>
        <pt x="-43" y="1350" on="1"/>
        <pt x="-43" y="1303" on="0"/>
        <pt x="-91" y="1264" on="0"/>
      </contour>
      <contour>
        <pt x="125" y="1264" on="1"/>
        <pt x="45" y="1264" on="0"/>
        <pt x="45" y="1350" on="1"/>
        <pt x="45" y="1395" on="0"/>
        <pt x="91" y="1436" on="0"/>
        <pt x="125" y="1436" on="1"/>
        <pt x="157" y="1436" on="0"/>
        <pt x="205" y="1395" on="0"/>
        <pt x="205" y="1350" on="1"/>
        <pt x="205" y="1303" on="0"/>
        <pt x="157" y="1264" on="0"/>
      </contour>
    </TTGlyph>
    <TTGlyph name="threedots.small.below" xMin="-203" yMin="-614" xMax="205" yMax="-266">
      <contour>
        <pt x="0" y="-614" on="1"/>
        <pt x="-74" y="-614" on="0"/>
        <pt x="-74" y="-535" on="1"/>
        <pt x="-74" y="-494" on="0"/>
        <pt x="-32" y="-457" on="0"/>
        <pt x="0" y="-457" on="1"/>
        <pt x="31" y="-457" on="0"/>
        <pt x="76" y="-494" on="0"/>
        <pt x="76" y="-535" on="1"/>
        <pt x="76" y="-578" on="0"/>
        <pt x="31" y="-614" on="0"/>
      </contour>
      <contour>
        <pt x="-123" y="-438" on="1"/>
        <pt x="-203" y="-438" on="0"/>
        <pt x="-203" y="-352" on="1"/>
        <pt x="-203" y="-307" on="0"/>
        <pt x="-157" y="-266" on="0"/>
        <pt x="-123" y="-266" on="1"/>
        <pt x="-91" y="-266" on="0"/>
        <pt x="-43" y="-307" on="0"/>
        <pt x="-43" y="-352" on="1"/>
        <pt x="-43" y="-399" on="0"/>
        <pt x="-91" y="-438" on="0"/>
      </contour>
      <contour>
        <pt x="125" y="-438" on="1"/>
        <pt x="45" y="-438" on="0"/>
        <pt x="45" y="-352" on="1"/>
        <pt x="45" y="-307" on="0"/>
        <pt x="91" y="-266" on="0"/>
        <pt x="125" y="-266" on="1"/>
        <pt x="157" y="-266" on="0"/>
        <pt x="205" y="-307" on="0"/>
        <pt x="205" y="-352" on="1"/>
        <pt x="205" y="-399" on="0"/>
        <pt x="157" y="-438" on="0"/>
      </contour>
    </TTGlyph>
    <TTGlyph name="threedots_alt1.above" xMin="90" yMin="1434" xMax="492" yMax="1870">
      <contour>
        <pt x="205" y="1434" on="1"/>
        <pt x="171" y="1434" on="0"/>
        <pt x="125" y="1475" on="0"/>
        <pt x="125" y="1520" on="1"/>
        <pt x="125" y="1565" on="0"/>
        <pt x="171" y="1606" on="0"/>
        <pt x="205" y="1606" on="1"/>
        <pt x="237" y="1606" on="0"/>
        <pt x="285" y="1565" on="0"/>
        <pt x="285" y="1520" on="1"/>
        <pt x="285" y="1475" on="0"/>
        <pt x="237" y="1434" on="0"/>
      </contour>
      <contour>
        <pt x="412" y="1604" on="1"/>
        <pt x="378" y="1604" on="0"/>
        <pt x="332" y="1645" on="0"/>
        <pt x="332" y="1690" on="1"/>
        <pt x="332" y="1735" on="0"/>
        <pt x="378" y="1776" on="0"/>
        <pt x="412" y="1776" on="1"/>
        <pt x="444" y="1776" on="0"/>
        <pt x="492" y="1735" on="0"/>
        <pt x="492" y="1690" on="1"/>
        <pt x="492" y="1645" on="0"/>
        <pt x="444" y="1604" on="0"/>
      </contour>
      <contour>
        <pt x="170" y="1698" on="1"/>
        <pt x="136" y="1698" on="0"/>
        <pt x="90" y="1739" on="0"/>
        <pt x="90" y="1784" on="1"/>
        <pt x="90" y="1829" on="0"/>
        <pt x="136" y="1870" on="0"/>
        <pt x="170" y="1870" on="1"/>
        <pt x="202" y="1870" on="0"/>
        <pt x="250" y="1829" on="0"/>
        <pt x="250" y="1784" on="1"/>
        <pt x="250" y="1739" on="0"/>
        <pt x="202" y="1698" on="0"/>
      </contour>
    </TTGlyph>
    <TTGlyph name="threedots_alt1.below" xMin="41" yMin="-688" xMax="625" yMax="-193">
      <component glyphName="threedots.below" x="332" y="0" flags="0x4"/>
    </TTGlyph>
    <TTGlyph name="threedots_alt2.above" xMin="141" yMin="1434" xMax="522" yMax="1823">
      <contour>
        <pt x="223" y="1661" on="1"/>
        <pt x="195" y="1661" on="0"/>
        <pt x="141" y="1719" on="0"/>
        <pt x="141" y="1747" on="1"/>
        <pt x="141" y="1775" on="0"/>
        <pt x="189" y="1823" on="0"/>
        <pt x="219" y="1823" on="1"/>
        <pt x="249" y="1823" on="0"/>
        <pt x="301" y="1770" on="0"/>
        <pt x="301" y="1737" on="1"/>
        <pt x="301" y="1709" on="0"/>
        <pt x="251" y="1661" on="0"/>
      </contour>
      <contour>
        <pt x="252" y="1434" on="1"/>
        <pt x="220" y="1434" on="0"/>
        <pt x="162" y="1495" on="0"/>
        <pt x="162" y="1530" on="1"/>
        <pt x="162" y="1559" on="0"/>
        <pt x="211" y="1608" on="0"/>
        <pt x="244" y="1608" on="1"/>
        <pt x="277" y="1608" on="0"/>
        <pt x="334" y="1548" on="0"/>
        <pt x="334" y="1513" on="1"/>
        <pt x="334" y="1484" on="0"/>
        <pt x="280" y="1434" on="0"/>
      </contour>
      <contour>
        <pt x="440" y="1593" on="1"/>
        <pt x="408" y="1593" on="0"/>
        <pt x="350" y="1654" on="0"/>
        <pt x="350" y="1690" on="1"/>
        <pt x="350" y="1718" on="0"/>
        <pt x="399" y="1767" on="0"/>
        <pt x="432" y="1767" on="1"/>
        <pt x="465" y="1767" on="0"/>
        <pt x="522" y="1707" on="0"/>
        <pt x="522" y="1673" on="1"/>
        <pt x="522" y="1645" on="0"/>
        <pt x="469" y="1593" on="0"/>
      </contour>
    </TTGlyph>
    <TTGlyph name="threedots_alt2.below" xMin="41" yMin="-614" xMax="449" yMax="-266">
      <component glyphName="threedots.small.below" x="244" y="0" flags="0x4"/>
    </TTGlyph>
    <TTGlyph name="twodots.above" xMin="-295" yMin="1188" xMax="289" yMax="1434">
      <contour>
        <pt x="-180" y="1188" on="1"/>
        <pt x="-228" y="1188" on="0"/>
        <pt x="-295" y="1246" on="0"/>
        <pt x="-295" y="1311" on="1"/>
        <pt x="-295" y="1376" on="0"/>
        <pt x="-228" y="1434" on="0"/>
        <pt x="-180" y="1434" on="1"/>
        <pt x="-128" y="1434" on="0"/>
        <pt x="-66" y="1371" on="0"/>
        <pt x="-66" y="1311" on="1"/>
        <pt x="-66" y="1252" on="0"/>
        <pt x="-127" y="1188" on="0"/>
      </contour>
      <contour>
        <pt x="174" y="1188" on="1"/>
        <pt x="121" y="1188" on="0"/>
        <pt x="59" y="1252" on="0"/>
        <pt x="59" y="1311" on="1"/>
        <pt x="59" y="1370" on="0"/>
        <pt x="120" y="1434" on="0"/>
        <pt x="174" y="1434" on="1"/>
        <pt x="229" y="1434" on="0"/>
        <pt x="289" y="1367" on="0"/>
        <pt x="289" y="1311" on="1"/>
        <pt x="289" y="1255" on="0"/>
        <pt x="229" y="1188" on="0"/>
      </contour>
    </TTGlyph>
    <TTGlyph name="twodots.below" xMin="-295" yMin="-410" xMax="289" yMax="-164">
      <contour>
        <pt x="-180" y="-410" on="1"/>
        <pt x="-228" y="-410" on="0"/>
        <pt x="-295" y="-352" on="0"/>
        <pt x="-295" y="-287" on="1"/>
        <pt x="-295" y="-222" on="0"/>
        <pt x="-228" y="-164" on="0"/>
        <pt x="-180" y="-164" on="1"/>
        <pt x="-128" y="-164" on="0"/>
        <pt x="-66" y="-227" on="0"/>
        <pt x="-66" y="-287" on="1"/>
        <pt x="-66" y="-346" on="0"/>
        <pt x="-127" y="-410" on="0"/>
      </contour>
      <contour>
        <pt x="174" y="-410" on="1"/>
        <pt x="121" y="-410" on="0"/>
        <pt x="59" y="-346" on="0"/>
        <pt x="59" y="-287" on="1"/>
        <pt x="59" y="-228" on="0"/>
        <pt x="120" y="-164" on="0"/>
        <pt x="174" y="-164" on="1"/>
        <pt x="229" y="-164" on="0"/>
        <pt x="289" y="-231" on="0"/>
        <pt x="289" y="-287" on="1"/>
        <pt x="289" y="-343" on="0"/>
        <pt x="229" y="-410" on="0"/>
      </contour>
    </TTGlyph>
    <TTGlyph name="twodots.small.above" xMin="-207" yMin="1225" xMax="201" yMax="1397">
      <contour>
        <pt x="-127" y="1225" on="1"/>
        <pt x="-161" y="1225" on="0"/>
        <pt x="-207" y="1266" on="0"/>
        <pt x="-207" y="1311" on="1"/>
        <pt x="-207" y="1356" on="0"/>
        <pt x="-161" y="1397" on="0"/>
        <pt x="-127" y="1397" on="1"/>
        <pt x="-95" y="1397" on="0"/>
        <pt x="-47" y="1356" on="0"/>
        <pt x="-47" y="1311" on="1"/>
        <pt x="-47" y="1266" on="0"/>
        <pt x="-95" y="1225" on="0"/>
      </contour>
      <contour>
        <pt x="121" y="1225" on="1"/>
        <pt x="87" y="1225" on="0"/>
        <pt x="41" y="1266" on="0"/>
        <pt x="41" y="1311" on="1"/>
        <pt x="41" y="1356" on="0"/>
        <pt x="87" y="1397" on="0"/>
        <pt x="121" y="1397" on="1"/>
        <pt x="153" y="1397" on="0"/>
        <pt x="201" y="1356" on="0"/>
        <pt x="201" y="1311" on="1"/>
        <pt x="201" y="1266" on="0"/>
        <pt x="153" y="1225" on="0"/>
      </contour>
    </TTGlyph>
    <TTGlyph name="twodots.small.below" xMin="-207" yMin="-373" xMax="201" yMax="-201">
      <contour>
        <pt x="-127" y="-373" on="1"/>
        <pt x="-161" y="-373" on="0"/>
        <pt x="-207" y="-332" on="0"/>
        <pt x="-207" y="-287" on="1"/>
        <pt x="-207" y="-242" on="0"/>
        <pt x="-161" y="-201" on="0"/>
        <pt x="-127" y="-201" on="1"/>
        <pt x="-95" y="-201" on="0"/>
        <pt x="-47" y="-242" on="0"/>
        <pt x="-47" y="-287" on="1"/>
        <pt x="-47" y="-332" on="0"/>
        <pt x="-95" y="-373" on="0"/>
      </contour>
      <contour>
        <pt x="121" y="-373" on="1"/>
        <pt x="87" y="-373" on="0"/>
        <pt x="41" y="-332" on="0"/>
        <pt x="41" y="-287" on="1"/>
        <pt x="41" y="-242" on="0"/>
        <pt x="87" y="-201" on="0"/>
        <pt x="121" y="-201" on="1"/>
        <pt x="153" y="-201" on="0"/>
        <pt x="201" y="-242" on="0"/>
        <pt x="201" y="-287" on="1"/>
        <pt x="201" y="-332" on="0"/>
        <pt x="153" y="-373" on="0"/>
      </contour>
    </TTGlyph>
    <TTGlyph name="twodots.vert.above" xMin="-115" yMin="1188" xMax="115" yMax="1804">
      <contour>
        <pt x="0" y="1188" on="1"/>
        <pt x="-53" y="1188" on="0"/>
        <pt x="-115" y="1252" on="0"/>
        <pt x="-115" y="1311" on="1"/>
        <pt x="-115" y="1370" on="0"/>
        <pt x="-54" y="1434" on="0"/>
        <pt x="0" y="1434" on="1"/>
        <pt x="55" y="1434" on="0"/>
        <pt x="115" y="1367" on="0"/>
        <pt x="115" y="1311" on="1"/>
        <pt x="115" y="1255" on="0"/>
        <pt x="55" y="1188" on="0"/>
      </contour>
      <contour>
        <pt x="0" y="1559" on="1"/>
        <pt x="-53" y="1559" on="0"/>
        <pt x="-115" y="1623" on="0"/>
        <pt x="-115" y="1681" on="1"/>
        <pt x="-115" y="1740" on="0"/>
        <pt x="-54" y="1804" on="0"/>
        <pt x="0" y="1804" on="1"/>
        <pt x="55" y="1804" on="0"/>
        <pt x="115" y="1737" on="0"/>
        <pt x="115" y="1681" on="1"/>
        <pt x="115" y="1626" on="0"/>
        <pt x="55" y="1559" on="0"/>
      </contour>
    </TTGlyph>
    <TTGlyph name="twodots.vert.below" xMin="-115" yMin="-780" xMax="115" yMax="-164">
      <contour>
        <pt x="0" y="-780" on="1"/>
        <pt x="-53" y="-780" on="0"/>
        <pt x="-115" y="-716" on="0"/>
        <pt x="-115" y="-657" on="1"/>
        <pt x="-115" y="-599" on="0"/>
        <pt x="-53" y="-535" on="0"/>
        <pt x="0" y="-535" on="1"/>
        <pt x="54" y="-535" on="0"/>
        <pt x="115" y="-601" on="0"/>
        <pt x="115" y="-657" on="1"/>
        <pt x="115" y="-713" on="0"/>
        <pt x="55" y="-780" on="0"/>
      </contour>
      <contour>
        <pt x="0" y="-410" on="1"/>
        <pt x="-53" y="-410" on="0"/>
        <pt x="-115" y="-346" on="0"/>
        <pt x="-115" y="-287" on="1"/>
        <pt x="-115" y="-228" on="0"/>
        <pt x="-54" y="-164" on="0"/>
        <pt x="0" y="-164" on="1"/>
        <pt x="55" y="-164" on="0"/>
        <pt x="115" y="-231" on="0"/>
        <pt x="115" y="-287" on="1"/>
        <pt x="115" y="-343" on="0"/>
        <pt x="55" y="-410" on="0"/>
      </contour>
    </TTGlyph>
    <TTGlyph name="twodots.vert.small.above" xMin="-80" yMin="1280" xMax="80" yMax="1712">
      <contour>
        <pt x="0" y="1280" on="1"/>
        <pt x="-34" y="1280" on="0"/>
        <pt x="-80" y="1321" on="0"/>
        <pt x="-80" y="1366" on="1"/>
        <pt x="-80" y="1412" on="0"/>
        <pt x="-34" y="1452" on="0"/>
        <pt x="0" y="1452" on="1"/>
        <pt x="32" y="1452" on="0"/>
        <pt x="80" y="1412" on="0"/>
        <pt x="80" y="1366" on="1"/>
        <pt x="80" y="1321" on="0"/>
        <pt x="32" y="1280" on="0"/>
      </contour>
      <contour>
        <pt x="0" y="1540" on="1"/>
        <pt x="-34" y="1540" on="0"/>
        <pt x="-80" y="1580" on="0"/>
        <pt x="-80" y="1626" on="1"/>
        <pt x="-80" y="1671" on="0"/>
        <pt x="-34" y="1712" on="0"/>
        <pt x="0" y="1712" on="1"/>
        <pt x="32" y="1712" on="0"/>
        <pt x="80" y="1671" on="0"/>
        <pt x="80" y="1626" on="1"/>
        <pt x="80" y="1580" on="0"/>
        <pt x="32" y="1540" on="0"/>
      </contour>
    </TTGlyph>
    <TTGlyph name="twodots.vert.small.below" xMin="-80" yMin="-688" xMax="80" yMax="-256">
      <contour>
        <pt x="0" y="-688" on="1"/>
        <pt x="-34" y="-688" on="0"/>
        <pt x="-80" y="-647" on="0"/>
        <pt x="-80" y="-602" on="1"/>
        <pt x="-80" y="-556" on="0"/>
        <pt x="-34" y="-516" on="0"/>
        <pt x="0" y="-516" on="1"/>
        <pt x="32" y="-516" on="0"/>
        <pt x="80" y="-556" on="0"/>
        <pt x="80" y="-602" on="1"/>
        <pt x="80" y="-647" on="0"/>
        <pt x="32" y="-688" on="0"/>
      </contour>
      <contour>
        <pt x="0" y="-428" on="1"/>
        <pt x="-34" y="-428" on="0"/>
        <pt x="-80" y="-388" on="0"/>
        <pt x="-80" y="-342" on="1"/>
        <pt x="-80" y="-297" on="0"/>
        <pt x="-34" y="-256" on="0"/>
        <pt x="0" y="-256" on="1"/>
        <pt x="32" y="-256" on="0"/>
        <pt x="80" y="-297" on="0"/>
        <pt x="80" y="-342" on="1"/>
        <pt x="80" y="-388" on="0"/>
        <pt x="32" y="-428" on="0"/>
      </contour>
    </TTGlyph>
    <TTGlyph name="twodots.vert_alt1.below" xMin="41" yMin="-780" xMax="271" yMax="-164">
      <component glyphName="twodots.vert.below" x="156" y="0" flags="0x4"/>
    </TTGlyph>
    <TTGlyph name="twodots_alt1.above" xMin="102" yMin="1653" xMax="469" yMax="1995">
      <contour>
        <pt x="182" y="1653" on="1"/>
        <pt x="148" y="1653" on="0"/>
        <pt x="102" y="1694" on="0"/>
        <pt x="102" y="1739" on="1"/>
        <pt x="102" y="1784" on="0"/>
        <pt x="148" y="1825" on="0"/>
        <pt x="182" y="1825" on="1"/>
        <pt x="214" y="1825" on="0"/>
        <pt x="262" y="1784" on="0"/>
        <pt x="262" y="1739" on="1"/>
        <pt x="262" y="1694" on="0"/>
        <pt x="214" y="1653" on="0"/>
      </contour>
      <contour>
        <pt x="389" y="1823" on="1"/>
        <pt x="355" y="1823" on="0"/>
        <pt x="309" y="1864" on="0"/>
        <pt x="309" y="1909" on="1"/>
        <pt x="309" y="1954" on="0"/>
        <pt x="355" y="1995" on="0"/>
        <pt x="389" y="1995" on="1"/>
        <pt x="421" y="1995" on="0"/>
        <pt x="469" y="1954" on="0"/>
        <pt x="469" y="1909" on="1"/>
        <pt x="469" y="1864" on="0"/>
        <pt x="421" y="1823" on="0"/>
      </contour>
    </TTGlyph>
    <TTGlyph name="twodots_alt1.below" xMin="41" yMin="-410" xMax="625" yMax="-164">
      <component glyphName="twodots.below" x="336" y="0" flags="0x4"/>
    </TTGlyph>
    <TTGlyph name="uni0600" xMin="70" yMin="-397" xMax="1757" yMax="111">
      <contour>
        <pt x="1757" y="-397" on="1"/>
        <pt x="193" y="-397" on="1"/>
        <pt x="70" y="-397" on="0"/>
        <pt x="70" y="-236" on="1"/>
        <pt x="1356" y="-236" on="1"/>
        <pt x="1356" y="-30" on="0"/>
        <pt x="1464" y="111" on="1"/>
        <pt x="1618" y="20" on="1"/>
        <pt x="1532" y="-110" on="0"/>
        <pt x="1532" y="-236" on="1"/>
        <pt x="1757" y="-236" on="1"/>
      </contour>
    </TTGlyph>
    <TTGlyph name="uni0601" xMin="84" yMin="-424" xMax="2996" yMax="0">
      <contour>
        <pt x="2996" y="-133" on="1"/>
        <pt x="2996" y="-222" on="0"/>
        <pt x="2881" y="-360" on="0"/>
        <pt x="2757" y="-424" on="1"/>
        <pt x="2699" y="-332" on="1"/>
        <pt x="2765" y="-296" on="0"/>
        <pt x="2841" y="-220" on="0"/>
        <pt x="2841" y="-195" on="1"/>
        <pt x="2841" y="-175" on="0"/>
        <pt x="2817" y="-152" on="0"/>
        <pt x="2796" y="-152" on="1"/>
        <pt x="2699" y="-152" on="0"/>
        <pt x="2444" y="-215" on="1"/>
        <pt x="2131" y="-293" on="0"/>
        <pt x="2087" y="-301" on="1"/>
        <pt x="1608" y="-391" on="0"/>
        <pt x="1364" y="-391" on="1"/>
        <pt x="1265" y="-391" on="0"/>
        <pt x="1198" y="-272" on="1"/>
        <pt x="1161" y="-327" on="0"/>
        <pt x="1039" y="-391" on="0"/>
        <pt x="975" y="-391" on="1"/>
        <pt x="894" y="-391" on="0"/>
        <pt x="788" y="-276" on="1"/>
        <pt x="719" y="-203" on="0"/>
        <pt x="668" y="-162" on="0"/>
        <pt x="649" y="-162" on="1"/>
        <pt x="617" y="-162" on="0"/>
        <pt x="559" y="-209" on="0"/>
        <pt x="505" y="-280" on="1"/>
        <pt x="416" y="-399" on="0"/>
        <pt x="311" y="-399" on="1"/>
        <pt x="188" y="-399" on="0"/>
        <pt x="84" y="-285" on="0"/>
        <pt x="84" y="-168" on="1"/>
        <pt x="84" y="-93" on="0"/>
        <pt x="111" y="0" on="1"/>
        <pt x="256" y="0" on="1"/>
        <pt x="229" y="-97" on="0"/>
        <pt x="229" y="-156" on="1"/>
        <pt x="229" y="-238" on="0"/>
        <pt x="317" y="-238" on="1"/>
        <pt x="356" y="-238" on="0"/>
        <pt x="415" y="-190" on="0"/>
        <pt x="458" y="-119" on="1"/>
        <pt x="495" y="-59" on="0"/>
        <pt x="590" y="0" on="0"/>
        <pt x="657" y="0" on="1"/>
        <pt x="753" y="0" on="0"/>
        <pt x="838" y="-114" on="1"/>
        <pt x="885" y="-177" on="0"/>
        <pt x="947" y="-229" on="0"/>
        <pt x="979" y="-229" on="1"/>
        <pt x="1041" y="-229" on="0"/>
        <pt x="1110" y="-160" on="0"/>
        <pt x="1110" y="-98" on="1"/>
        <pt x="1110" y="0" on="1"/>
        <pt x="1274" y="0" on="1"/>
        <pt x="1274" y="-98" on="1"/>
        <pt x="1274" y="-164" on="0"/>
        <pt x="1349" y="-229" on="0"/>
        <pt x="1403" y="-229" on="1"/>
        <pt x="1616" y="-229" on="0"/>
        <pt x="2056" y="-143" on="1"/>
        <pt x="2478" y="-56" on="1"/>
        <pt x="2745" y="0" on="0"/>
        <pt x="2830" y="0" on="1"/>
        <pt x="2902" y="0" on="0"/>
        <pt x="2996" y="-78" on="0"/>
      </contour>
    </TTGlyph>
    <TTGlyph name="uni0602" xMin="92" yMin="-399" xMax="2392" yMax="207">
      <contour>
        <pt x="2392" y="-238" on="1"/>
        <pt x="2392" y="-324" on="0"/>
        <pt x="2337" y="-399" on="0"/>
        <pt x="2269" y="-399" on="1"/>
        <pt x="592" y="-399" on="1"/>
        <pt x="332" y="-399" on="0"/>
        <pt x="92" y="-235" on="0"/>
        <pt x="92" y="-70" on="1"/>
        <pt x="92" y="54" on="0"/>
        <pt x="265" y="207" on="0"/>
        <pt x="403" y="207" on="1"/>
        <pt x="577" y="207" on="0"/>
        <pt x="825" y="-31" on="0"/>
        <pt x="874" y="-238" on="1"/>
      </contour>
      <contour>
        <pt x="403" y="39" on="1"/>
        <pt x="270" y="39" on="0"/>
        <pt x="270" y="-80" on="1"/>
        <pt x="270" y="-153" on="0"/>
        <pt x="488" y="-236" on="0"/>
        <pt x="694" y="-238" on="1"/>
        <pt x="646" y="-93" on="0"/>
        <pt x="502" y="39" on="0"/>
      </contour>
    </TTGlyph>
    <TTGlyph name="uni0603" xMin="41" yMin="-397" xMax="1716" yMax="381">
      <contour>
        <pt x="1542" y="-238" on="1"/>
        <pt x="1542" y="-147" on="1"/>
        <pt x="1542" y="42" on="0"/>
        <pt x="1379" y="219" on="0"/>
        <pt x="1210" y="219" on="1"/>
        <pt x="936" y="219" on="0"/>
        <pt x="680" y="-113" on="1"/>
        <pt x="680" y="-238" on="1"/>
      </contour>
      <contour>
        <pt x="506" y="-238" on="1"/>
        <pt x="506" y="319" on="1"/>
        <pt x="680" y="319" on="1"/>
        <pt x="680" y="78" on="1"/>
        <pt x="960" y="381" on="0"/>
        <pt x="1247" y="381" on="1"/>
        <pt x="1479" y="381" on="0"/>
        <pt x="1716" y="129" on="0"/>
        <pt x="1716" y="-139" on="1"/>
        <pt x="1716" y="-397" on="1"/>
        <pt x="164" y="-397" on="1"/>
        <pt x="41" y="-397" on="0"/>
        <pt x="41" y="-238" on="1"/>
      </contour>
    </TTGlyph>
    <TTGlyph name="uni060B" xMin="-20" yMin="-576" xMax="1024" yMax="1434">
      <component glyphName="uni066F.init" x="0" y="0" flags="0x204"/>
      <component glyphName="onedot.above" x="635" y="0" flags="0x4"/>
      <component glyphName="uni0656" x="623" y="217" flags="0x4"/>
    </TTGlyph>
    <TTGlyph name="uni060C" xMin="133" yMin="0" xMax="446" yMax="502">
      <contour>
        <pt x="133" y="23" on="1"/>
        <pt x="192" y="241" on="0"/>
        <pt x="309" y="502" on="1"/>
        <pt x="446" y="502" on="1"/>
        <pt x="386" y="242" on="0"/>
        <pt x="346" y="0" on="1"/>
        <pt x="147" y="0" on="1"/>
      </contour>
    </TTGlyph>
    <TTGlyph name="uni060D" xMin="84" yMin="-424" xMax="662" yMax="160">
      <contour>
        <pt x="662" y="0" on="1"/>
        <pt x="551" y="0" on="1"/>
        <pt x="448" y="0" on="0"/>
        <pt x="293" y="-200" on="0"/>
        <pt x="236" y="-424" on="1"/>
        <pt x="84" y="-387" on="1"/>
        <pt x="158" y="-104" on="0"/>
        <pt x="389" y="160" on="0"/>
        <pt x="549" y="160" on="1"/>
        <pt x="662" y="160" on="1"/>
      </contour>
    </TTGlyph>
    <TTGlyph name="uni060E" xMin="92" yMin="0" xMax="2392" yMax="606">
      <contour>
        <pt x="2392" y="162" on="1"/>
        <pt x="2392" y="76" on="0"/>
        <pt x="2337" y="0" on="0"/>
        <pt x="2269" y="0" on="1"/>
        <pt x="592" y="0" on="1"/>
        <pt x="332" y="0" on="0"/>
        <pt x="92" y="164" on="0"/>
        <pt x="92" y="330" on="1"/>
        <pt x="92" y="456" on="0"/>
        <pt x="267" y="606" on="0"/>
        <pt x="403" y="606" on="1"/>
        <pt x="576" y="606" on="0"/>
        <pt x="824" y="371" on="0"/>
        <pt x="874" y="162" on="1"/>
      </contour>
      <contour>
        <pt x="403" y="438" on="1"/>
        <pt x="270" y="438" on="0"/>
        <pt x="270" y="319" on="1"/>
        <pt x="270" y="245" on="0"/>
        <pt x="484" y="164" on="0"/>
        <pt x="694" y="162" on="1"/>
        <pt x="647" y="304" on="0"/>
        <pt x="504" y="438" on="0"/>
      </contour>
    </TTGlyph>
    <TTGlyph name="uni060F" xMin="133" yMin="-653" xMax="1217" yMax="1018">
      <contour>
        <pt x="1085" y="272" on="1"/>
        <pt x="816" y="203" on="0"/>
        <pt x="493" y="-40" on="0"/>
        <pt x="479" y="-193" on="1"/>
        <pt x="693" y="-45" on="0"/>
        <pt x="870" y="-45" on="1"/>
        <pt x="961" y="-45" on="0"/>
        <pt x="1124" y="-119" on="0"/>
        <pt x="1217" y="-248" on="0"/>
        <pt x="1217" y="-332" on="1"/>
        <pt x="1217" y="-481" on="0"/>
        <pt x="979" y="-653" on="0"/>
        <pt x="784" y="-653" on="1"/>
        <pt x="656" y="-653" on="0"/>
        <pt x="432" y="-553" on="0"/>
        <pt x="365" y="-465" on="1"/>
        <pt x="227" y="-598" on="1"/>
        <pt x="133" y="-500" on="1"/>
        <pt x="223" y="-404" on="0"/>
        <pt x="303" y="-334" on="1"/>
        <pt x="291" y="-288" on="0"/>
        <pt x="291" y="-238" on="1"/>
        <pt x="291" y="9" on="0"/>
        <pt x="563" y="203" on="1"/>
        <pt x="455" y="287" on="0"/>
        <pt x="373" y="445" on="0"/>
        <pt x="373" y="553" on="1"/>
        <pt x="373" y="695" on="0"/>
        <pt x="503" y="905" on="0"/>
        <pt x="734" y="1018" on="0"/>
        <pt x="877" y="1018" on="1"/>
        <pt x="965" y="1018" on="0"/>
        <pt x="1113" y="983" on="0"/>
        <pt x="1161" y="958" on="1"/>
        <pt x="1106" y="805" on="1"/>
        <pt x="979" y="858" on="0"/>
        <pt x="866" y="858" on="1"/>
        <pt x="720" y="858" on="0"/>
        <pt x="559" y="700" on="0"/>
        <pt x="559" y="555" on="1"/>
        <pt x="559" y="465" on="0"/>
        <pt x="619" y="338" on="0"/>
        <pt x="688" y="281" on="1"/>
        <pt x="843" y="365" on="0"/>
        <pt x="1036" y="424" on="1"/>
      </contour>
      <contour>
        <pt x="862" y="-197" on="1"/>
        <pt x="771" y="-197" on="0"/>
        <pt x="595" y="-278" on="0"/>
        <pt x="502" y="-350" on="1"/>
        <pt x="564" y="-496" on="0"/>
        <pt x="791" y="-496" on="1"/>
        <pt x="909" y="-496" on="0"/>
        <pt x="1055" y="-412" on="0"/>
        <pt x="1055" y="-336" on="1"/>
        <pt x="1055" y="-272" on="0"/>
        <pt x="949" y="-197" on="0"/>
      </contour>
    </TTGlyph>
    <TTGlyph name="uni0610" xMin="-236" yMin="1454" xMax="199" yMax="1810">
      <contour>
        <pt x="-236" y="1487" on="1"/>
        <pt x="-193" y="1550" on="0"/>
        <pt x="-193" y="1604" on="1"/>
        <pt x="-193" y="1778" on="1"/>
        <pt x="-123" y="1798" on="1"/>
        <pt x="-123" y="1698" on="1"/>
        <pt x="-85" y="1758" on="0"/>
        <pt x="-3" y="1810" on="0"/>
        <pt x="61" y="1810" on="1"/>
        <pt x="124" y="1810" on="0"/>
        <pt x="199" y="1725" on="0"/>
        <pt x="199" y="1653" on="1"/>
        <pt x="199" y="1556" on="1"/>
        <pt x="-123" y="1556" on="1"/>
        <pt x="-149" y="1497" on="0"/>
        <pt x="-201" y="1454" on="1"/>
      </contour>
      <contour>
        <pt x="129" y="1620" on="1"/>
        <pt x="129" y="1651" on="1"/>
        <pt x="129" y="1696" on="0"/>
        <pt x="85" y="1745" on="0"/>
        <pt x="47" y="1745" on="1"/>
        <pt x="-9" y="1745" on="0"/>
        <pt x="-86" y="1690" on="0"/>
        <pt x="-123" y="1628" on="1"/>
        <pt x="-123" y="1620" on="1"/>
      </contour>
    </TTGlyph>
    <TTGlyph name="uni0611" xMin="-199" yMin="1481" xMax="190" yMax="1810">
      <contour>
        <pt x="-86" y="1616" on="1"/>
        <pt x="-63" y="1611" on="0"/>
        <pt x="-28" y="1611" on="1"/>
        <pt x="0" y="1612" on="1"/>
        <pt x="-43" y="1640" on="0"/>
        <pt x="-43" y="1694" on="1"/>
        <pt x="-43" y="1752" on="0"/>
        <pt x="32" y="1810" on="0"/>
        <pt x="88" y="1810" on="1"/>
        <pt x="131" y="1810" on="0"/>
        <pt x="176" y="1792" on="1"/>
        <pt x="156" y="1733" on="1"/>
        <pt x="126" y="1747" on="0"/>
        <pt x="90" y="1747" on="1"/>
        <pt x="64" y="1747" on="0"/>
        <pt x="25" y="1714" on="0"/>
        <pt x="25" y="1679" on="1"/>
        <pt x="25" y="1633" on="0"/>
        <pt x="61" y="1620" on="1"/>
        <pt x="128" y="1628" on="0"/>
        <pt x="190" y="1659" on="1"/>
        <pt x="190" y="1593" on="1"/>
        <pt x="157" y="1579" on="0"/>
        <pt x="25" y="1552" on="0"/>
        <pt x="-27" y="1552" on="1"/>
        <pt x="-68" y="1552" on="0"/>
        <pt x="-96" y="1567" on="1"/>
        <pt x="-117" y="1518" on="0"/>
        <pt x="-164" y="1481" on="1"/>
        <pt x="-199" y="1513" on="1"/>
        <pt x="-156" y="1576" on="0"/>
        <pt x="-156" y="1630" on="1"/>
        <pt x="-156" y="1675" on="1"/>
        <pt x="-86" y="1696" on="1"/>
      </contour>
    </TTGlyph>
    <TTGlyph name="uni0612" xMin="-330" yMin="1235" xMax="260" yMax="1780">
      <contour>
        <pt x="53" y="1425" on="1"/>
        <pt x="11" y="1459" on="0"/>
        <pt x="-10" y="1495" on="1"/>
        <pt x="-150" y="1455" on="0"/>
        <pt x="-256" y="1370" on="0"/>
        <pt x="-256" y="1317" on="1"/>
        <pt x="-256" y="1288" on="0"/>
        <pt x="-248" y="1272" on="1"/>
        <pt x="-313" y="1235" on="1"/>
        <pt x="-330" y="1266" on="0"/>
        <pt x="-330" y="1311" on="1"/>
        <pt x="-330" y="1390" on="0"/>
        <pt x="-191" y="1513" on="0"/>
        <pt x="-39" y="1561" on="1"/>
        <pt x="-44" y="1578" on="1"/>
        <pt x="-63" y="1660" on="0"/>
        <pt x="-109" y="1716" on="0"/>
        <pt x="-158" y="1716" on="1"/>
        <pt x="-225" y="1716" on="0"/>
        <pt x="-301" y="1675" on="1"/>
        <pt x="-330" y="1733" on="1"/>
        <pt x="-293" y="1755" on="0"/>
        <pt x="-198" y="1780" on="0"/>
        <pt x="-158" y="1780" on="1"/>
        <pt x="-80" y="1780" on="0"/>
        <pt x="14" y="1693" on="0"/>
        <pt x="27" y="1616" on="1"/>
        <pt x="36" y="1559" on="0"/>
        <pt x="77" y="1501" on="0"/>
        <pt x="106" y="1483" on="1"/>
      </contour>
      <contour>
        <pt x="113" y="1249" on="1"/>
        <pt x="74" y="1249" on="0"/>
        <pt x="31" y="1272" on="1"/>
        <pt x="51" y="1327" on="1"/>
        <pt x="86" y="1313" on="0"/>
        <pt x="113" y="1313" on="1"/>
        <pt x="150" y="1313" on="0"/>
        <pt x="190" y="1374" on="0"/>
        <pt x="190" y="1423" on="1"/>
        <pt x="190" y="1751" on="1"/>
        <pt x="260" y="1772" on="1"/>
        <pt x="260" y="1427" on="1"/>
        <pt x="260" y="1346" on="0"/>
        <pt x="185" y="1249" on="0"/>
      </contour>
    </TTGlyph>
    <TTGlyph name="uni0613" xMin="-317" yMin="1249" xMax="293" yMax="1855">
      <contour>
        <pt x="-317" y="1364" on="1"/>
        <pt x="-274" y="1427" on="0"/>
        <pt x="-274" y="1481" on="1"/>
        <pt x="-274" y="1655" on="1"/>
        <pt x="-205" y="1675" on="1"/>
        <pt x="-205" y="1575" on="1"/>
        <pt x="-165" y="1638" on="0"/>
        <pt x="-80" y="1688" on="0"/>
        <pt x="-20" y="1688" on="1"/>
        <pt x="43" y="1688" on="0"/>
        <pt x="117" y="1602" on="0"/>
        <pt x="117" y="1530" on="1"/>
        <pt x="117" y="1434" on="1"/>
        <pt x="-205" y="1434" on="1"/>
        <pt x="-232" y="1373" on="0"/>
        <pt x="-283" y="1331" on="1"/>
      </contour>
      <contour>
        <pt x="47" y="1497" on="1"/>
        <pt x="47" y="1528" on="1"/>
        <pt x="47" y="1573" on="0"/>
        <pt x="3" y="1622" on="0"/>
        <pt x="-35" y="1622" on="1"/>
        <pt x="-91" y="1622" on="0"/>
        <pt x="-168" y="1567" on="0"/>
        <pt x="-205" y="1505" on="1"/>
        <pt x="-205" y="1497" on="1"/>
      </contour>
      <contour>
        <pt x="145" y="1249" on="1"/>
        <pt x="106" y="1249" on="0"/>
        <pt x="63" y="1272" on="1"/>
        <pt x="84" y="1327" on="1"/>
        <pt x="119" y="1313" on="0"/>
        <pt x="145" y="1313" on="1"/>
        <pt x="183" y="1313" on="0"/>
        <pt x="223" y="1374" on="0"/>
        <pt x="223" y="1423" on="1"/>
        <pt x="223" y="1751" on="1"/>
        <pt x="293" y="1772" on="1"/>
        <pt x="293" y="1427" on="1"/>
        <pt x="293" y="1346" on="0"/>
        <pt x="218" y="1249" on="0"/>
      </contour>
      <contour>
        <pt x="-29" y="1759" on="1"/>
        <pt x="-47" y="1759" on="0"/>
        <pt x="-76" y="1782" on="0"/>
        <pt x="-76" y="1806" on="1"/>
        <pt x="-76" y="1855" on="0"/>
        <pt x="-29" y="1855" on="1"/>
        <pt x="16" y="1855" on="0"/>
        <pt x="16" y="1806" on="1"/>
        <pt x="16" y="1782" on="0"/>
        <pt x="-12" y="1759" on="0"/>
      </contour>
    </TTGlyph>
    <TTGlyph name="uni0614" xMin="-287" yMin="1417" xMax="252" yMax="1690">
      <contour>
        <pt x="-268" y="1417" on="1"/>
        <pt x="-287" y="1460" on="1"/>
        <pt x="-198" y="1475" on="0"/>
        <pt x="-51" y="1508" on="0"/>
        <pt x="10" y="1548" on="0"/>
        <pt x="10" y="1579" on="1"/>
        <pt x="10" y="1636" on="1"/>
        <pt x="72" y="1657" on="1"/>
        <pt x="72" y="1606" on="1"/>
        <pt x="72" y="1581" on="0"/>
        <pt x="88" y="1544" on="0"/>
        <pt x="123" y="1544" on="1"/>
        <pt x="158" y="1544" on="0"/>
        <pt x="182" y="1578" on="0"/>
        <pt x="182" y="1618" on="1"/>
        <pt x="182" y="1669" on="1"/>
        <pt x="252" y="1690" on="1"/>
        <pt x="252" y="1606" on="1"/>
        <pt x="252" y="1475" on="0"/>
        <pt x="139" y="1475" on="1"/>
        <pt x="102" y="1475" on="0"/>
        <pt x="60" y="1498" on="0"/>
        <pt x="43" y="1518" on="1"/>
        <pt x="17" y="1483" on="0"/>
        <pt x="-37" y="1454" on="0"/>
        <pt x="-132" y="1434" on="0"/>
      </contour>
    </TTGlyph>
    <TTGlyph name="uni0615" xMin="-238" yMin="1204" xMax="186" yMax="1665">
      <contour>
        <pt x="-238" y="1292" on="1"/>
        <pt x="-207" y="1292" on="1"/>
        <pt x="-207" y="1665" on="1"/>
        <pt x="-125" y="1665" on="1"/>
        <pt x="-125" y="1405" on="1"/>
        <pt x="-100" y="1465" on="0"/>
        <pt x="-25" y="1538" on="0"/>
        <pt x="35" y="1538" on="1"/>
        <pt x="186" y="1538" on="0"/>
        <pt x="186" y="1360" on="1"/>
        <pt x="186" y="1204" on="1"/>
        <pt x="-238" y="1204" on="1"/>
      </contour>
      <contour>
        <pt x="104" y="1292" on="1"/>
        <pt x="104" y="1343" on="1"/>
        <pt x="104" y="1397" on="0"/>
        <pt x="68" y="1450" on="0"/>
        <pt x="25" y="1450" on="1"/>
        <pt x="-23" y="1450" on="0"/>
        <pt x="-96" y="1385" on="0"/>
        <pt x="-125" y="1313" on="1"/>
        <pt x="-125" y="1292" on="1"/>
      </contour>
    </TTGlyph>
    <TTGlyph name="uni061B" xMin="133" yMin="-20" xMax="471" yMax="1370">
      <contour>
        <pt x="260" y="-20" on="1"/>
        <pt x="133" y="-20" on="0"/>
        <pt x="133" y="119" on="1"/>
        <pt x="133" y="192" on="0"/>
        <pt x="206" y="258" on="0"/>
        <pt x="260" y="258" on="1"/>
        <pt x="314" y="258" on="0"/>
        <pt x="387" y="192" on="0"/>
        <pt x="387" y="119" on="1"/>
        <pt x="387" y="-20" on="0"/>
      </contour>
      <contour>
        <pt x="158" y="891" on="1"/>
        <pt x="224" y="1133" on="0"/>
        <pt x="334" y="1370" on="1"/>
        <pt x="471" y="1370" on="1"/>
        <pt x="446" y="1268" on="0"/>
        <pt x="385" y="961" on="0"/>
        <pt x="371" y="868" on="1"/>
        <pt x="172" y="868" on="1"/>
      </contour>
    </TTGlyph>
    <TTGlyph name="uni061E" xMin="41" yMin="282" xMax="625" yMax="784">
      <component glyphName="threedots.above" x="332" y="-906" flags="0x4"/>
    </TTGlyph>
    <TTGlyph name="uni061F" xMin="133" yMin="-29" xMax="901" yMax="1483">
      <contour>
        <pt x="518" y="432" on="1"/>
        <pt x="518" y="518" on="0"/>
        <pt x="456" y="623" on="0"/>
        <pt x="348" y="717" on="1"/>
        <pt x="250" y="804" on="0"/>
        <pt x="170" y="913" on="0"/>
        <pt x="133" y="1032" on="0"/>
        <pt x="133" y="1110" on="1"/>
        <pt x="133" y="1283" on="0"/>
        <pt x="345" y="1483" on="0"/>
        <pt x="535" y="1483" on="1"/>
        <pt x="706" y="1483" on="0"/>
        <pt x="901" y="1382" on="1"/>
        <pt x="838" y="1237" on="1"/>
        <pt x="768" y="1272" on="0"/>
        <pt x="620" y="1323" on="0"/>
        <pt x="535" y="1323" on="1"/>
        <pt x="427" y="1323" on="0"/>
        <pt x="307" y="1208" on="0"/>
        <pt x="307" y="1108" on="1"/>
        <pt x="307" y="1045" on="0"/>
        <pt x="337" y="954" on="0"/>
        <pt x="404" y="870" on="0"/>
        <pt x="487" y="799" on="1"/>
        <pt x="588" y="710" on="0"/>
        <pt x="657" y="565" on="0"/>
        <pt x="657" y="451" on="1"/>
        <pt x="657" y="414" on="1"/>
        <pt x="518" y="414" on="1"/>
      </contour>
      <contour>
        <pt x="578" y="-29" on="1"/>
        <pt x="524" y="-29" on="0"/>
        <pt x="451" y="37" on="0"/>
        <pt x="451" y="111" on="1"/>
        <pt x="451" y="250" on="0"/>
        <pt x="578" y="250" on="1"/>
        <pt x="705" y="250" on="0"/>
        <pt x="705" y="111" on="1"/>
        <pt x="705" y="45" on="0"/>
        <pt x="639" y="-29" on="0"/>
      </contour>
    </TTGlyph>
    <TTGlyph name="uni0621" xMin="133" yMin="-18" xMax="922" yMax="838">
      <contour>
        <pt x="133" y="131" on="1"/>
        <pt x="175" y="136" on="0"/>
        <pt x="199" y="143" on="1"/>
        <pt x="315" y="164" on="1"/>
        <pt x="258" y="202" on="0"/>
        <pt x="184" y="354" on="0"/>
        <pt x="184" y="444" on="1"/>
        <pt x="184" y="568" on="0"/>
        <pt x="289" y="744" on="0"/>
        <pt x="482" y="838" on="0"/>
        <pt x="608" y="838" on="1"/>
        <pt x="755" y="838" on="0"/>
        <pt x="856" y="778" on="1"/>
        <pt x="811" y="625" on="1"/>
        <pt x="710" y="678" on="0"/>
        <pt x="612" y="678" on="1"/>
        <pt x="493" y="678" on="0"/>
        <pt x="369" y="552" on="0"/>
        <pt x="369" y="432" on="1"/>
        <pt x="369" y="355" on="0"/>
        <pt x="440" y="229" on="0"/>
        <pt x="498" y="201" on="1"/>
        <pt x="543" y="206" on="1"/>
        <pt x="853" y="246" on="0"/>
        <pt x="922" y="246" on="1"/>
        <pt x="922" y="80" on="1"/>
        <pt x="822" y="80" on="0"/>
        <pt x="234" y="4" on="0"/>
        <pt x="133" y="-18" on="1"/>
      </contour>
    </TTGlyph>
    <TTGlyph name="uni0622" xMin="-18" yMin="0" xMax="627" yMax="1769">
      <component glyphName="alef_alt.isol" x="0" y="0" flags="0x204"/>
      <component glyphName="uni0653" x="285" y="0" flags="0x4"/>
    </TTGlyph>
    <TTGlyph name="uni0622.fina" xMin="-18" yMin="0" xMax="668" yMax="1769">
      <component glyphName="alef_alt.fina" x="0" y="0" flags="0x204"/>
      <component glyphName="uni0653" x="285" y="0" flags="0x4"/>
    </TTGlyph>
    <TTGlyph name="uni0623" xMin="90" yMin="0" xMax="486" yMax="1956">
      <component glyphName="alef_alt.isol" x="0" y="0" flags="0x204"/>
      <component glyphName="uni0654" x="293" y="0" flags="0x4"/>
    </TTGlyph>
    <TTGlyph name="uni0623.fina" xMin="90" yMin="0" xMax="668" yMax="1956">
      <component glyphName="alef_alt.fina" x="0" y="0" flags="0x204"/>
      <component glyphName="uni0654" x="293" y="0" flags="0x4"/>
    </TTGlyph>
    <TTGlyph name="uni0624" xMin="133" yMin="-492" xMax="975" yMax="1595">
      <component glyphName="uni0648" x="0" y="0" flags="0x204"/>
      <component glyphName="uni0654" x="555" y="-361" flags="0x4"/>
    </TTGlyph>
    <TTGlyph name="uni0624.fina" xMin="133" yMin="-492" xMax="1153" yMax="1595">
      <component glyphName="uni0648.fina" x="0" y="0" flags="0x204"/>
      <component glyphName="uni0654" x="555" y="-361" flags="0x4"/>
    </TTGlyph>
    <TTGlyph name="uni0625" xMin="104" yMin="-541" xMax="500" yMax="1556">
      <component glyphName="uni0627" x="0" y="0" flags="0x204"/>
      <component glyphName="uni0655" x="307" y="0" flags="0x4"/>
    </TTGlyph>
    <TTGlyph name="uni0625.fina" xMin="104" yMin="-541" xMax="668" yMax="1556">
      <component glyphName="uni0627.fina" x="0" y="0" flags="0x204"/>
      <component glyphName="uni0655" x="307" y="0" flags="0x4"/>
    </TTGlyph>
    <TTGlyph name="uni0626" xMin="133" yMin="-492" xMax="1647" yMax="1037">
      <component glyphName="uni0649" x="0" y="0" flags="0x204"/>
      <component glyphName="uni0654" x="510" y="-919" flags="0x4"/>
    </TTGlyph>
    <TTGlyph name="uni0626.fina" xMin="133" yMin="-492" xMax="1995" yMax="1037">
      <component glyphName="uni0649.fina" x="0" y="0" flags="0x204"/>
      <component glyphName="uni0654" x="614" y="-919" flags="0x4"/>
    </TTGlyph>
    <TTGlyph name="uni0626.init" xMin="-20" yMin="0" xMax="637" yMax="1603">
      <component glyphName="beh_dotless_alt.init" x="0" y="0" flags="0x204"/>
      <component glyphName="uni0654" x="444" y="-353" flags="0x4"/>
    </TTGlyph>
    <TTGlyph name="uni0626.medi" xMin="-20" yMin="0" xMax="821" yMax="1603">
      <component glyphName="beh_dotless_alt.medi" x="0" y="0" flags="0x204"/>
      <component glyphName="uni0654" x="403" y="-353" flags="0x4"/>
    </TTGlyph>
    <TTGlyph name="uni0627" xMin="205" yMin="0" xMax="387" yMax="1556">
      <contour>
        <pt x="205" y="1556" on="1"/>
        <pt x="387" y="1556" on="1"/>
        <pt x="387" y="0" on="1"/>
        <pt x="205" y="0" on="1"/>
      </contour>
    </TTGlyph>
    <TTGlyph name="uni0627.fina" xMin="205" yMin="0" xMax="668" yMax="1556">
      <contour>
        <pt x="205" y="1556" on="1"/>
        <pt x="387" y="1556" on="1"/>
        <pt x="387" y="160" on="1"/>
        <pt x="657" y="160" on="1"/>
        <pt x="668" y="160" on="0"/>
        <pt x="668" y="152" on="1"/>
        <pt x="668" y="10" on="1"/>
        <pt x="668" y="0" on="0"/>
        <pt x="657" y="0" on="1"/>
        <pt x="205" y="0" on="1"/>
      </contour>
    </TTGlyph>
    <TTGlyph name="uni0628" xMin="133" yMin="-410" xMax="1419" yMax="993">
      <component glyphName="uni066E" x="0" y="0" flags="0x204"/>
      <component glyphName="onedot.below" x="854" y="0" flags="0x4"/>
    </TTGlyph>
    <TTGlyph name="uni0628.fina" xMin="133" yMin="-410" xMax="1702" yMax="993">
      <component glyphName="uni066E.fina" x="0" y="0" flags="0x204"/>
      <component glyphName="onedot.below" x="854" y="0" flags="0x4"/>
    </TTGlyph>
    <TTGlyph name="uni0628.init" xMin="-20" yMin="-410" xMax="457" yMax="993">
      <component glyphName="uni066E.init" x="0" y="0" flags="0x204"/>
      <component glyphName="onedot.below" x="342" y="0" flags="0x4"/>
    </TTGlyph>
    <TTGlyph name="uni0628.medi" xMin="-20" yMin="-410" xMax="719" yMax="993">
      <component glyphName="uni066E.medi" x="0" y="0" flags="0x204"/>
      <component glyphName="onedot.below" x="340" y="0" flags="0x4"/>
    </TTGlyph>
    <TTGlyph name="uni0629" xMin="133" yMin="-20" xMax="1090" yMax="1434">
      <component glyphName="uni0647" x="0" y="0" flags="0x204"/>
      <component glyphName="twodots.above" x="588" y="0" flags="0x4"/>
    </TTGlyph>
    <TTGlyph name="uni0629.fina" xMin="133" yMin="0" xMax="1247" yMax="1557">
      <component glyphName="uni0647.fina" x="0" y="0" flags="0x204"/>
      <component glyphName="twodots.above" x="727" y="123" flags="0x4"/>
    </TTGlyph>
    <TTGlyph name="uni062A" xMin="133" yMin="0" xMax="1419" yMax="1240">
      <component glyphName="uni066E" x="0" y="0" flags="0x204"/>
      <component glyphName="twodots.above" x="778" y="-194" flags="0x4"/>
    </TTGlyph>
    <TTGlyph name="uni062A.fina" xMin="133" yMin="0" xMax="1702" yMax="1240">
      <component glyphName="uni066E.fina" x="0" y="0" flags="0x204"/>
      <component glyphName="twodots.above" x="778" y="-194" flags="0x4"/>
    </TTGlyph>
    <TTGlyph name="uni062A.init" xMin="-20" yMin="0" xMax="754" yMax="1434">
      <component glyphName="beh_dotless_alt.init" x="0" y="0" flags="0x204"/>
      <component glyphName="twodots.above" x="465" y="0" flags="0x4"/>
    </TTGlyph>
    <TTGlyph name="uni062A.medi" xMin="-20" yMin="0" xMax="821" yMax="1434">
      <component glyphName="beh_dotless_alt.medi" x="0" y="0" flags="0x204"/>
      <component glyphName="twodots.above" x="414" y="0" flags="0x4"/>
    </TTGlyph>
    <TTGlyph name="uni062B" xMin="133" yMin="0" xMax="1419" yMax="1498">
      <component glyphName="uni066E" x="0" y="0" flags="0x204"/>
      <component glyphName="threedots.above" x="791" y="-192" flags="0x4"/>
    </TTGlyph>
    <TTGlyph name="uni062B.fina" xMin="133" yMin="0" xMax="1702" yMax="1496">
      <component glyphName="uni066E.fina" x="0" y="0" flags="0x204"/>
      <component glyphName="threedots.above" x="791" y="-194" flags="0x4"/>
    </TTGlyph>
    <TTGlyph name="uni062B.init" xMin="-20" yMin="0" xMax="754" yMax="1690">
      <component glyphName="beh_dotless_alt.init" x="0" y="0" flags="0x204"/>
      <component glyphName="threedots.above" x="461" y="0" flags="0x4"/>
    </TTGlyph>
    <TTGlyph name="uni062B.medi" xMin="-20" yMin="0" xMax="821" yMax="1690">
      <component glyphName="beh_dotless_alt.medi" x="0" y="0" flags="0x204"/>
      <component glyphName="threedots.above" x="410" y="0" flags="0x4"/>
    </TTGlyph>
    <TTGlyph name="uni062C" xMin="92" yMin="-657" xMax="1186" yMax="1014">
      <component glyphName="uni062D" x="0" y="0" flags="0x204"/>
      <component glyphName="onedot.below" x="614" y="61" flags="0x4"/>
    </TTGlyph>
    <TTGlyph name="uni062C.fina" xMin="92" yMin="-657" xMax="1278" yMax="1014">
      <component glyphName="uni062D.fina" x="0" y="0" flags="0x204"/>
      <component glyphName="onedot.below" x="614" y="61" flags="0x4"/>
    </TTGlyph>
    <TTGlyph name="uni062C.init" xMin="-20" yMin="-410" xMax="1055" yMax="1014">
      <component glyphName="uni062D.init" x="0" y="0" flags="0x204"/>
      <component glyphName="onedot.below" x="477" y="0" flags="0x4"/>
    </TTGlyph>
    <TTGlyph name="uni062C.medi" xMin="-20" yMin="-410" xMax="1196" yMax="1014">
      <component glyphName="uni062D.medi" x="0" y="0" flags="0x204"/>
      <component glyphName="onedot.below" x="477" y="0" flags="0x4"/>
    </TTGlyph>
    <TTGlyph name="uni062D" xMin="92" yMin="-657" xMax="1186" yMax="1014">
      <contour>
        <pt x="1077" y="25" on="1"/>
        <pt x="1022" y="69" on="0"/>
        <pt x="944" y="151" on="0"/>
        <pt x="915" y="205" on="1"/>
        <pt x="572" y="112" on="0"/>
        <pt x="279" y="-104" on="0"/>
        <pt x="279" y="-246" on="1"/>
        <pt x="279" y="-377" on="0"/>
        <pt x="431" y="-500" on="0"/>
        <pt x="592" y="-500" on="1"/>
        <pt x="695" y="-500" on="0"/>
        <pt x="893" y="-467" on="1"/>
        <pt x="915" y="-608" on="1"/>
        <pt x="770" y="-639" on="0"/>
        <pt x="600" y="-657" on="0"/>
        <pt x="518" y="-657" on="1"/>
        <pt x="320" y="-657" on="0"/>
        <pt x="92" y="-450" on="0"/>
        <pt x="92" y="-262" on="1"/>
        <pt x="92" y="-133" on="0"/>
        <pt x="242" y="83" on="0"/>
        <pt x="564" y="262" on="0"/>
        <pt x="860" y="350" on="1"/>
        <pt x="844" y="404" on="0"/>
        <pt x="821" y="535" on="1"/>
        <pt x="794" y="697" on="0"/>
        <pt x="647" y="854" on="0"/>
        <pt x="522" y="854" on="1"/>
        <pt x="449" y="854" on="0"/>
        <pt x="243" y="795" on="0"/>
        <pt x="164" y="752" on="1"/>
        <pt x="92" y="893" on="1"/>
        <pt x="171" y="944" on="0"/>
        <pt x="409" y="1014" on="0"/>
        <pt x="524" y="1014" on="1"/>
        <pt x="916" y="1014" on="0"/>
        <pt x="983" y="582" on="1"/>
        <pt x="1008" y="422" on="0"/>
        <pt x="1104" y="221" on="0"/>
        <pt x="1186" y="166" on="1"/>
      </contour>
    </TTGlyph>
    <TTGlyph name="uni062D.fina" xMin="92" yMin="-657" xMax="1278" yMax="1014">
      <contour>
        <pt x="518" y="-657" on="1"/>
        <pt x="320" y="-657" on="0"/>
        <pt x="92" y="-450" on="0"/>
        <pt x="92" y="-262" on="1"/>
        <pt x="92" y="-132" on="0"/>
        <pt x="246" y="86" on="0"/>
        <pt x="574" y="266" on="0"/>
        <pt x="862" y="350" on="1"/>
        <pt x="840" y="420" on="0"/>
        <pt x="821" y="535" on="1"/>
        <pt x="794" y="697" on="0"/>
        <pt x="647" y="854" on="0"/>
        <pt x="522" y="854" on="1"/>
        <pt x="449" y="854" on="0"/>
        <pt x="243" y="795" on="0"/>
        <pt x="164" y="752" on="1"/>
        <pt x="92" y="893" on="1"/>
        <pt x="171" y="944" on="0"/>
        <pt x="409" y="1014" on="0"/>
        <pt x="524" y="1014" on="1"/>
        <pt x="916" y="1014" on="0"/>
        <pt x="983" y="582" on="1"/>
        <pt x="1015" y="386" on="0"/>
        <pt x="1077" y="236" on="0"/>
        <pt x="1177" y="160" on="0"/>
        <pt x="1257" y="160" on="1"/>
        <pt x="1268" y="160" on="1"/>
        <pt x="1278" y="160" on="0"/>
        <pt x="1278" y="152" on="1"/>
        <pt x="1278" y="10" on="1"/>
        <pt x="1278" y="0" on="0"/>
        <pt x="1268" y="0" on="1"/>
        <pt x="1257" y="0" on="1"/>
        <pt x="1145" y="0" on="0"/>
        <pt x="978" y="97" on="0"/>
        <pt x="920" y="205" on="1"/>
        <pt x="675" y="138" on="0"/>
        <pt x="405" y="5" on="0"/>
        <pt x="279" y="-153" on="0"/>
        <pt x="279" y="-246" on="1"/>
        <pt x="279" y="-377" on="0"/>
        <pt x="431" y="-500" on="0"/>
        <pt x="592" y="-500" on="1"/>
        <pt x="695" y="-500" on="0"/>
        <pt x="893" y="-467" on="1"/>
        <pt x="915" y="-608" on="1"/>
        <pt x="770" y="-639" on="0"/>
        <pt x="600" y="-657" on="0"/>
      </contour>
    </TTGlyph>
    <TTGlyph name="uni062D.init" xMin="-20" yMin="0" xMax="1055" yMax="1014">
      <contour>
        <pt x="-10" y="0" on="1"/>
        <pt x="-20" y="0" on="0"/>
        <pt x="-20" y="10" on="1"/>
        <pt x="-20" y="152" on="1"/>
        <pt x="-20" y="160" on="0"/>
        <pt x="-10" y="160" on="1"/>
        <pt x="868" y="160" on="1"/>
        <pt x="793" y="235" on="0"/>
        <pt x="739" y="535" on="1"/>
        <pt x="709" y="712" on="0"/>
        <pt x="595" y="854" on="0"/>
        <pt x="481" y="854" on="1"/>
        <pt x="339" y="854" on="0"/>
        <pt x="184" y="772" on="1"/>
        <pt x="113" y="913" on="1"/>
        <pt x="201" y="970" on="0"/>
        <pt x="380" y="1014" on="0"/>
        <pt x="483" y="1014" on="1"/>
        <pt x="608" y="1014" on="0"/>
        <pt x="776" y="924" on="0"/>
        <pt x="875" y="747" on="0"/>
        <pt x="901" y="582" on="1"/>
        <pt x="931" y="399" on="0"/>
        <pt x="1006" y="200" on="0"/>
        <pt x="1055" y="156" on="1"/>
        <pt x="1055" y="0" on="1"/>
      </contour>
    </TTGlyph>
    <TTGlyph name="uni062D.medi" xMin="-20" yMin="0" xMax="1196" yMax="1014">
      <contour>
        <pt x="-10" y="0" on="1"/>
        <pt x="-20" y="0" on="0"/>
        <pt x="-20" y="10" on="1"/>
        <pt x="-20" y="152" on="1"/>
        <pt x="-20" y="160" on="0"/>
        <pt x="-10" y="160" on="1"/>
        <pt x="868" y="160" on="1"/>
        <pt x="789" y="239" on="0"/>
        <pt x="739" y="535" on="1"/>
        <pt x="710" y="709" on="0"/>
        <pt x="594" y="854" on="0"/>
        <pt x="481" y="854" on="1"/>
        <pt x="339" y="854" on="0"/>
        <pt x="184" y="772" on="1"/>
        <pt x="113" y="913" on="1"/>
        <pt x="201" y="970" on="0"/>
        <pt x="380" y="1014" on="0"/>
        <pt x="483" y="1014" on="1"/>
        <pt x="608" y="1014" on="0"/>
        <pt x="776" y="924" on="0"/>
        <pt x="875" y="747" on="0"/>
        <pt x="901" y="582" on="1"/>
        <pt x="948" y="261" on="0"/>
        <pt x="1049" y="160" on="1"/>
        <pt x="1186" y="160" on="1"/>
        <pt x="1196" y="160" on="0"/>
        <pt x="1196" y="152" on="1"/>
        <pt x="1196" y="10" on="1"/>
        <pt x="1196" y="0" on="0"/>
        <pt x="1186" y="0" on="1"/>
      </contour>
    </TTGlyph>
    <TTGlyph name="uni062E" xMin="92" yMin="-657" xMax="1186" yMax="1434">
      <component glyphName="uni062D" x="0" y="0" flags="0x204"/>
      <component glyphName="onedot.above" x="506" y="0" flags="0x4"/>
    </TTGlyph>
    <TTGlyph name="uni062E.fina" xMin="92" yMin="-657" xMax="1278" yMax="1434">
      <component glyphName="uni062D.fina" x="0" y="0" flags="0x204"/>
      <component glyphName="onedot.above" x="506" y="0" flags="0x4"/>
    </TTGlyph>
    <TTGlyph name="uni062E.init" xMin="-20" yMin="0" xMax="1055" yMax="1434">
      <component glyphName="uni062D.init" x="0" y="0" flags="0x204"/>
      <component glyphName="onedot.above" x="506" y="0" flags="0x4"/>
    </TTGlyph>
    <TTGlyph name="uni062E.medi" xMin="-20" yMin="0" xMax="1196" yMax="1434">
      <component glyphName="uni062D.medi" x="0" y="0" flags="0x204"/>
      <component glyphName="onedot.above" x="506" y="0" flags="0x4"/>
    </TTGlyph>
    <TTGlyph name="uni062F" xMin="92" yMin="0" xMax="950" yMax="1118">
      <contour>
        <pt x="92" y="160" on="1"/>
        <pt x="774" y="160" on="1"/>
        <pt x="734" y="435" on="0"/>
        <pt x="508" y="822" on="0"/>
        <pt x="299" y="963" on="1"/>
        <pt x="365" y="1118" on="1"/>
        <pt x="601" y="995" on="0"/>
        <pt x="898" y="511" on="0"/>
        <pt x="950" y="156" on="1"/>
        <pt x="950" y="0" on="1"/>
        <pt x="92" y="0" on="1"/>
      </contour>
    </TTGlyph>
    <TTGlyph name="uni062F.fina" xMin="92" yMin="0" xMax="1186" yMax="1118">
      <contour>
        <pt x="92" y="160" on="1"/>
        <pt x="774" y="160" on="1"/>
        <pt x="734" y="435" on="0"/>
        <pt x="508" y="822" on="0"/>
        <pt x="299" y="963" on="1"/>
        <pt x="365" y="1118" on="1"/>
        <pt x="601" y="993" on="0"/>
        <pt x="898" y="509" on="0"/>
        <pt x="948" y="160" on="1"/>
        <pt x="1176" y="160" on="1"/>
        <pt x="1186" y="160" on="0"/>
        <pt x="1186" y="152" on="1"/>
        <pt x="1186" y="10" on="1"/>
        <pt x="1186" y="0" on="0"/>
        <pt x="1176" y="0" on="1"/>
        <pt x="92" y="0" on="1"/>
      </contour>
    </TTGlyph>
    <TTGlyph name="uni0630" xMin="92" yMin="0" xMax="950" yMax="1553">
      <component glyphName="uni062F" x="0" y="0" flags="0x204"/>
      <component glyphName="onedot.above" x="371" y="119" flags="0x4"/>
    </TTGlyph>
    <TTGlyph name="uni0630.fina" xMin="92" yMin="0" xMax="1186" yMax="1553">
      <component glyphName="uni062F.fina" x="0" y="0" flags="0x204"/>
      <component glyphName="onedot.above" x="371" y="119" flags="0x4"/>
    </TTGlyph>
    <TTGlyph name="uni0631" xMin="-82" yMin="-492" xMax="492" yMax="993">
      <contour>
        <pt x="127" y="-492" on="1"/>
        <pt x="29" y="-492" on="0"/>
        <pt x="-82" y="-434" on="1"/>
        <pt x="-29" y="-297" on="1"/>
        <pt x="21" y="-319" on="0"/>
        <pt x="85" y="-332" on="0"/>
        <pt x="123" y="-332" on="1"/>
        <pt x="215" y="-332" on="0"/>
        <pt x="319" y="-182" on="0"/>
        <pt x="319" y="-59" on="1"/>
        <pt x="319" y="993" on="1"/>
        <pt x="492" y="993" on="1"/>
        <pt x="492" y="-49" on="1"/>
        <pt x="492" y="-256" on="0"/>
        <pt x="304" y="-492" on="0"/>
      </contour>
    </TTGlyph>
    <TTGlyph name="uni0631.fina" xMin="-82" yMin="-492" xMax="756" yMax="993">
      <contour>
        <pt x="492" y="0" on="1"/>
        <pt x="492" y="-49" on="1"/>
        <pt x="492" y="-256" on="0"/>
        <pt x="304" y="-492" on="0"/>
        <pt x="127" y="-492" on="1"/>
        <pt x="29" y="-492" on="0"/>
        <pt x="-82" y="-434" on="1"/>
        <pt x="-29" y="-297" on="1"/>
        <pt x="21" y="-319" on="0"/>
        <pt x="85" y="-332" on="0"/>
        <pt x="123" y="-332" on="1"/>
        <pt x="215" y="-332" on="0"/>
        <pt x="319" y="-182" on="0"/>
        <pt x="319" y="-59" on="1"/>
        <pt x="319" y="993" on="1"/>
        <pt x="492" y="993" on="1"/>
        <pt x="492" y="160" on="1"/>
        <pt x="745" y="160" on="1"/>
        <pt x="756" y="160" on="0"/>
        <pt x="756" y="152" on="1"/>
        <pt x="756" y="10" on="1"/>
        <pt x="756" y="0" on="0"/>
        <pt x="745" y="0" on="1"/>
      </contour>
    </TTGlyph>
    <TTGlyph name="uni0632" xMin="-82" yMin="-492" xMax="510" yMax="1434">
      <component glyphName="uni0631" x="0" y="0" flags="0x204"/>
      <component glyphName="onedot.above" x="395" y="0" flags="0x4"/>
    </TTGlyph>
    <TTGlyph name="uni0632.fina" xMin="-82" yMin="-492" xMax="756" yMax="1434">
      <component glyphName="uni0631.fina" x="0" y="0" flags="0x204"/>
      <component glyphName="onedot.above" x="436" y="0" flags="0x4"/>
    </TTGlyph>
    <TTGlyph name="uni0633" xMin="133" yMin="-492" xMax="2370" yMax="993">
      <contour>
        <pt x="2071" y="0" on="1"/>
        <pt x="1979" y="0" on="0"/>
        <pt x="1824" y="61" on="0"/>
        <pt x="1741" y="141" on="1"/>
        <pt x="1694" y="78" on="0"/>
        <pt x="1544" y="0" on="0"/>
        <pt x="1442" y="0" on="1"/>
        <pt x="1202" y="0" on="1"/>
        <pt x="1202" y="-242" on="0"/>
        <pt x="956" y="-492" on="0"/>
        <pt x="692" y="-492" on="1"/>
        <pt x="545" y="-492" on="1"/>
        <pt x="355" y="-492" on="0"/>
        <pt x="133" y="-212" on="0"/>
        <pt x="133" y="33" on="1"/>
        <pt x="133" y="159" on="0"/>
        <pt x="177" y="418" on="0"/>
        <pt x="217" y="516" on="1"/>
        <pt x="387" y="516" on="1"/>
        <pt x="317" y="339" on="0"/>
        <pt x="317" y="33" on="1"/>
        <pt x="317" y="-142" on="0"/>
        <pt x="457" y="-332" on="0"/>
        <pt x="584" y="-332" on="1"/>
        <pt x="684" y="-332" on="1"/>
        <pt x="862" y="-332" on="0"/>
        <pt x="1028" y="-170" on="0"/>
        <pt x="1028" y="-6" on="1"/>
        <pt x="1028" y="834" on="1"/>
        <pt x="1202" y="834" on="1"/>
        <pt x="1202" y="160" on="1"/>
        <pt x="1423" y="160" on="1"/>
        <pt x="1522" y="160" on="0"/>
        <pt x="1632" y="291" on="0"/>
        <pt x="1632" y="397" on="1"/>
        <pt x="1632" y="834" on="1"/>
        <pt x="1806" y="834" on="1"/>
        <pt x="1806" y="342" on="1"/>
        <pt x="1804" y="319" on="1"/>
        <pt x="1855" y="230" on="0"/>
        <pt x="1979" y="160" on="0"/>
        <pt x="2071" y="160" on="1"/>
        <pt x="2195" y="160" on="1"/>
        <pt x="2195" y="993" on="1"/>
        <pt x="2370" y="993" on="1"/>
        <pt x="2370" y="0" on="1"/>
      </contour>
    </TTGlyph>
    <TTGlyph name="uni0633.fina" xMin="133" yMin="-492" xMax="2654" yMax="993">
      <contour>
        <pt x="2071" y="0" on="1"/>
        <pt x="1979" y="0" on="0"/>
        <pt x="1824" y="61" on="0"/>
        <pt x="1741" y="141" on="1"/>
        <pt x="1694" y="78" on="0"/>
        <pt x="1544" y="0" on="0"/>
        <pt x="1442" y="0" on="1"/>
        <pt x="1202" y="0" on="1"/>
        <pt x="1202" y="-242" on="0"/>
        <pt x="956" y="-492" on="0"/>
        <pt x="692" y="-492" on="1"/>
        <pt x="545" y="-492" on="1"/>
        <pt x="355" y="-492" on="0"/>
        <pt x="133" y="-212" on="0"/>
        <pt x="133" y="33" on="1"/>
        <pt x="133" y="159" on="0"/>
        <pt x="177" y="418" on="0"/>
        <pt x="217" y="516" on="1"/>
        <pt x="387" y="516" on="1"/>
        <pt x="317" y="339" on="0"/>
        <pt x="317" y="33" on="1"/>
        <pt x="317" y="-142" on="0"/>
        <pt x="457" y="-332" on="0"/>
        <pt x="584" y="-332" on="1"/>
        <pt x="684" y="-332" on="1"/>
        <pt x="862" y="-332" on="0"/>
        <pt x="1028" y="-170" on="0"/>
        <pt x="1028" y="-6" on="1"/>
        <pt x="1028" y="834" on="1"/>
        <pt x="1202" y="834" on="1"/>
        <pt x="1202" y="160" on="1"/>
        <pt x="1423" y="160" on="1"/>
        <pt x="1522" y="160" on="0"/>
        <pt x="1632" y="291" on="0"/>
        <pt x="1632" y="397" on="1"/>
        <pt x="1632" y="834" on="1"/>
        <pt x="1806" y="834" on="1"/>
        <pt x="1806" y="342" on="1"/>
        <pt x="1804" y="319" on="1"/>
        <pt x="1855" y="230" on="0"/>
        <pt x="1979" y="160" on="0"/>
        <pt x="2071" y="160" on="1"/>
        <pt x="2195" y="160" on="1"/>
        <pt x="2195" y="993" on="1"/>
        <pt x="2370" y="993" on="1"/>
        <pt x="2370" y="160" on="1"/>
        <pt x="2644" y="160" on="1"/>
        <pt x="2654" y="160" on="0"/>
        <pt x="2654" y="152" on="1"/>
        <pt x="2654" y="10" on="1"/>
        <pt x="2654" y="0" on="0"/>
        <pt x="2644" y="0" on="1"/>
      </contour>
    </TTGlyph>
    <TTGlyph name="uni0633.init" xMin="-20" yMin="0" xMax="1624" yMax="993">
      <contour>
        <pt x="1325" y="0" on="1"/>
        <pt x="1233" y="0" on="0"/>
        <pt x="1078" y="61" on="0"/>
        <pt x="995" y="143" on="1"/>
        <pt x="950" y="80" on="0"/>
        <pt x="800" y="0" on="0"/>
        <pt x="696" y="0" on="1"/>
        <pt x="-10" y="0" on="1"/>
        <pt x="-20" y="0" on="0"/>
        <pt x="-20" y="10" on="1"/>
        <pt x="-20" y="152" on="1"/>
        <pt x="-20" y="160" on="0"/>
        <pt x="-10" y="160" on="1"/>
        <pt x="283" y="160" on="1"/>
        <pt x="283" y="834" on="1"/>
        <pt x="457" y="834" on="1"/>
        <pt x="457" y="160" on="1"/>
        <pt x="678" y="160" on="1"/>
        <pt x="777" y="160" on="0"/>
        <pt x="887" y="291" on="0"/>
        <pt x="887" y="397" on="1"/>
        <pt x="887" y="834" on="1"/>
        <pt x="1061" y="834" on="1"/>
        <pt x="1061" y="342" on="1"/>
        <pt x="1059" y="319" on="1"/>
        <pt x="1110" y="231" on="0"/>
        <pt x="1231" y="160" on="0"/>
        <pt x="1325" y="160" on="1"/>
        <pt x="1450" y="160" on="1"/>
        <pt x="1450" y="993" on="1"/>
        <pt x="1624" y="993" on="1"/>
        <pt x="1624" y="0" on="1"/>
      </contour>
    </TTGlyph>
    <TTGlyph name="uni0633.medi" xMin="-20" yMin="0" xMax="1909" yMax="993">
      <contour>
        <pt x="1325" y="0" on="1"/>
        <pt x="1233" y="0" on="0"/>
        <pt x="1078" y="61" on="0"/>
        <pt x="995" y="143" on="1"/>
        <pt x="950" y="80" on="0"/>
        <pt x="800" y="0" on="0"/>
        <pt x="696" y="0" on="1"/>
        <pt x="-10" y="0" on="1"/>
        <pt x="-20" y="0" on="0"/>
        <pt x="-20" y="10" on="1"/>
        <pt x="-20" y="152" on="1"/>
        <pt x="-20" y="160" on="0"/>
        <pt x="-10" y="160" on="1"/>
        <pt x="283" y="160" on="1"/>
        <pt x="283" y="834" on="1"/>
        <pt x="457" y="834" on="1"/>
        <pt x="457" y="160" on="1"/>
        <pt x="678" y="160" on="1"/>
        <pt x="777" y="160" on="0"/>
        <pt x="887" y="291" on="0"/>
        <pt x="887" y="397" on="1"/>
        <pt x="887" y="834" on="1"/>
        <pt x="1061" y="834" on="1"/>
        <pt x="1061" y="342" on="1"/>
        <pt x="1059" y="319" on="1"/>
        <pt x="1110" y="231" on="0"/>
        <pt x="1231" y="160" on="0"/>
        <pt x="1325" y="160" on="1"/>
        <pt x="1450" y="160" on="1"/>
        <pt x="1450" y="993" on="1"/>
        <pt x="1624" y="993" on="1"/>
        <pt x="1624" y="160" on="1"/>
        <pt x="1898" y="160" on="1"/>
        <pt x="1909" y="160" on="0"/>
        <pt x="1909" y="152" on="1"/>
        <pt x="1909" y="10" on="1"/>
        <pt x="1909" y="0" on="0"/>
        <pt x="1898" y="0" on="1"/>
      </contour>
    </TTGlyph>
    <TTGlyph name="uni0634" xMin="133" yMin="-492" xMax="2370" yMax="1690">
      <component glyphName="uni0633" x="0" y="0" flags="0x204"/>
      <component glyphName="threedots.above" x="1706" y="0" flags="0x4"/>
    </TTGlyph>
    <TTGlyph name="uni0634.fina" xMin="133" yMin="-492" xMax="2654" yMax="1690">
      <component glyphName="uni0633.fina" x="0" y="0" flags="0x204"/>
      <component glyphName="threedots.above" x="1716" y="0" flags="0x4"/>
    </TTGlyph>
    <TTGlyph name="uni0634.init" xMin="-20" yMin="0" xMax="1624" yMax="1690">
      <component glyphName="uni0633.init" x="0" y="0" flags="0x204"/>
      <component glyphName="threedots.above" x="971" y="0" flags="0x4"/>
    </TTGlyph>
    <TTGlyph name="uni0634.medi" xMin="-20" yMin="0" xMax="1909" yMax="1690">
      <component glyphName="uni0633.medi" x="0" y="0" flags="0x204"/>
      <component glyphName="threedots.above" x="973" y="0" flags="0x4"/>
    </TTGlyph>
    <TTGlyph name="uni0635" xMin="133" yMin="-492" xMax="2238" yMax="1014">
      <contour>
        <pt x="545" y="-492" on="1"/>
        <pt x="355" y="-492" on="0"/>
        <pt x="133" y="-212" on="0"/>
        <pt x="133" y="33" on="1"/>
        <pt x="133" y="159" on="0"/>
        <pt x="177" y="418" on="0"/>
        <pt x="217" y="516" on="1"/>
        <pt x="387" y="516" on="1"/>
        <pt x="317" y="339" on="0"/>
        <pt x="317" y="33" on="1"/>
        <pt x="317" y="-142" on="0"/>
        <pt x="457" y="-332" on="0"/>
        <pt x="584" y="-332" on="1"/>
        <pt x="684" y="-332" on="1"/>
        <pt x="862" y="-332" on="0"/>
        <pt x="1028" y="-170" on="0"/>
        <pt x="1028" y="-6" on="1"/>
        <pt x="1028" y="993" on="1"/>
        <pt x="1202" y="993" on="1"/>
        <pt x="1202" y="553" on="1"/>
        <pt x="1298" y="782" on="0"/>
        <pt x="1588" y="1014" on="0"/>
        <pt x="1769" y="1014" on="1"/>
        <pt x="2001" y="1014" on="0"/>
        <pt x="2238" y="762" on="0"/>
        <pt x="2238" y="494" on="1"/>
        <pt x="2238" y="0" on="1"/>
        <pt x="1202" y="0" on="1"/>
        <pt x="1202" y="-248" on="0"/>
        <pt x="956" y="-492" on="0"/>
        <pt x="692" y="-492" on="1"/>
      </contour>
      <contour>
        <pt x="2064" y="160" on="1"/>
        <pt x="2064" y="485" on="1"/>
        <pt x="2064" y="674" on="0"/>
        <pt x="1900" y="852" on="0"/>
        <pt x="1733" y="852" on="1"/>
        <pt x="1416" y="852" on="0"/>
        <pt x="1202" y="332" on="1"/>
        <pt x="1202" y="160" on="1"/>
      </contour>
    </TTGlyph>
    <TTGlyph name="uni0635.fina" xMin="133" yMin="-492" xMax="2523" yMax="1014">
      <contour>
        <pt x="1202" y="0" on="1"/>
        <pt x="1202" y="-248" on="0"/>
        <pt x="956" y="-492" on="0"/>
        <pt x="692" y="-492" on="1"/>
        <pt x="545" y="-492" on="1"/>
        <pt x="355" y="-492" on="0"/>
        <pt x="133" y="-212" on="0"/>
        <pt x="133" y="33" on="1"/>
        <pt x="133" y="159" on="0"/>
        <pt x="177" y="418" on="0"/>
        <pt x="217" y="516" on="1"/>
        <pt x="387" y="516" on="1"/>
        <pt x="317" y="339" on="0"/>
        <pt x="317" y="33" on="1"/>
        <pt x="317" y="-142" on="0"/>
        <pt x="457" y="-332" on="0"/>
        <pt x="584" y="-332" on="1"/>
        <pt x="684" y="-332" on="1"/>
        <pt x="862" y="-332" on="0"/>
        <pt x="1028" y="-170" on="0"/>
        <pt x="1028" y="-6" on="1"/>
        <pt x="1028" y="993" on="1"/>
        <pt x="1202" y="993" on="1"/>
        <pt x="1202" y="553" on="1"/>
        <pt x="1298" y="782" on="0"/>
        <pt x="1588" y="1014" on="0"/>
        <pt x="1769" y="1014" on="1"/>
        <pt x="2001" y="1014" on="0"/>
        <pt x="2238" y="762" on="0"/>
        <pt x="2238" y="494" on="1"/>
        <pt x="2238" y="160" on="1"/>
        <pt x="2513" y="160" on="1"/>
        <pt x="2523" y="160" on="0"/>
        <pt x="2523" y="152" on="1"/>
        <pt x="2523" y="10" on="1"/>
        <pt x="2523" y="0" on="0"/>
        <pt x="2513" y="0" on="1"/>
      </contour>
      <contour>
        <pt x="2064" y="160" on="1"/>
        <pt x="2064" y="485" on="1"/>
        <pt x="2064" y="674" on="0"/>
        <pt x="1900" y="852" on="0"/>
        <pt x="1733" y="852" on="1"/>
        <pt x="1416" y="852" on="0"/>
        <pt x="1202" y="332" on="1"/>
        <pt x="1202" y="160" on="1"/>
      </contour>
    </TTGlyph>
    <TTGlyph name="uni0635.init" xMin="-20" yMin="0" xMax="1450" yMax="1014">
      <contour>
        <pt x="-10" y="0" on="1"/>
        <pt x="-20" y="0" on="0"/>
        <pt x="-20" y="10" on="1"/>
        <pt x="-20" y="152" on="1"/>
        <pt x="-20" y="160" on="0"/>
        <pt x="-10" y="160" on="1"/>
        <pt x="240" y="160" on="1"/>
        <pt x="240" y="932" on="1"/>
        <pt x="414" y="932" on="1"/>
        <pt x="414" y="553" on="1"/>
        <pt x="510" y="782" on="0"/>
        <pt x="800" y="1014" on="0"/>
        <pt x="981" y="1014" on="1"/>
        <pt x="1213" y="1014" on="0"/>
        <pt x="1450" y="762" on="0"/>
        <pt x="1450" y="494" on="1"/>
        <pt x="1450" y="0" on="1"/>
      </contour>
      <contour>
        <pt x="1276" y="160" on="1"/>
        <pt x="1276" y="485" on="1"/>
        <pt x="1276" y="674" on="0"/>
        <pt x="1111" y="852" on="0"/>
        <pt x="944" y="852" on="1"/>
        <pt x="629" y="852" on="0"/>
        <pt x="414" y="328" on="1"/>
        <pt x="414" y="160" on="1"/>
      </contour>
    </TTGlyph>
    <TTGlyph name="uni0635.medi" xMin="-20" yMin="0" xMax="1731" yMax="1014">
      <contour>
        <pt x="-10" y="0" on="1"/>
        <pt x="-20" y="0" on="0"/>
        <pt x="-20" y="10" on="1"/>
        <pt x="-20" y="152" on="1"/>
        <pt x="-20" y="160" on="0"/>
        <pt x="-10" y="160" on="1"/>
        <pt x="240" y="160" on="1"/>
        <pt x="240" y="932" on="1"/>
        <pt x="414" y="932" on="1"/>
        <pt x="414" y="553" on="1"/>
        <pt x="510" y="782" on="0"/>
        <pt x="800" y="1014" on="0"/>
        <pt x="981" y="1014" on="1"/>
        <pt x="1213" y="1014" on="0"/>
        <pt x="1450" y="762" on="0"/>
        <pt x="1450" y="494" on="1"/>
        <pt x="1450" y="160" on="1"/>
        <pt x="1720" y="160" on="1"/>
        <pt x="1731" y="160" on="0"/>
        <pt x="1731" y="152" on="1"/>
        <pt x="1731" y="10" on="1"/>
        <pt x="1731" y="0" on="0"/>
        <pt x="1720" y="0" on="1"/>
      </contour>
      <contour>
        <pt x="1276" y="160" on="1"/>
        <pt x="1276" y="485" on="1"/>
        <pt x="1276" y="674" on="0"/>
        <pt x="1111" y="852" on="0"/>
        <pt x="944" y="852" on="1"/>
        <pt x="629" y="852" on="0"/>
        <pt x="414" y="328" on="1"/>
        <pt x="414" y="160" on="1"/>
      </contour>
    </TTGlyph>
    <TTGlyph name="uni0636" xMin="133" yMin="-492" xMax="2238" yMax="1434">
      <component glyphName="uni0635" x="0" y="0" flags="0x204"/>
      <component glyphName="onedot.above" x="1726" y="0" flags="0x4"/>
    </TTGlyph>
    <TTGlyph name="uni0636.fina" xMin="133" yMin="-492" xMax="2523" yMax="1434">
      <component glyphName="uni0635.fina" x="0" y="0" flags="0x204"/>
      <component glyphName="onedot.above" x="1726" y="0" flags="0x4"/>
    </TTGlyph>
    <TTGlyph name="uni0636.init" xMin="-20" yMin="0" xMax="1450" yMax="1434">
      <component glyphName="uni0635.init" x="0" y="0" flags="0x204"/>
      <component glyphName="onedot.above" x="924" y="0" flags="0x4"/>
    </TTGlyph>
    <TTGlyph name="uni0636.medi" xMin="-20" yMin="0" xMax="1731" yMax="1434">
      <component glyphName="uni0635.medi" x="0" y="0" flags="0x204"/>
      <component glyphName="onedot.above" x="926" y="0" flags="0x4"/>
    </TTGlyph>
    <TTGlyph name="uni0637" xMin="41" yMin="0" xMax="1511" yMax="1556">
      <contour>
        <pt x="51" y="0" on="1"/>
        <pt x="41" y="0" on="0"/>
        <pt x="41" y="10" on="1"/>
        <pt x="41" y="152" on="1"/>
        <pt x="41" y="160" on="0"/>
        <pt x="51" y="160" on="1"/>
        <pt x="301" y="160" on="1"/>
        <pt x="301" y="1556" on="1"/>
        <pt x="475" y="1556" on="1"/>
        <pt x="475" y="553" on="1"/>
        <pt x="571" y="782" on="0"/>
        <pt x="861" y="1014" on="0"/>
        <pt x="1042" y="1014" on="1"/>
        <pt x="1274" y="1014" on="0"/>
        <pt x="1511" y="762" on="0"/>
        <pt x="1511" y="494" on="1"/>
        <pt x="1511" y="0" on="1"/>
      </contour>
      <contour>
        <pt x="1337" y="160" on="1"/>
        <pt x="1337" y="485" on="1"/>
        <pt x="1337" y="674" on="0"/>
        <pt x="1173" y="852" on="0"/>
        <pt x="1006" y="852" on="1"/>
        <pt x="851" y="852" on="0"/>
        <pt x="583" y="591" on="0"/>
        <pt x="475" y="328" on="1"/>
        <pt x="475" y="160" on="1"/>
      </contour>
    </TTGlyph>
    <TTGlyph name="uni0637.fina" xMin="61" yMin="0" xMax="1751" yMax="1556">
      <contour>
        <pt x="61" y="160" on="1"/>
        <pt x="260" y="160" on="1"/>
        <pt x="260" y="1556" on="1"/>
        <pt x="434" y="1556" on="1"/>
        <pt x="434" y="553" on="1"/>
        <pt x="530" y="782" on="0"/>
        <pt x="820" y="1014" on="0"/>
        <pt x="1001" y="1014" on="1"/>
        <pt x="1233" y="1014" on="0"/>
        <pt x="1470" y="762" on="0"/>
        <pt x="1470" y="494" on="1"/>
        <pt x="1470" y="160" on="1"/>
        <pt x="1741" y="160" on="1"/>
        <pt x="1751" y="160" on="0"/>
        <pt x="1751" y="152" on="1"/>
        <pt x="1751" y="10" on="1"/>
        <pt x="1751" y="0" on="0"/>
        <pt x="1741" y="0" on="1"/>
        <pt x="61" y="0" on="1"/>
      </contour>
      <contour>
        <pt x="1296" y="160" on="1"/>
        <pt x="1296" y="485" on="1"/>
        <pt x="1296" y="674" on="0"/>
        <pt x="1132" y="852" on="0"/>
        <pt x="965" y="852" on="1"/>
        <pt x="810" y="852" on="0"/>
        <pt x="542" y="591" on="0"/>
        <pt x="434" y="328" on="1"/>
        <pt x="434" y="160" on="1"/>
      </contour>
    </TTGlyph>
    <TTGlyph name="uni0637.init" xMin="-20" yMin="0" xMax="1450" yMax="1556">
      <contour>
        <pt x="-10" y="0" on="1"/>
        <pt x="-20" y="0" on="0"/>
        <pt x="-20" y="10" on="1"/>
        <pt x="-20" y="152" on="1"/>
        <pt x="-20" y="160" on="0"/>
        <pt x="-10" y="160" on="1"/>
        <pt x="240" y="160" on="1"/>
        <pt x="240" y="1556" on="1"/>
        <pt x="414" y="1556" on="1"/>
        <pt x="414" y="553" on="1"/>
        <pt x="510" y="782" on="0"/>
        <pt x="800" y="1014" on="0"/>
        <pt x="981" y="1014" on="1"/>
        <pt x="1213" y="1014" on="0"/>
        <pt x="1450" y="762" on="0"/>
        <pt x="1450" y="494" on="1"/>
        <pt x="1450" y="0" on="1"/>
      </contour>
      <contour>
        <pt x="1276" y="160" on="1"/>
        <pt x="1276" y="485" on="1"/>
        <pt x="1276" y="674" on="0"/>
        <pt x="1111" y="852" on="0"/>
        <pt x="944" y="852" on="1"/>
        <pt x="629" y="852" on="0"/>
        <pt x="414" y="328" on="1"/>
        <pt x="414" y="160" on="1"/>
      </contour>
    </TTGlyph>
    <TTGlyph name="uni0637.medi" xMin="-20" yMin="0" xMax="1731" yMax="1556">
      <contour>
        <pt x="-10" y="0" on="1"/>
        <pt x="-20" y="0" on="0"/>
        <pt x="-20" y="10" on="1"/>
        <pt x="-20" y="152" on="1"/>
        <pt x="-20" y="160" on="0"/>
        <pt x="-10" y="160" on="1"/>
        <pt x="240" y="160" on="1"/>
        <pt x="240" y="1556" on="1"/>
        <pt x="414" y="1556" on="1"/>
        <pt x="414" y="553" on="1"/>
        <pt x="510" y="782" on="0"/>
        <pt x="800" y="1014" on="0"/>
        <pt x="981" y="1014" on="1"/>
        <pt x="1213" y="1014" on="0"/>
        <pt x="1450" y="762" on="0"/>
        <pt x="1450" y="494" on="1"/>
        <pt x="1450" y="160" on="1"/>
        <pt x="1720" y="160" on="1"/>
        <pt x="1731" y="160" on="0"/>
        <pt x="1731" y="152" on="1"/>
        <pt x="1731" y="10" on="1"/>
        <pt x="1731" y="0" on="0"/>
        <pt x="1720" y="0" on="1"/>
      </contour>
      <contour>
        <pt x="1276" y="160" on="1"/>
        <pt x="1276" y="485" on="1"/>
        <pt x="1276" y="674" on="0"/>
        <pt x="1111" y="852" on="0"/>
        <pt x="944" y="852" on="1"/>
        <pt x="629" y="852" on="0"/>
        <pt x="414" y="328" on="1"/>
        <pt x="414" y="160" on="1"/>
      </contour>
    </TTGlyph>
    <TTGlyph name="uni0638" xMin="41" yMin="0" xMax="1511" yMax="1556">
      <component glyphName="uni0637" x="0" y="0" flags="0x204"/>
      <component glyphName="onedot.above" x="999" y="0" flags="0x4"/>
    </TTGlyph>
    <TTGlyph name="uni0638.fina" xMin="61" yMin="0" xMax="1751" yMax="1556">
      <component glyphName="uni0637.fina" x="0" y="0" flags="0x204"/>
      <component glyphName="onedot.above" x="938" y="0" flags="0x4"/>
    </TTGlyph>
    <TTGlyph name="uni0638.init" xMin="-20" yMin="0" xMax="1450" yMax="1556">
      <component glyphName="uni0637.init" x="0" y="0" flags="0x204"/>
      <component glyphName="onedot.above" x="938" y="0" flags="0x4"/>
    </TTGlyph>
    <TTGlyph name="uni0638.medi" xMin="-20" yMin="0" xMax="1731" yMax="1556">
      <component glyphName="uni0637.medi" x="0" y="0" flags="0x204"/>
      <component glyphName="onedot.above" x="938" y="0" flags="0x4"/>
    </TTGlyph>
    <TTGlyph name="uni0639" xMin="133" yMin="-657" xMax="1004" yMax="1014">
      <contour>
        <pt x="559" y="-657" on="1"/>
        <pt x="361" y="-657" on="0"/>
        <pt x="133" y="-450" on="0"/>
        <pt x="133" y="-262" on="1"/>
        <pt x="133" y="-35" on="0"/>
        <pt x="397" y="141" on="1"/>
        <pt x="215" y="300" on="0"/>
        <pt x="215" y="549" on="1"/>
        <pt x="215" y="691" on="0"/>
        <pt x="345" y="901" on="0"/>
        <pt x="576" y="1014" on="0"/>
        <pt x="719" y="1014" on="1"/>
        <pt x="807" y="1014" on="0"/>
        <pt x="956" y="979" on="0"/>
        <pt x="1004" y="954" on="1"/>
        <pt x="948" y="801" on="1"/>
        <pt x="821" y="854" on="0"/>
        <pt x="709" y="854" on="1"/>
        <pt x="562" y="854" on="0"/>
        <pt x="401" y="697" on="0"/>
        <pt x="401" y="551" on="1"/>
        <pt x="401" y="445" on="0"/>
        <pt x="468" y="268" on="0"/>
        <pt x="526" y="217" on="1"/>
        <pt x="697" y="302" on="0"/>
        <pt x="879" y="356" on="1"/>
        <pt x="928" y="205" on="1"/>
        <pt x="747" y="160" on="0"/>
        <pt x="458" y="13" on="0"/>
        <pt x="319" y="-155" on="0"/>
        <pt x="319" y="-246" on="1"/>
        <pt x="319" y="-378" on="0"/>
        <pt x="473" y="-500" on="0"/>
        <pt x="633" y="-500" on="1"/>
        <pt x="736" y="-500" on="0"/>
        <pt x="934" y="-467" on="1"/>
        <pt x="956" y="-608" on="1"/>
        <pt x="811" y="-639" on="0"/>
        <pt x="641" y="-657" on="0"/>
      </contour>
    </TTGlyph>
    <TTGlyph name="uni0639.fina" xMin="133" yMin="-657" xMax="1278" yMax="1059">
      <contour>
        <pt x="193" y="-262" on="1"/>
        <pt x="193" y="-134" on="0"/>
        <pt x="341" y="93" on="0"/>
        <pt x="504" y="205" on="1"/>
        <pt x="359" y="344" on="0"/>
        <pt x="155" y="687" on="0"/>
        <pt x="133" y="834" on="1"/>
        <pt x="245" y="939" on="0"/>
        <pt x="526" y="1059" on="0"/>
        <pt x="672" y="1059" on="1"/>
        <pt x="801" y="1059" on="0"/>
        <pt x="1063" y="977" on="0"/>
        <pt x="1161" y="909" on="1"/>
        <pt x="1157" y="712" on="0"/>
        <pt x="967" y="347" on="0"/>
        <pt x="788" y="207" on="1"/>
        <pt x="899" y="160" on="0"/>
        <pt x="1020" y="160" on="1"/>
        <pt x="1268" y="160" on="1"/>
        <pt x="1278" y="160" on="0"/>
        <pt x="1278" y="152" on="1"/>
        <pt x="1278" y="10" on="1"/>
        <pt x="1278" y="0" on="0"/>
        <pt x="1268" y="0" on="1"/>
        <pt x="1028" y="0" on="1"/>
        <pt x="950" y="0" on="0"/>
        <pt x="730" y="62" on="0"/>
        <pt x="643" y="109" on="1"/>
        <pt x="497" y="16" on="0"/>
        <pt x="379" y="-153" on="0"/>
        <pt x="379" y="-246" on="1"/>
        <pt x="379" y="-377" on="0"/>
        <pt x="531" y="-500" on="0"/>
        <pt x="692" y="-500" on="1"/>
        <pt x="773" y="-500" on="0"/>
        <pt x="921" y="-479" on="0"/>
        <pt x="993" y="-467" on="1"/>
        <pt x="1016" y="-608" on="1"/>
        <pt x="868" y="-639" on="0"/>
        <pt x="708" y="-657" on="0"/>
        <pt x="618" y="-657" on="1"/>
        <pt x="420" y="-657" on="0"/>
        <pt x="193" y="-449" on="0"/>
      </contour>
      <contour>
        <pt x="330" y="780" on="1"/>
        <pt x="355" y="662" on="0"/>
        <pt x="525" y="398" on="0"/>
        <pt x="645" y="299" on="1"/>
        <pt x="802" y="407" on="0"/>
        <pt x="961" y="661" on="0"/>
        <pt x="973" y="823" on="1"/>
        <pt x="830" y="899" on="0"/>
        <pt x="678" y="899" on="1"/>
        <pt x="504" y="899" on="0"/>
      </contour>
    </TTGlyph>
    <TTGlyph name="uni0639.init" xMin="-20" yMin="0" xMax="963" yMax="1014">
      <contour>
        <pt x="-10" y="0" on="1"/>
        <pt x="-20" y="0" on="0"/>
        <pt x="-20" y="10" on="1"/>
        <pt x="-20" y="152" on="1"/>
        <pt x="-20" y="160" on="0"/>
        <pt x="-10" y="160" on="1"/>
        <pt x="305" y="160" on="1"/>
        <pt x="240" y="215" on="0"/>
        <pt x="160" y="407" on="0"/>
        <pt x="160" y="524" on="1"/>
        <pt x="160" y="755" on="0"/>
        <pt x="425" y="1014" on="0"/>
        <pt x="647" y="1014" on="1"/>
        <pt x="735" y="1014" on="0"/>
        <pt x="884" y="979" on="0"/>
        <pt x="932" y="954" on="1"/>
        <pt x="877" y="801" on="1"/>
        <pt x="750" y="854" on="0"/>
        <pt x="637" y="854" on="1"/>
        <pt x="346" y="854" on="0"/>
        <pt x="346" y="516" on="1"/>
        <pt x="346" y="357" on="0"/>
        <pt x="485" y="160" on="0"/>
        <pt x="598" y="160" on="1"/>
        <pt x="963" y="160" on="1"/>
        <pt x="963" y="0" on="1"/>
      </contour>
    </TTGlyph>
    <TTGlyph name="uni0639.medi" xMin="-20" yMin="0" xMax="1237" yMax="1059">
      <contour>
        <pt x="987" y="0" on="1"/>
        <pt x="901" y="0" on="0"/>
        <pt x="703" y="51" on="0"/>
        <pt x="608" y="102" on="1"/>
        <pt x="428" y="0" on="0"/>
        <pt x="227" y="0" on="1"/>
        <pt x="-10" y="0" on="1"/>
        <pt x="-20" y="0" on="0"/>
        <pt x="-20" y="10" on="1"/>
        <pt x="-20" y="152" on="1"/>
        <pt x="-20" y="160" on="0"/>
        <pt x="-10" y="160" on="1"/>
        <pt x="225" y="160" on="1"/>
        <pt x="372" y="160" on="0"/>
        <pt x="469" y="201" on="1"/>
        <pt x="390" y="258" on="0"/>
        <pt x="225" y="473" on="0"/>
        <pt x="110" y="722" on="0"/>
        <pt x="92" y="834" on="1"/>
        <pt x="204" y="939" on="0"/>
        <pt x="485" y="1059" on="0"/>
        <pt x="631" y="1059" on="1"/>
        <pt x="760" y="1059" on="0"/>
        <pt x="1022" y="977" on="0"/>
        <pt x="1120" y="909" on="1"/>
        <pt x="1120" y="697" on="0"/>
        <pt x="924" y="321" on="0"/>
        <pt x="752" y="203" on="1"/>
        <pt x="866" y="160" on="0"/>
        <pt x="979" y="160" on="1"/>
        <pt x="1227" y="160" on="1"/>
        <pt x="1237" y="160" on="0"/>
        <pt x="1237" y="152" on="1"/>
        <pt x="1237" y="10" on="1"/>
        <pt x="1237" y="0" on="0"/>
        <pt x="1227" y="0" on="1"/>
      </contour>
      <contour>
        <pt x="610" y="293" on="1"/>
        <pt x="768" y="400" on="0"/>
        <pt x="922" y="656" on="0"/>
        <pt x="932" y="823" on="1"/>
        <pt x="789" y="899" on="0"/>
        <pt x="637" y="899" on="1"/>
        <pt x="463" y="899" on="0"/>
        <pt x="289" y="780" on="1"/>
        <pt x="320" y="640" on="0"/>
        <pt x="490" y="384" on="0"/>
      </contour>
    </TTGlyph>
    <TTGlyph name="uni063A" xMin="133" yMin="-657" xMax="1004" yMax="1434">
      <component glyphName="uni0639" x="0" y="0" flags="0x204"/>
      <component glyphName="onedot.above" x="625" y="0" flags="0x4"/>
    </TTGlyph>
    <TTGlyph name="uni063A.fina" xMin="133" yMin="-657" xMax="1278" yMax="1516">
      <component glyphName="uni0639.fina" x="0" y="0" flags="0x204"/>
      <component glyphName="onedot.above" x="625" y="82" flags="0x4"/>
    </TTGlyph>
    <TTGlyph name="uni063A.init" xMin="-20" yMin="0" xMax="963" yMax="1434">
      <component glyphName="uni0639.init" x="0" y="0" flags="0x204"/>
      <component glyphName="onedot.above" x="592" y="0" flags="0x4"/>
    </TTGlyph>
    <TTGlyph name="uni063A.medi" xMin="-20" yMin="0" xMax="1237" yMax="1516">
      <component glyphName="uni0639.medi" x="0" y="0" flags="0x204"/>
      <component glyphName="onedot.above" x="584" y="82" flags="0x4"/>
    </TTGlyph>
    <TTGlyph name="uni0640" xMin="-20" yMin="0" xMax="371" yMax="160">
      <contour>
        <pt x="360" y="160" on="1"/>
        <pt x="371" y="160" on="0"/>
        <pt x="371" y="152" on="1"/>
        <pt x="371" y="10" on="1"/>
        <pt x="371" y="0" on="0"/>
        <pt x="360" y="0" on="1"/>
        <pt x="-10" y="0" on="1"/>
        <pt x="-20" y="0" on="0"/>
        <pt x="-20" y="10" on="1"/>
        <pt x="-20" y="152" on="1"/>
        <pt x="-20" y="160" on="0"/>
        <pt x="-10" y="160" on="1"/>
      </contour>
    </TTGlyph>
    <TTGlyph name="uni0641" xMin="133" yMin="0" xMax="1898" yMax="1434">
      <component glyphName="feh_dotless.isol" x="0" y="0" flags="0x204"/>
      <component glyphName="onedot.above" x="1511" y="0" flags="0x4"/>
    </TTGlyph>
    <TTGlyph name="uni0641.fina" xMin="133" yMin="0" xMax="2134" yMax="1434">
      <component glyphName="uni06A1.fina" x="0" y="0" flags="0x204"/>
      <component glyphName="onedot.above" x="1511" y="0" flags="0x4"/>
    </TTGlyph>
    <TTGlyph name="uni0641.init" xMin="-20" yMin="0" xMax="1024" yMax="1434">
      <component glyphName="uni066F.init" x="0" y="0" flags="0x204"/>
      <component glyphName="onedot.above" x="635" y="0" flags="0x4"/>
    </TTGlyph>
    <TTGlyph name="uni0641.medi" xMin="-20" yMin="0" xMax="1251" yMax="1434">
      <component glyphName="uni066F.medi" x="0" y="0" flags="0x204"/>
      <component glyphName="onedot.above" x="653" y="0" flags="0x4"/>
    </TTGlyph>
    <TTGlyph name="uni0642" xMin="133" yMin="-492" xMax="1620" yMax="1434">
      <component glyphName="uni066F" x="0" y="0" flags="0x204"/>
      <component glyphName="twodots.above" x="1280" y="0" flags="0x4"/>
    </TTGlyph>
    <TTGlyph name="uni0642.fina" xMin="133" yMin="-492" xMax="1855" yMax="1434">
      <component glyphName="uni066F.fina" x="0" y="0" flags="0x204"/>
      <component glyphName="twodots.above" x="1317" y="0" flags="0x4"/>
    </TTGlyph>
    <TTGlyph name="uni0642.init" xMin="-20" yMin="0" xMax="1024" yMax="1434">
      <component glyphName="uni066F.init" x="0" y="0" flags="0x204"/>
      <component glyphName="twodots.above" x="690" y="0" flags="0x4"/>
    </TTGlyph>
    <TTGlyph name="uni0642.medi" xMin="-20" yMin="0" xMax="1251" yMax="1434">
      <component glyphName="uni066F.medi" x="0" y="0" flags="0x204"/>
      <component glyphName="twodots.above" x="690" y="0" flags="0x4"/>
    </TTGlyph>
    <TTGlyph name="uni0643" xMin="133" yMin="0" xMax="1419" yMax="1556">
      <contour>
        <pt x="586" y="731" on="1"/>
        <pt x="682" y="745" on="1"/>
        <pt x="610" y="792" on="0"/>
        <pt x="610" y="874" on="1"/>
        <pt x="610" y="961" on="0"/>
        <pt x="724" y="1059" on="0"/>
        <pt x="819" y="1059" on="1"/>
        <pt x="895" y="1059" on="0"/>
        <pt x="954" y="1028" on="1"/>
        <pt x="924" y="936" on="1"/>
        <pt x="881" y="961" on="0"/>
        <pt x="821" y="961" on="1"/>
        <pt x="776" y="961" on="0"/>
        <pt x="715" y="910" on="0"/>
        <pt x="715" y="856" on="1"/>
        <pt x="715" y="821" on="0"/>
        <pt x="750" y="772" on="0"/>
        <pt x="776" y="760" on="1"/>
        <pt x="800" y="765" on="0"/>
        <pt x="952" y="786" on="0"/>
        <pt x="981" y="786" on="1"/>
        <pt x="981" y="686" on="1"/>
        <pt x="964" y="686" on="0"/>
        <pt x="818" y="671" on="0"/>
        <pt x="783" y="666" on="1"/>
        <pt x="606" y="641" on="0"/>
        <pt x="586" y="637" on="1"/>
      </contour>
      <contour>
        <pt x="516" y="0" on="1"/>
        <pt x="330" y="0" on="0"/>
        <pt x="133" y="190" on="0"/>
        <pt x="133" y="367" on="1"/>
        <pt x="133" y="503" on="0"/>
        <pt x="184" y="643" on="1"/>
        <pt x="338" y="643" on="1"/>
        <pt x="307" y="497" on="0"/>
        <pt x="307" y="381" on="1"/>
        <pt x="307" y="278" on="0"/>
        <pt x="416" y="160" on="0"/>
        <pt x="510" y="160" on="1"/>
        <pt x="1245" y="160" on="1"/>
        <pt x="1245" y="1556" on="1"/>
        <pt x="1419" y="1556" on="1"/>
        <pt x="1419" y="0" on="1"/>
      </contour>
    </TTGlyph>
    <TTGlyph name="uni0643.fina" xMin="133" yMin="0" xMax="1702" yMax="1556">
      <contour>
        <pt x="516" y="0" on="1"/>
        <pt x="330" y="0" on="0"/>
        <pt x="133" y="190" on="0"/>
        <pt x="133" y="367" on="1"/>
        <pt x="133" y="503" on="0"/>
        <pt x="184" y="643" on="1"/>
        <pt x="338" y="643" on="1"/>
        <pt x="307" y="497" on="0"/>
        <pt x="307" y="381" on="1"/>
        <pt x="307" y="278" on="0"/>
        <pt x="416" y="160" on="0"/>
        <pt x="510" y="160" on="1"/>
        <pt x="1245" y="160" on="1"/>
        <pt x="1245" y="1556" on="1"/>
        <pt x="1419" y="1556" on="1"/>
        <pt x="1419" y="160" on="1"/>
        <pt x="1692" y="160" on="1"/>
        <pt x="1702" y="160" on="0"/>
        <pt x="1702" y="152" on="1"/>
        <pt x="1702" y="10" on="1"/>
        <pt x="1702" y="0" on="0"/>
        <pt x="1692" y="0" on="1"/>
      </contour>
      <contour>
        <pt x="586" y="731" on="1"/>
        <pt x="682" y="745" on="1"/>
        <pt x="610" y="792" on="0"/>
        <pt x="610" y="874" on="1"/>
        <pt x="610" y="961" on="0"/>
        <pt x="724" y="1059" on="0"/>
        <pt x="819" y="1059" on="1"/>
        <pt x="895" y="1059" on="0"/>
        <pt x="954" y="1028" on="1"/>
        <pt x="924" y="936" on="1"/>
        <pt x="881" y="961" on="0"/>
        <pt x="821" y="961" on="1"/>
        <pt x="776" y="961" on="0"/>
        <pt x="715" y="910" on="0"/>
        <pt x="715" y="856" on="1"/>
        <pt x="715" y="821" on="0"/>
        <pt x="750" y="772" on="0"/>
        <pt x="776" y="760" on="1"/>
        <pt x="800" y="765" on="0"/>
        <pt x="952" y="786" on="0"/>
        <pt x="981" y="786" on="1"/>
        <pt x="981" y="686" on="1"/>
        <pt x="964" y="686" on="0"/>
        <pt x="818" y="671" on="0"/>
        <pt x="783" y="666" on="1"/>
        <pt x="606" y="641" on="0"/>
        <pt x="586" y="637" on="1"/>
      </contour>
    </TTGlyph>
    <TTGlyph name="uni0643.init" xMin="-20" yMin="0" xMax="1026" yMax="1667">
      <contour>
        <pt x="-10" y="0" on="1"/>
        <pt x="-20" y="0" on="0"/>
        <pt x="-20" y="10" on="1"/>
        <pt x="-20" y="152" on="1"/>
        <pt x="-20" y="160" on="0"/>
        <pt x="-10" y="160" on="1"/>
        <pt x="852" y="160" on="1"/>
        <pt x="852" y="537" on="1"/>
        <pt x="852" y="690" on="0"/>
        <pt x="668" y="834" on="0"/>
        <pt x="475" y="834" on="1"/>
        <pt x="127" y="834" on="1"/>
        <pt x="127" y="1001" on="1"/>
        <pt x="193" y="1139" on="0"/>
        <pt x="425" y="1406" on="0"/>
        <pt x="712" y="1615" on="0"/>
        <pt x="848" y="1667" on="1"/>
        <pt x="913" y="1511" on="1"/>
        <pt x="725" y="1437" on="0"/>
        <pt x="365" y="1136" on="0"/>
        <pt x="297" y="993" on="1"/>
        <pt x="475" y="993" on="1"/>
        <pt x="743" y="993" on="0"/>
        <pt x="1026" y="773" on="0"/>
        <pt x="1026" y="567" on="1"/>
        <pt x="1026" y="0" on="1"/>
      </contour>
    </TTGlyph>
    <TTGlyph name="uni0643.medi" xMin="-20" yMin="0" xMax="1303" yMax="1667">
      <contour>
        <pt x="-10" y="0" on="1"/>
        <pt x="-20" y="0" on="0"/>
        <pt x="-20" y="10" on="1"/>
        <pt x="-20" y="152" on="1"/>
        <pt x="-20" y="160" on="0"/>
        <pt x="-10" y="160" on="1"/>
        <pt x="852" y="160" on="1"/>
        <pt x="852" y="537" on="1"/>
        <pt x="852" y="690" on="0"/>
        <pt x="668" y="834" on="0"/>
        <pt x="475" y="834" on="1"/>
        <pt x="127" y="834" on="1"/>
        <pt x="127" y="1001" on="1"/>
        <pt x="193" y="1139" on="0"/>
        <pt x="425" y="1406" on="0"/>
        <pt x="712" y="1615" on="0"/>
        <pt x="848" y="1667" on="1"/>
        <pt x="913" y="1511" on="1"/>
        <pt x="725" y="1437" on="0"/>
        <pt x="365" y="1136" on="0"/>
        <pt x="297" y="993" on="1"/>
        <pt x="475" y="993" on="1"/>
        <pt x="743" y="993" on="0"/>
        <pt x="1026" y="773" on="0"/>
        <pt x="1026" y="567" on="1"/>
        <pt x="1026" y="160" on="1"/>
        <pt x="1292" y="160" on="1"/>
        <pt x="1303" y="160" on="0"/>
        <pt x="1303" y="152" on="1"/>
        <pt x="1303" y="10" on="1"/>
        <pt x="1303" y="0" on="0"/>
        <pt x="1292" y="0" on="1"/>
      </contour>
    </TTGlyph>
    <TTGlyph name="uni0644" xMin="133" yMin="-492" xMax="1202" yMax="1556">
      <contour>
        <pt x="545" y="-492" on="1"/>
        <pt x="355" y="-492" on="0"/>
        <pt x="133" y="-212" on="0"/>
        <pt x="133" y="33" on="1"/>
        <pt x="133" y="159" on="0"/>
        <pt x="177" y="418" on="0"/>
        <pt x="217" y="516" on="1"/>
        <pt x="387" y="516" on="1"/>
        <pt x="317" y="339" on="0"/>
        <pt x="317" y="33" on="1"/>
        <pt x="317" y="-142" on="0"/>
        <pt x="457" y="-332" on="0"/>
        <pt x="584" y="-332" on="1"/>
        <pt x="684" y="-332" on="1"/>
        <pt x="862" y="-332" on="0"/>
        <pt x="1028" y="-170" on="0"/>
        <pt x="1028" y="-6" on="1"/>
        <pt x="1028" y="1556" on="1"/>
        <pt x="1202" y="1556" on="1"/>
        <pt x="1202" y="8" on="1"/>
        <pt x="1202" y="-240" on="0"/>
        <pt x="956" y="-492" on="0"/>
        <pt x="692" y="-492" on="1"/>
      </contour>
    </TTGlyph>
    <TTGlyph name="uni0644.fina" xMin="133" yMin="-492" xMax="1438" yMax="1556">
      <contour>
        <pt x="1202" y="0" on="1"/>
        <pt x="1199" y="-243" on="0"/>
        <pt x="953" y="-492" on="0"/>
        <pt x="692" y="-492" on="1"/>
        <pt x="545" y="-492" on="1"/>
        <pt x="355" y="-492" on="0"/>
        <pt x="133" y="-212" on="0"/>
        <pt x="133" y="33" on="1"/>
        <pt x="133" y="159" on="0"/>
        <pt x="177" y="418" on="0"/>
        <pt x="217" y="516" on="1"/>
        <pt x="387" y="516" on="1"/>
        <pt x="317" y="339" on="0"/>
        <pt x="317" y="33" on="1"/>
        <pt x="317" y="-142" on="0"/>
        <pt x="457" y="-332" on="0"/>
        <pt x="584" y="-332" on="1"/>
        <pt x="684" y="-332" on="1"/>
        <pt x="862" y="-332" on="0"/>
        <pt x="1028" y="-170" on="0"/>
        <pt x="1028" y="-6" on="1"/>
        <pt x="1028" y="1556" on="1"/>
        <pt x="1202" y="1556" on="1"/>
        <pt x="1202" y="160" on="1"/>
        <pt x="1427" y="160" on="1"/>
        <pt x="1438" y="160" on="0"/>
        <pt x="1438" y="152" on="1"/>
        <pt x="1438" y="10" on="1"/>
        <pt x="1438" y="0" on="0"/>
        <pt x="1427" y="0" on="1"/>
      </contour>
    </TTGlyph>
    <TTGlyph name="uni0644.init" xMin="-20" yMin="0" xMax="442" yMax="1556">
      <contour>
        <pt x="-10" y="0" on="1"/>
        <pt x="-20" y="0" on="0"/>
        <pt x="-20" y="10" on="1"/>
        <pt x="-20" y="152" on="1"/>
        <pt x="-20" y="160" on="0"/>
        <pt x="-10" y="160" on="1"/>
        <pt x="260" y="160" on="1"/>
        <pt x="260" y="1556" on="1"/>
        <pt x="442" y="1556" on="1"/>
        <pt x="442" y="0" on="1"/>
      </contour>
    </TTGlyph>
    <TTGlyph name="uni0644.medi" xMin="-20" yMin="0" xMax="719" yMax="1556">
      <contour>
        <pt x="-10" y="0" on="1"/>
        <pt x="-20" y="0" on="0"/>
        <pt x="-20" y="10" on="1"/>
        <pt x="-20" y="152" on="1"/>
        <pt x="-20" y="160" on="0"/>
        <pt x="-10" y="160" on="1"/>
        <pt x="260" y="160" on="1"/>
        <pt x="260" y="1556" on="1"/>
        <pt x="442" y="1556" on="1"/>
        <pt x="442" y="160" on="1"/>
        <pt x="709" y="160" on="1"/>
        <pt x="719" y="160" on="0"/>
        <pt x="719" y="152" on="1"/>
        <pt x="719" y="10" on="1"/>
        <pt x="719" y="0" on="0"/>
        <pt x="709" y="0" on="1"/>
      </contour>
    </TTGlyph>
    <TTGlyph name="uni06440622.fina" xMin="45" yMin="0" xMax="1473" yMax="1647">
      <component glyphName="uni06440627.fina" x="0" y="0" flags="0x204"/>
      <component glyphName="uni0653" x="348" y="-122" flags="0x4"/>
    </TTGlyph>
    <TTGlyph name="uni06440622.isol" xMin="45" yMin="0" xMax="1196" yMax="1647">
      <component glyphName="uni06440627.isol" x="0" y="0" flags="0x204"/>
      <component glyphName="uni0653" x="348" y="-122" flags="0x4"/>
    </TTGlyph>
    <TTGlyph name="uni06440623.fina" xMin="92" yMin="0" xMax="1473" yMax="1875">
      <component glyphName="uni06440627.fina" x="0" y="0" flags="0x204"/>
      <component glyphName="uni0654" x="344" y="-81" flags="0x4"/>
    </TTGlyph>
    <TTGlyph name="uni06440623.isol" xMin="92" yMin="0" xMax="1196" yMax="1875">
      <component glyphName="uni06440627.isol" x="0" y="0" flags="0x204"/>
      <component glyphName="uni0654" x="344" y="-81" flags="0x4"/>
    </TTGlyph>
    <TTGlyph name="uni06440625.fina" xMin="92" yMin="-622" xMax="1473" yMax="1556">
      <component glyphName="uni06440627.fina" x="0" y="0" flags="0x204"/>
      <component glyphName="uni0655" x="676" y="-81" flags="0x4"/>
    </TTGlyph>
    <TTGlyph name="uni06440625.isol" xMin="92" yMin="-622" xMax="1196" yMax="1556">
      <component glyphName="uni06440627.isol" x="0" y="0" flags="0x204"/>
      <component glyphName="uni0655" x="676" y="-81" flags="0x4"/>
    </TTGlyph>
    <TTGlyph name="uni06440627.fina" xMin="92" yMin="0" xMax="1473" yMax="1556">
      <contour>
        <pt x="92" y="160" on="1"/>
        <pt x="551" y="160" on="1"/>
        <pt x="287" y="1280" on="1"/>
        <pt x="477" y="1280" on="1"/>
        <pt x="741" y="160" on="1"/>
        <pt x="1014" y="160" on="1"/>
        <pt x="1014" y="1556" on="1"/>
        <pt x="1196" y="1556" on="1"/>
        <pt x="1196" y="160" on="1"/>
        <pt x="1462" y="160" on="1"/>
        <pt x="1473" y="160" on="0"/>
        <pt x="1473" y="152" on="1"/>
        <pt x="1473" y="10" on="1"/>
        <pt x="1473" y="0" on="0"/>
        <pt x="1462" y="0" on="1"/>
        <pt x="92" y="0" on="1"/>
      </contour>
    </TTGlyph>
    <TTGlyph name="uni06440627.isol" xMin="92" yMin="0" xMax="1196" yMax="1556">
      <contour>
        <pt x="92" y="160" on="1"/>
        <pt x="551" y="160" on="1"/>
        <pt x="287" y="1280" on="1"/>
        <pt x="477" y="1280" on="1"/>
        <pt x="741" y="160" on="1"/>
        <pt x="797" y="160" on="1"/>
        <pt x="1014" y="160" on="0"/>
        <pt x="1014" y="397" on="1"/>
        <pt x="1014" y="1556" on="1"/>
        <pt x="1196" y="1556" on="1"/>
        <pt x="1196" y="373" on="1"/>
        <pt x="1196" y="203" on="0"/>
        <pt x="990" y="0" on="0"/>
        <pt x="817" y="0" on="1"/>
        <pt x="92" y="0" on="1"/>
      </contour>
    </TTGlyph>
    <TTGlyph name="uni06440671.fina" xMin="90" yMin="0" xMax="1473" yMax="1736">
      <component glyphName="uni06440627.fina" x="0" y="0" flags="0x204"/>
      <component glyphName="wasla" x="356" y="-144" flags="0x4"/>
    </TTGlyph>
    <TTGlyph name="uni06440671.isol" xMin="90" yMin="0" xMax="1196" yMax="1736">
      <component glyphName="uni06440627.isol" x="0" y="0" flags="0x204"/>
      <component glyphName="wasla" x="356" y="-144" flags="0x4"/>
    </TTGlyph>
    <TTGlyph name="uni06440672.fina" xMin="-31" yMin="0" xMax="1473" yMax="1875">
      <component glyphName="uni06440627.fina" x="0" y="0" flags="0x204"/>
      <component glyphName="wavyhamza_above" x="344" y="-81" flags="0x4"/>
    </TTGlyph>
    <TTGlyph name="uni06440672.isol" xMin="-31" yMin="0" xMax="1196" yMax="1875">
      <component glyphName="uni06440627.isol" x="0" y="0" flags="0x204"/>
      <component glyphName="wavyhamza_above" x="344" y="-81" flags="0x4"/>
    </TTGlyph>
    <TTGlyph name="uni06440673.fina" xMin="92" yMin="-618" xMax="1473" yMax="1556">
      <component glyphName="uni06440627.fina" x="0" y="0" flags="0x204"/>
      <component glyphName="wavyhamza_below" x="676" y="-81" flags="0x4"/>
    </TTGlyph>
    <TTGlyph name="uni06440673.isol" xMin="92" yMin="-618" xMax="1196" yMax="1556">
      <component glyphName="uni06440627.isol" x="0" y="0" flags="0x204"/>
      <component glyphName="wavyhamza_below" x="676" y="-81" flags="0x4"/>
    </TTGlyph>
    <TTGlyph name="uni06440675.fina" xMin="92" yMin="0" xMax="1473" yMax="1773">
      <component glyphName="uni06440627.fina" x="0" y="0" flags="0x204"/>
      <component glyphName="uni0654" x="739" y="-183" flags="0x4"/>
    </TTGlyph>
    <TTGlyph name="uni06440675.isol" xMin="92" yMin="0" xMax="1196" yMax="1773">
      <component glyphName="uni06440627.isol" x="0" y="0" flags="0x204"/>
      <component glyphName="uni0654" x="739" y="-183" flags="0x4"/>
    </TTGlyph>
    <TTGlyph name="uni0645" xMin="133" yMin="-655" xMax="1196" yMax="973">
      <contour>
        <pt x="451" y="0" on="1"/>
        <pt x="305" y="0" on="0"/>
        <pt x="305" y="-150" on="1"/>
        <pt x="305" y="-655" on="1"/>
        <pt x="133" y="-655" on="1"/>
        <pt x="133" y="-119" on="1"/>
        <pt x="133" y="-30" on="0"/>
        <pt x="199" y="94" on="0"/>
        <pt x="312" y="160" on="0"/>
        <pt x="383" y="160" on="1"/>
        <pt x="397" y="160" on="1"/>
        <pt x="322" y="355" on="0"/>
        <pt x="322" y="510" on="1"/>
        <pt x="322" y="692" on="0"/>
        <pt x="395" y="836" on="1"/>
        <pt x="471" y="899" on="0"/>
        <pt x="665" y="973" on="0"/>
        <pt x="770" y="973" on="1"/>
        <pt x="898" y="973" on="0"/>
        <pt x="1092" y="860" on="0"/>
        <pt x="1196" y="652" on="0"/>
        <pt x="1196" y="520" on="1"/>
        <pt x="1196" y="359" on="0"/>
        <pt x="1079" y="125" on="0"/>
        <pt x="866" y="0" on="0"/>
        <pt x="729" y="0" on="1"/>
      </contour>
      <contour>
        <pt x="506" y="545" on="1"/>
        <pt x="506" y="450" on="0"/>
        <pt x="539" y="267" on="0"/>
        <pt x="584" y="160" on="1"/>
        <pt x="729" y="160" on="1"/>
        <pt x="866" y="160" on="0"/>
        <pt x="1012" y="346" on="0"/>
        <pt x="1012" y="522" on="1"/>
        <pt x="1012" y="651" on="0"/>
        <pt x="871" y="815" on="0"/>
        <pt x="770" y="815" on="1"/>
        <pt x="641" y="815" on="0"/>
        <pt x="530" y="731" on="1"/>
        <pt x="513" y="688" on="0"/>
        <pt x="506" y="599" on="0"/>
      </contour>
    </TTGlyph>
    <TTGlyph name="uni0645.fina" xMin="133" yMin="-655" xMax="1415" yMax="973">
      <contour>
        <pt x="451" y="0" on="1"/>
        <pt x="305" y="0" on="0"/>
        <pt x="305" y="-150" on="1"/>
        <pt x="305" y="-655" on="1"/>
        <pt x="133" y="-655" on="1"/>
        <pt x="133" y="-119" on="1"/>
        <pt x="133" y="-30" on="0"/>
        <pt x="199" y="94" on="0"/>
        <pt x="312" y="160" on="0"/>
        <pt x="383" y="160" on="1"/>
        <pt x="397" y="160" on="1"/>
        <pt x="322" y="355" on="0"/>
        <pt x="322" y="510" on="1"/>
        <pt x="322" y="692" on="0"/>
        <pt x="395" y="836" on="1"/>
        <pt x="471" y="899" on="0"/>
        <pt x="665" y="973" on="0"/>
        <pt x="770" y="973" on="1"/>
        <pt x="898" y="973" on="0"/>
        <pt x="1092" y="860" on="0"/>
        <pt x="1196" y="652" on="0"/>
        <pt x="1196" y="520" on="1"/>
        <pt x="1196" y="389" on="0"/>
        <pt x="1153" y="279" on="1"/>
        <pt x="1198" y="210" on="0"/>
        <pt x="1308" y="160" on="0"/>
        <pt x="1395" y="160" on="1"/>
        <pt x="1405" y="160" on="1"/>
        <pt x="1415" y="160" on="0"/>
        <pt x="1415" y="152" on="1"/>
        <pt x="1415" y="10" on="1"/>
        <pt x="1415" y="0" on="0"/>
        <pt x="1405" y="0" on="1"/>
        <pt x="1395" y="0" on="1"/>
        <pt x="1286" y="0" on="0"/>
        <pt x="1132" y="60" on="0"/>
        <pt x="1061" y="133" on="1"/>
        <pt x="996" y="65" on="0"/>
        <pt x="823" y="0" on="0"/>
        <pt x="729" y="0" on="1"/>
      </contour>
      <contour>
        <pt x="506" y="545" on="1"/>
        <pt x="506" y="450" on="0"/>
        <pt x="539" y="267" on="0"/>
        <pt x="584" y="160" on="1"/>
        <pt x="729" y="160" on="1"/>
        <pt x="866" y="160" on="0"/>
        <pt x="1012" y="346" on="0"/>
        <pt x="1012" y="522" on="1"/>
        <pt x="1012" y="651" on="0"/>
        <pt x="871" y="815" on="0"/>
        <pt x="770" y="815" on="1"/>
        <pt x="641" y="815" on="0"/>
        <pt x="530" y="731" on="1"/>
        <pt x="513" y="688" on="0"/>
        <pt x="506" y="599" on="0"/>
      </contour>
    </TTGlyph>
    <TTGlyph name="uni0645.init" xMin="-20" yMin="0" xMax="1042" yMax="973">
      <contour>
        <pt x="-10" y="0" on="1"/>
        <pt x="-20" y="0" on="0"/>
        <pt x="-20" y="10" on="1"/>
        <pt x="-20" y="152" on="1"/>
        <pt x="-20" y="160" on="0"/>
        <pt x="-10" y="160" on="1"/>
        <pt x="244" y="160" on="1"/>
        <pt x="168" y="358" on="0"/>
        <pt x="168" y="510" on="1"/>
        <pt x="168" y="693" on="0"/>
        <pt x="242" y="836" on="1"/>
        <pt x="317" y="899" on="0"/>
        <pt x="511" y="973" on="0"/>
        <pt x="616" y="973" on="1"/>
        <pt x="744" y="973" on="0"/>
        <pt x="938" y="860" on="0"/>
        <pt x="1042" y="652" on="0"/>
        <pt x="1042" y="520" on="1"/>
        <pt x="1042" y="359" on="0"/>
        <pt x="925" y="125" on="0"/>
        <pt x="712" y="0" on="0"/>
        <pt x="575" y="0" on="1"/>
      </contour>
      <contour>
        <pt x="352" y="545" on="1"/>
        <pt x="352" y="450" on="0"/>
        <pt x="386" y="267" on="0"/>
        <pt x="430" y="160" on="1"/>
        <pt x="575" y="160" on="1"/>
        <pt x="712" y="160" on="0"/>
        <pt x="858" y="346" on="0"/>
        <pt x="858" y="522" on="1"/>
        <pt x="858" y="651" on="0"/>
        <pt x="717" y="815" on="0"/>
        <pt x="616" y="815" on="1"/>
        <pt x="551" y="815" on="0"/>
        <pt x="426" y="769" on="0"/>
        <pt x="377" y="731" on="1"/>
        <pt x="360" y="688" on="0"/>
        <pt x="352" y="599" on="0"/>
      </contour>
    </TTGlyph>
    <TTGlyph name="uni0645.medi" xMin="-20" yMin="0" xMax="1262" yMax="973">
      <contour>
        <pt x="-10" y="0" on="1"/>
        <pt x="-20" y="0" on="0"/>
        <pt x="-20" y="10" on="1"/>
        <pt x="-20" y="152" on="1"/>
        <pt x="-20" y="160" on="0"/>
        <pt x="-10" y="160" on="1"/>
        <pt x="244" y="160" on="1"/>
        <pt x="168" y="358" on="0"/>
        <pt x="168" y="510" on="1"/>
        <pt x="168" y="693" on="0"/>
        <pt x="242" y="836" on="1"/>
        <pt x="317" y="899" on="0"/>
        <pt x="511" y="973" on="0"/>
        <pt x="616" y="973" on="1"/>
        <pt x="744" y="973" on="0"/>
        <pt x="938" y="860" on="0"/>
        <pt x="1042" y="652" on="0"/>
        <pt x="1042" y="520" on="1"/>
        <pt x="1042" y="389" on="0"/>
        <pt x="999" y="279" on="1"/>
        <pt x="1043" y="212" on="0"/>
        <pt x="1152" y="160" on="0"/>
        <pt x="1241" y="160" on="1"/>
        <pt x="1251" y="160" on="1"/>
        <pt x="1262" y="160" on="0"/>
        <pt x="1262" y="152" on="1"/>
        <pt x="1262" y="10" on="1"/>
        <pt x="1262" y="0" on="0"/>
        <pt x="1251" y="0" on="1"/>
        <pt x="1241" y="0" on="1"/>
        <pt x="1132" y="0" on="0"/>
        <pt x="978" y="60" on="0"/>
        <pt x="907" y="133" on="1"/>
        <pt x="842" y="65" on="0"/>
        <pt x="669" y="0" on="0"/>
        <pt x="575" y="0" on="1"/>
      </contour>
      <contour>
        <pt x="352" y="545" on="1"/>
        <pt x="352" y="450" on="0"/>
        <pt x="386" y="267" on="0"/>
        <pt x="430" y="160" on="1"/>
        <pt x="575" y="160" on="1"/>
        <pt x="712" y="160" on="0"/>
        <pt x="858" y="346" on="0"/>
        <pt x="858" y="522" on="1"/>
        <pt x="858" y="651" on="0"/>
        <pt x="717" y="815" on="0"/>
        <pt x="616" y="815" on="1"/>
        <pt x="551" y="815" on="0"/>
        <pt x="426" y="769" on="0"/>
        <pt x="377" y="731" on="1"/>
        <pt x="360" y="688" on="0"/>
        <pt x="352" y="599" on="0"/>
      </contour>
    </TTGlyph>
    <TTGlyph name="uni0646" xMin="133" yMin="-492" xMax="1202" yMax="1240">
      <component glyphName="uni06BA" x="0" y="0" flags="0x204"/>
      <component glyphName="onedot.above" x="672" y="-194" flags="0x4"/>
    </TTGlyph>
    <TTGlyph name="uni0646.fina" xMin="133" yMin="-492" xMax="1438" yMax="1240">
      <component glyphName="uni06BA.fina" x="0" y="0" flags="0x204"/>
      <component glyphName="onedot.above" x="672" y="-194" flags="0x4"/>
    </TTGlyph>
    <TTGlyph name="uni0646.init" xMin="-20" yMin="0" xMax="465" yMax="1434">
      <component glyphName="uni066E.init" x="0" y="0" flags="0x204"/>
      <component glyphName="onedot.above" x="350" y="0" flags="0x4"/>
    </TTGlyph>
    <TTGlyph name="uni0646.medi" xMin="-20" yMin="0" xMax="719" yMax="1434">
      <component glyphName="uni066E.medi" x="0" y="0" flags="0x204"/>
      <component glyphName="onedot.above" x="344" y="0" flags="0x4"/>
    </TTGlyph>
    <TTGlyph name="uni0647" xMin="133" yMin="-20" xMax="1090" yMax="1014">
      <contour>
        <pt x="608" y="-20" on="1"/>
        <pt x="382" y="-20" on="0"/>
        <pt x="133" y="227" on="0"/>
        <pt x="133" y="455" on="1"/>
        <pt x="133" y="605" on="0"/>
        <pt x="258" y="865" on="0"/>
        <pt x="479" y="1014" on="0"/>
        <pt x="614" y="1014" on="1"/>
        <pt x="741" y="1014" on="0"/>
        <pt x="962" y="861" on="0"/>
        <pt x="1090" y="597" on="0"/>
        <pt x="1090" y="455" on="1"/>
        <pt x="1090" y="223" on="0"/>
        <pt x="847" y="-20" on="0"/>
      </contour>
      <contour>
        <pt x="612" y="137" on="1"/>
        <pt x="905" y="137" on="0"/>
        <pt x="905" y="453" on="1"/>
        <pt x="905" y="639" on="0"/>
        <pt x="749" y="856" on="0"/>
        <pt x="610" y="856" on="1"/>
        <pt x="485" y="856" on="0"/>
        <pt x="317" y="632" on="0"/>
        <pt x="317" y="453" on="1"/>
        <pt x="317" y="137" on="0"/>
      </contour>
    </TTGlyph>
    <TTGlyph name="uni0647.fina" xMin="133" yMin="0" xMax="1247" yMax="1122">
      <contour>
        <pt x="653" y="0" on="1"/>
        <pt x="407" y="0" on="0"/>
        <pt x="133" y="249" on="0"/>
        <pt x="133" y="473" on="1"/>
        <pt x="133" y="715" on="0"/>
        <pt x="437" y="993" on="0"/>
        <pt x="694" y="993" on="1"/>
        <pt x="829" y="993" on="1"/>
        <pt x="829" y="1122" on="1"/>
        <pt x="1004" y="1122" on="1"/>
        <pt x="1004" y="160" on="1"/>
        <pt x="1237" y="160" on="1"/>
        <pt x="1247" y="160" on="0"/>
        <pt x="1247" y="152" on="1"/>
        <pt x="1247" y="10" on="1"/>
        <pt x="1247" y="0" on="0"/>
        <pt x="1237" y="0" on="1"/>
      </contour>
      <contour>
        <pt x="829" y="160" on="1"/>
        <pt x="829" y="834" on="1"/>
        <pt x="700" y="834" on="1"/>
        <pt x="516" y="834" on="0"/>
        <pt x="315" y="645" on="0"/>
        <pt x="315" y="475" on="1"/>
        <pt x="315" y="322" on="0"/>
        <pt x="489" y="160" on="0"/>
        <pt x="649" y="160" on="1"/>
      </contour>
    </TTGlyph>
    <TTGlyph name="uni0647.init" xMin="-20" yMin="0" xMax="1415" yMax="1266">
      <contour>
        <pt x="799" y="160" on="1"/>
        <pt x="799" y="399" on="1"/>
        <pt x="799" y="550" on="0"/>
        <pt x="682" y="690" on="0"/>
        <pt x="567" y="690" on="1"/>
        <pt x="463" y="690" on="0"/>
        <pt x="346" y="563" on="0"/>
        <pt x="346" y="446" on="1"/>
        <pt x="346" y="315" on="0"/>
        <pt x="504" y="160" on="0"/>
        <pt x="631" y="160" on="1"/>
      </contour>
      <contour>
        <pt x="-10" y="0" on="1"/>
        <pt x="-20" y="0" on="0"/>
        <pt x="-20" y="10" on="1"/>
        <pt x="-20" y="152" on="1"/>
        <pt x="-20" y="160" on="0"/>
        <pt x="-10" y="160" on="1"/>
        <pt x="307" y="160" on="1"/>
        <pt x="242" y="201" on="0"/>
        <pt x="164" y="357" on="0"/>
        <pt x="164" y="453" on="1"/>
        <pt x="164" y="578" on="0"/>
        <pt x="274" y="767" on="0"/>
        <pt x="463" y="870" on="0"/>
        <pt x="575" y="870" on="1"/>
        <pt x="973" y="870" on="0"/>
        <pt x="973" y="430" on="1"/>
        <pt x="973" y="160" on="1"/>
        <pt x="1241" y="160" on="1"/>
        <pt x="1241" y="561" on="1"/>
        <pt x="1241" y="840" on="0"/>
        <pt x="989" y="1104" on="0"/>
        <pt x="719" y="1104" on="1"/>
        <pt x="520" y="1104" on="0"/>
        <pt x="340" y="1044" on="1"/>
        <pt x="293" y="1202" on="1"/>
        <pt x="485" y="1266" on="0"/>
        <pt x="719" y="1266" on="1"/>
        <pt x="1053" y="1266" on="0"/>
        <pt x="1415" y="905" on="0"/>
        <pt x="1415" y="578" on="1"/>
        <pt x="1415" y="0" on="1"/>
      </contour>
    </TTGlyph>
    <TTGlyph name="uni0647.medi" xMin="-20" yMin="0" xMax="1692" yMax="1266">
      <contour>
        <pt x="-10" y="0" on="1"/>
        <pt x="-20" y="0" on="0"/>
        <pt x="-20" y="10" on="1"/>
        <pt x="-20" y="152" on="1"/>
        <pt x="-20" y="160" on="0"/>
        <pt x="-10" y="160" on="1"/>
        <pt x="307" y="160" on="1"/>
        <pt x="242" y="201" on="0"/>
        <pt x="164" y="357" on="0"/>
        <pt x="164" y="453" on="1"/>
        <pt x="164" y="578" on="0"/>
        <pt x="274" y="767" on="0"/>
        <pt x="463" y="870" on="0"/>
        <pt x="575" y="870" on="1"/>
        <pt x="973" y="870" on="0"/>
        <pt x="973" y="430" on="1"/>
        <pt x="973" y="160" on="1"/>
        <pt x="1241" y="160" on="1"/>
        <pt x="1241" y="561" on="1"/>
        <pt x="1241" y="840" on="0"/>
        <pt x="989" y="1104" on="0"/>
        <pt x="719" y="1104" on="1"/>
        <pt x="520" y="1104" on="0"/>
        <pt x="340" y="1044" on="1"/>
        <pt x="293" y="1202" on="1"/>
        <pt x="485" y="1266" on="0"/>
        <pt x="719" y="1266" on="1"/>
        <pt x="1053" y="1266" on="0"/>
        <pt x="1415" y="905" on="0"/>
        <pt x="1415" y="578" on="1"/>
        <pt x="1415" y="160" on="1"/>
        <pt x="1681" y="160" on="1"/>
        <pt x="1692" y="160" on="0"/>
        <pt x="1692" y="152" on="1"/>
        <pt x="1692" y="10" on="1"/>
        <pt x="1692" y="0" on="0"/>
        <pt x="1681" y="0" on="1"/>
      </contour>
      <contour>
        <pt x="799" y="160" on="1"/>
        <pt x="799" y="399" on="1"/>
        <pt x="799" y="550" on="0"/>
        <pt x="682" y="690" on="0"/>
        <pt x="567" y="690" on="1"/>
        <pt x="463" y="690" on="0"/>
        <pt x="346" y="563" on="0"/>
        <pt x="346" y="446" on="1"/>
        <pt x="346" y="315" on="0"/>
        <pt x="504" y="160" on="0"/>
        <pt x="631" y="160" on="1"/>
      </contour>
    </TTGlyph>
    <TTGlyph name="uni0648" xMin="133" yMin="-492" xMax="975" yMax="993">
      <contour>
        <pt x="502" y="-492" on="1"/>
        <pt x="293" y="-492" on="0"/>
        <pt x="133" y="-387" on="1"/>
        <pt x="215" y="-250" on="1"/>
        <pt x="281" y="-285" on="0"/>
        <pt x="421" y="-332" on="0"/>
        <pt x="506" y="-332" on="1"/>
        <pt x="645" y="-332" on="0"/>
        <pt x="803" y="-183" on="0"/>
        <pt x="803" y="-59" on="1"/>
        <pt x="803" y="0" on="1"/>
        <pt x="602" y="0" on="1"/>
        <pt x="384" y="0" on="0"/>
        <pt x="145" y="240" on="0"/>
        <pt x="145" y="467" on="1"/>
        <pt x="145" y="708" on="0"/>
        <pt x="451" y="993" on="0"/>
        <pt x="707" y="993" on="1"/>
        <pt x="975" y="993" on="1"/>
        <pt x="975" y="-49" on="1"/>
        <pt x="975" y="-258" on="0"/>
        <pt x="728" y="-492" on="0"/>
      </contour>
      <contour>
        <pt x="801" y="160" on="1"/>
        <pt x="801" y="834" on="1"/>
        <pt x="713" y="834" on="1"/>
        <pt x="531" y="834" on="0"/>
        <pt x="328" y="642" on="0"/>
        <pt x="328" y="469" on="1"/>
        <pt x="328" y="309" on="0"/>
        <pt x="467" y="160" on="0"/>
        <pt x="608" y="160" on="1"/>
      </contour>
    </TTGlyph>
    <TTGlyph name="uni0648.fina" xMin="133" yMin="-492" xMax="1153" yMax="993">
      <contour>
        <pt x="801" y="160" on="1"/>
        <pt x="801" y="834" on="1"/>
        <pt x="713" y="834" on="1"/>
        <pt x="531" y="834" on="0"/>
        <pt x="328" y="642" on="0"/>
        <pt x="328" y="469" on="1"/>
        <pt x="328" y="309" on="0"/>
        <pt x="467" y="160" on="0"/>
        <pt x="608" y="160" on="1"/>
      </contour>
      <contour>
        <pt x="975" y="-49" on="1"/>
        <pt x="975" y="-258" on="0"/>
        <pt x="728" y="-492" on="0"/>
        <pt x="502" y="-492" on="1"/>
        <pt x="293" y="-492" on="0"/>
        <pt x="133" y="-387" on="1"/>
        <pt x="215" y="-250" on="1"/>
        <pt x="281" y="-285" on="0"/>
        <pt x="421" y="-332" on="0"/>
        <pt x="506" y="-332" on="1"/>
        <pt x="645" y="-332" on="0"/>
        <pt x="803" y="-183" on="0"/>
        <pt x="803" y="-59" on="1"/>
        <pt x="803" y="0" on="1"/>
        <pt x="602" y="0" on="1"/>
        <pt x="384" y="0" on="0"/>
        <pt x="145" y="240" on="0"/>
        <pt x="145" y="467" on="1"/>
        <pt x="145" y="708" on="0"/>
        <pt x="451" y="993" on="0"/>
        <pt x="707" y="993" on="1"/>
        <pt x="975" y="993" on="1"/>
        <pt x="975" y="160" on="1"/>
        <pt x="1143" y="160" on="1"/>
        <pt x="1153" y="160" on="0"/>
        <pt x="1153" y="152" on="1"/>
        <pt x="1153" y="10" on="1"/>
        <pt x="1153" y="0" on="0"/>
        <pt x="1143" y="0" on="1"/>
        <pt x="975" y="0" on="1"/>
      </contour>
    </TTGlyph>
    <TTGlyph name="uni0649" xMin="133" yMin="-492" xMax="1647" yMax="993">
      <contour>
        <pt x="545" y="-492" on="1"/>
        <pt x="353" y="-492" on="0"/>
        <pt x="133" y="-226" on="0"/>
        <pt x="133" y="2" on="1"/>
        <pt x="133" y="109" on="0"/>
        <pt x="168" y="281" on="0"/>
        <pt x="205" y="371" on="1"/>
        <pt x="375" y="371" on="1"/>
        <pt x="352" y="314" on="0"/>
        <pt x="327" y="209" on="0"/>
        <pt x="317" y="111" on="0"/>
        <pt x="317" y="14" on="1"/>
        <pt x="317" y="-152" on="0"/>
        <pt x="455" y="-332" on="0"/>
        <pt x="584" y="-332" on="1"/>
        <pt x="985" y="-332" on="1"/>
        <pt x="1142" y="-332" on="0"/>
        <pt x="1325" y="-218" on="0"/>
        <pt x="1325" y="-123" on="1"/>
        <pt x="1325" y="-85" on="0"/>
        <pt x="1273" y="-13" on="0"/>
        <pt x="1185" y="57" on="0"/>
        <pt x="1079" y="121" on="1"/>
        <pt x="956" y="194" on="0"/>
        <pt x="858" y="279" on="0"/>
        <pt x="807" y="370" on="0"/>
        <pt x="807" y="424" on="1"/>
        <pt x="807" y="546" on="0"/>
        <pt x="988" y="817" on="0"/>
        <pt x="1256" y="993" on="0"/>
        <pt x="1382" y="993" on="1"/>
        <pt x="1431" y="993" on="0"/>
        <pt x="1608" y="937" on="0"/>
        <pt x="1647" y="911" on="1"/>
        <pt x="1573" y="774" on="1"/>
        <pt x="1543" y="789" on="0"/>
        <pt x="1432" y="809" on="0"/>
        <pt x="1389" y="809" on="1"/>
        <pt x="1320" y="809" on="0"/>
        <pt x="1137" y="697" on="0"/>
        <pt x="1010" y="533" on="0"/>
        <pt x="1010" y="459" on="1"/>
        <pt x="1010" y="390" on="0"/>
        <pt x="1163" y="297" on="1"/>
        <pt x="1314" y="205" on="0"/>
        <pt x="1441" y="85" on="0"/>
        <pt x="1511" y="-54" on="0"/>
        <pt x="1511" y="-127" on="1"/>
        <pt x="1511" y="-298" on="0"/>
        <pt x="1237" y="-492" on="0"/>
        <pt x="985" y="-492" on="1"/>
      </contour>
    </TTGlyph>
    <TTGlyph name="uni0649.fina" xMin="133" yMin="-492" xMax="1995" yMax="727">
      <contour>
        <pt x="545" y="-492" on="1"/>
        <pt x="353" y="-492" on="0"/>
        <pt x="133" y="-226" on="0"/>
        <pt x="133" y="2" on="1"/>
        <pt x="133" y="109" on="0"/>
        <pt x="168" y="281" on="0"/>
        <pt x="205" y="371" on="1"/>
        <pt x="375" y="371" on="1"/>
        <pt x="352" y="314" on="0"/>
        <pt x="327" y="209" on="0"/>
        <pt x="317" y="111" on="0"/>
        <pt x="317" y="14" on="1"/>
        <pt x="317" y="-152" on="0"/>
        <pt x="455" y="-332" on="0"/>
        <pt x="584" y="-332" on="1"/>
        <pt x="965" y="-332" on="1"/>
        <pt x="1111" y="-332" on="0"/>
        <pt x="1303" y="-223" on="0"/>
        <pt x="1303" y="-147" on="1"/>
        <pt x="1303" y="-105" on="0"/>
        <pt x="1227" y="-45" on="0"/>
        <pt x="1150" y="-23" on="1"/>
        <pt x="995" y="21" on="0"/>
        <pt x="880" y="87" on="0"/>
        <pt x="819" y="185" on="0"/>
        <pt x="819" y="252" on="1"/>
        <pt x="819" y="370" on="0"/>
        <pt x="960" y="590" on="0"/>
        <pt x="1184" y="727" on="0"/>
        <pt x="1296" y="727" on="1"/>
        <pt x="1365" y="727" on="0"/>
        <pt x="1472" y="677" on="0"/>
        <pt x="1566" y="582" on="0"/>
        <pt x="1636" y="472" on="1"/>
        <pt x="1724" y="330" on="0"/>
        <pt x="1809" y="232" on="0"/>
        <pt x="1869" y="185" on="0"/>
        <pt x="1935" y="160" on="0"/>
        <pt x="1974" y="160" on="1"/>
        <pt x="1985" y="160" on="1"/>
        <pt x="1995" y="160" on="0"/>
        <pt x="1995" y="152" on="1"/>
        <pt x="1995" y="10" on="1"/>
        <pt x="1995" y="0" on="0"/>
        <pt x="1985" y="0" on="1"/>
        <pt x="1974" y="0" on="1"/>
        <pt x="1888" y="0" on="0"/>
        <pt x="1729" y="77" on="0"/>
        <pt x="1645" y="166" on="1"/>
        <pt x="1621" y="191" on="0"/>
        <pt x="1540" y="307" on="1"/>
        <pt x="1441" y="447" on="0"/>
        <pt x="1325" y="543" on="0"/>
        <pt x="1274" y="543" on="1"/>
        <pt x="1218" y="543" on="0"/>
        <pt x="1090" y="457" on="0"/>
        <pt x="1004" y="328" on="0"/>
        <pt x="1004" y="276" on="1"/>
        <pt x="1004" y="242" on="0"/>
        <pt x="1077" y="188" on="0"/>
        <pt x="1158" y="164" on="1"/>
        <pt x="1305" y="121" on="0"/>
        <pt x="1428" y="57" on="0"/>
        <pt x="1491" y="-30" on="0"/>
        <pt x="1491" y="-86" on="1"/>
        <pt x="1491" y="-492" on="0"/>
        <pt x="965" y="-492" on="1"/>
      </contour>
    </TTGlyph>
    <TTGlyph name="uni0649.init" xMin="-20" yMin="0" xMax="442" yMax="993">
      <component glyphName="uni066E.init" x="0" y="0" flags="0x204"/>
    </TTGlyph>
    <TTGlyph name="uni0649.medi" xMin="-20" yMin="0" xMax="719" yMax="993">
      <component glyphName="uni066E.medi" x="0" y="0" flags="0x204"/>
    </TTGlyph>
    <TTGlyph name="uni064A" xMin="133" yMin="-901" xMax="1647" yMax="993">
      <component glyphName="uni0649" x="0" y="0" flags="0x204"/>
      <component glyphName="twodots.below" x="788" y="-491" flags="0x4"/>
    </TTGlyph>
    <TTGlyph name="uni064A.fina" xMin="133" yMin="-901" xMax="1995" yMax="727">
      <component glyphName="uni0649.fina" x="0" y="0" flags="0x204"/>
      <component glyphName="twodots.below" x="788" y="-491" flags="0x4"/>
    </TTGlyph>
    <TTGlyph name="uni064A.init" xMin="-20" yMin="-410" xMax="592" yMax="993">
      <component glyphName="beh_dotless_alt.init" x="0" y="0" flags="0x204"/>
      <component glyphName="twodots.below" x="303" y="0" flags="0x4"/>
    </TTGlyph>
    <TTGlyph name="uni064A.medi" xMin="-20" yMin="-410" xMax="821" yMax="993">
      <component glyphName="beh_dotless_alt.medi" x="0" y="0" flags="0x204"/>
      <component glyphName="twodots.below" x="422" y="0" flags="0x4"/>
    </TTGlyph>
    <TTGlyph name="uni064B" xMin="-240" yMin="1589" xMax="240" yMax="2111">
      <contour>
        <pt x="-240" y="1702" on="1"/>
        <pt x="240" y="1880" on="1"/>
        <pt x="240" y="1769" on="1"/>
        <pt x="-240" y="1589" on="1"/>
      </contour>
      <contour>
        <pt x="-240" y="1933" on="1"/>
        <pt x="240" y="2111" on="1"/>
        <pt x="240" y="2001" on="1"/>
        <pt x="-240" y="1821" on="1"/>
      </contour>
    </TTGlyph>
    <TTGlyph name="uni064C" xMin="-367" yMin="1597" xMax="352" yMax="2058">
      <contour>
        <pt x="10" y="1597" on="1"/>
        <pt x="-105" y="1597" on="0"/>
        <pt x="-186" y="1668" on="1"/>
        <pt x="-217" y="1694" on="1"/>
        <pt x="-301" y="1626" on="1"/>
        <pt x="-367" y="1704" on="1"/>
        <pt x="-207" y="1849" on="1"/>
        <pt x="-154" y="1778" on="0"/>
        <pt x="-44" y="1700" on="0"/>
        <pt x="2" y="1700" on="1"/>
        <pt x="43" y="1700" on="0"/>
        <pt x="59" y="1710" on="1"/>
        <pt x="30" y="1747" on="0"/>
        <pt x="-8" y="1843" on="0"/>
        <pt x="-8" y="1888" on="1"/>
        <pt x="-8" y="1966" on="0"/>
        <pt x="94" y="2058" on="0"/>
        <pt x="176" y="2058" on="1"/>
        <pt x="256" y="2058" on="0"/>
        <pt x="352" y="1968" on="0"/>
        <pt x="352" y="1896" on="1"/>
        <pt x="352" y="1814" on="0"/>
        <pt x="258" y="1676" on="0"/>
        <pt x="100" y="1597" on="0"/>
      </contour>
      <contour>
        <pt x="154" y="1743" on="1"/>
        <pt x="246" y="1794" on="0"/>
        <pt x="246" y="1888" on="1"/>
        <pt x="246" y="1920" on="0"/>
        <pt x="204" y="1960" on="0"/>
        <pt x="172" y="1960" on="1"/>
        <pt x="141" y="1960" on="0"/>
        <pt x="96" y="1920" on="0"/>
        <pt x="96" y="1878" on="1"/>
        <pt x="96" y="1818" on="0"/>
      </contour>
    </TTGlyph>
    <TTGlyph name="uni064D" xMin="-240" yMin="-793" xMax="240" yMax="-270">
      <contour>
        <pt x="-240" y="-680" on="1"/>
        <pt x="240" y="-502" on="1"/>
        <pt x="240" y="-612" on="1"/>
        <pt x="-240" y="-793" on="1"/>
      </contour>
      <contour>
        <pt x="-240" y="-449" on="1"/>
        <pt x="240" y="-270" on="1"/>
        <pt x="240" y="-381" on="1"/>
        <pt x="-240" y="-561" on="1"/>
      </contour>
    </TTGlyph>
    <TTGlyph name="uni064E" xMin="-240" yMin="1589" xMax="240" yMax="1880">
      <contour>
        <pt x="-240" y="1702" on="1"/>
        <pt x="240" y="1880" on="1"/>
        <pt x="240" y="1769" on="1"/>
        <pt x="-240" y="1589" on="1"/>
      </contour>
    </TTGlyph>
    <TTGlyph name="uni064F" xMin="-301" yMin="1597" xMax="301" yMax="2058">
      <contour>
        <pt x="-92" y="1597" on="1"/>
        <pt x="-206" y="1597" on="0"/>
        <pt x="-301" y="1665" on="1"/>
        <pt x="-242" y="1751" on="1"/>
        <pt x="-166" y="1700" on="0"/>
        <pt x="-96" y="1700" on="1"/>
        <pt x="-36" y="1700" on="0"/>
        <pt x="6" y="1714" on="1"/>
        <pt x="-59" y="1797" on="0"/>
        <pt x="-59" y="1888" on="1"/>
        <pt x="-59" y="1966" on="0"/>
        <pt x="43" y="2058" on="0"/>
        <pt x="125" y="2058" on="1"/>
        <pt x="207" y="2058" on="0"/>
        <pt x="301" y="1965" on="0"/>
        <pt x="301" y="1896" on="1"/>
        <pt x="301" y="1823" on="0"/>
        <pt x="192" y="1682" on="0"/>
        <pt x="8" y="1597" on="0"/>
      </contour>
      <contour>
        <pt x="96" y="1749" on="1"/>
        <pt x="150" y="1778" on="0"/>
        <pt x="195" y="1853" on="0"/>
        <pt x="195" y="1888" on="1"/>
        <pt x="195" y="1920" on="0"/>
        <pt x="153" y="1960" on="0"/>
        <pt x="121" y="1960" on="1"/>
        <pt x="90" y="1960" on="0"/>
        <pt x="45" y="1920" on="0"/>
        <pt x="45" y="1878" on="1"/>
        <pt x="45" y="1815" on="0"/>
      </contour>
    </TTGlyph>
    <TTGlyph name="uni0650" xMin="-240" yMin="-561" xMax="240" yMax="-270">
      <contour>
        <pt x="-240" y="-449" on="1"/>
        <pt x="240" y="-270" on="1"/>
        <pt x="240" y="-381" on="1"/>
        <pt x="-240" y="-561" on="1"/>
      </contour>
    </TTGlyph>
    <TTGlyph name="uni0651" xMin="-326" yMin="1651" xMax="328" yMax="2060">
      <contour>
        <pt x="-158" y="1651" on="1"/>
        <pt x="-239" y="1651" on="0"/>
        <pt x="-326" y="1752" on="0"/>
        <pt x="-326" y="1849" on="1"/>
        <pt x="-326" y="1978" on="1"/>
        <pt x="-219" y="1978" on="1"/>
        <pt x="-219" y="1868" on="1"/>
        <pt x="-219" y="1806" on="0"/>
        <pt x="-183" y="1755" on="0"/>
        <pt x="-137" y="1755" on="1"/>
        <pt x="-47" y="1755" on="0"/>
        <pt x="-47" y="1849" on="1"/>
        <pt x="-47" y="2030" on="1"/>
        <pt x="49" y="2030" on="1"/>
        <pt x="49" y="1890" on="1"/>
        <pt x="49" y="1836" on="0"/>
        <pt x="87" y="1796" on="0"/>
        <pt x="127" y="1796" on="1"/>
        <pt x="182" y="1796" on="0"/>
        <pt x="221" y="1849" on="0"/>
        <pt x="221" y="1909" on="1"/>
        <pt x="221" y="2060" on="1"/>
        <pt x="328" y="2060" on="1"/>
        <pt x="328" y="1890" on="1"/>
        <pt x="328" y="1794" on="0"/>
        <pt x="239" y="1692" on="0"/>
        <pt x="152" y="1692" on="1"/>
        <pt x="56" y="1692" on="0"/>
        <pt x="8" y="1753" on="1"/>
        <pt x="-41" y="1651" on="0"/>
      </contour>
    </TTGlyph>
    <TTGlyph name="uni0651064B" xMin="-368" yMin="1651" xMax="328" yMax="2592">
      <component glyphName="uni0651" x="0" y="0" flags="0x204"/>
      <component glyphName="uni064B" x="-128" y="481" flags="0x4"/>
    </TTGlyph>
    <TTGlyph name="uni0651064C" xMin="-367" yMin="1651" xMax="352" yMax="2597">
      <component glyphName="uni0651" x="0" y="0" flags="0x204"/>
      <component glyphName="uni064C" x="0" y="539" flags="0x4"/>
    </TTGlyph>
    <TTGlyph name="uni0651064D" xMin="-326" yMin="1153" xMax="363" yMax="2060">
      <component glyphName="uni0651" x="0" y="0" flags="0x204"/>
      <component glyphName="uni064D" x="123" y="1946" flags="0x4"/>
    </TTGlyph>
    <TTGlyph name="uni0651064E" xMin="-333" yMin="1651" xMax="328" yMax="2392">
      <component glyphName="uni0651" x="0" y="0" flags="0x204"/>
      <component glyphName="uni064E" x="-93" y="512" flags="0x4"/>
    </TTGlyph>
    <TTGlyph name="uni0651064F" xMin="-326" yMin="1651" xMax="328" yMax="2605">
      <component glyphName="uni0651" x="0" y="0" flags="0x204"/>
      <component glyphName="uni064F" x="0" y="547" flags="0x4"/>
    </TTGlyph>
    <TTGlyph name="uni06510650" xMin="-326" yMin="1342" xMax="353" yMax="2060">
      <component glyphName="uni0651" x="0" y="0" flags="0x204"/>
      <component glyphName="uni0650" x="113" y="1903" flags="0x4"/>
    </TTGlyph>
    <TTGlyph name="uni0652" xMin="-225" yMin="1671" xMax="227" yMax="2101">
      <contour>
        <pt x="-2" y="1671" on="1"/>
        <pt x="-104" y="1671" on="0"/>
        <pt x="-225" y="1786" on="0"/>
        <pt x="-225" y="1886" on="1"/>
        <pt x="-225" y="1987" on="0"/>
        <pt x="-103" y="2101" on="0"/>
        <pt x="-2" y="2101" on="1"/>
        <pt x="101" y="2101" on="0"/>
        <pt x="227" y="1984" on="0"/>
        <pt x="227" y="1888" on="1"/>
        <pt x="227" y="1789" on="0"/>
        <pt x="101" y="1671" on="0"/>
      </contour>
      <contour>
        <pt x="-2" y="1774" on="1"/>
        <pt x="47" y="1774" on="0"/>
        <pt x="111" y="1832" on="0"/>
        <pt x="111" y="1886" on="1"/>
        <pt x="111" y="1940" on="0"/>
        <pt x="47" y="1999" on="0"/>
        <pt x="-2" y="1999" on="1"/>
        <pt x="-52" y="1999" on="0"/>
        <pt x="-115" y="1940" on="0"/>
        <pt x="-115" y="1886" on="1"/>
        <pt x="-115" y="1774" on="0"/>
      </contour>
    </TTGlyph>
    <TTGlyph name="uni0653" xMin="-303" yMin="1556" xMax="342" yMax="1769">
      <contour>
        <pt x="-303" y="1556" on="1"/>
        <pt x="-292" y="1654" on="0"/>
        <pt x="-200" y="1767" on="0"/>
        <pt x="-115" y="1767" on="1"/>
        <pt x="-78" y="1767" on="0"/>
        <pt x="-4" y="1739" on="0"/>
        <pt x="65" y="1705" on="0"/>
        <pt x="128" y="1677" on="0"/>
        <pt x="154" y="1677" on="1"/>
        <pt x="195" y="1677" on="0"/>
        <pt x="236" y="1720" on="0"/>
        <pt x="250" y="1769" on="1"/>
        <pt x="342" y="1769" on="1"/>
        <pt x="331" y="1672" on="0"/>
        <pt x="239" y="1559" on="0"/>
        <pt x="154" y="1559" on="1"/>
        <pt x="117" y="1559" on="0"/>
        <pt x="45" y="1587" on="0"/>
        <pt x="-23" y="1621" on="0"/>
        <pt x="-87" y="1649" on="0"/>
        <pt x="-115" y="1649" on="1"/>
        <pt x="-157" y="1649" on="0"/>
        <pt x="-197" y="1606" on="0"/>
        <pt x="-211" y="1556" on="1"/>
      </contour>
    </TTGlyph>
    <TTGlyph name="uni0654" xMin="-203" yMin="1534" xMax="193" yMax="1956">
      <contour>
        <pt x="-203" y="1628" on="1"/>
        <pt x="-106" y="1642" on="1"/>
        <pt x="-178" y="1689" on="0"/>
        <pt x="-178" y="1772" on="1"/>
        <pt x="-178" y="1860" on="0"/>
        <pt x="-63" y="1956" on="0"/>
        <pt x="31" y="1956" on="1"/>
        <pt x="111" y="1956" on="0"/>
        <pt x="166" y="1925" on="1"/>
        <pt x="135" y="1833" on="1"/>
        <pt x="94" y="1858" on="0"/>
        <pt x="33" y="1858" on="1"/>
        <pt x="-12" y="1858" on="0"/>
        <pt x="-74" y="1807" on="0"/>
        <pt x="-74" y="1753" on="1"/>
        <pt x="-74" y="1718" on="0"/>
        <pt x="-38" y="1669" on="0"/>
        <pt x="-12" y="1657" on="1"/>
        <pt x="8" y="1662" on="0"/>
        <pt x="164" y="1683" on="0"/>
        <pt x="193" y="1683" on="1"/>
        <pt x="193" y="1583" on="1"/>
        <pt x="177" y="1583" on="0"/>
        <pt x="64" y="1572" on="0"/>
        <pt x="-88" y="1552" on="1"/>
        <pt x="-203" y="1534" on="1"/>
      </contour>
    </TTGlyph>
    <TTGlyph name="uni0654064B" xMin="-240" yMin="1534" xMax="240" yMax="2500">
      <component glyphName="uni064B" x="0" y="389" flags="0x4"/>
      <component glyphName="uni0654" x="0" y="0" flags="0x4"/>
    </TTGlyph>
    <TTGlyph name="uni0654064C" xMin="-367" yMin="1534" xMax="352" yMax="2496">
      <component glyphName="uni064C" x="0" y="438" flags="0x4"/>
      <component glyphName="uni0654" x="0" y="0" flags="0x4"/>
    </TTGlyph>
    <TTGlyph name="uni0654064E" xMin="-240" yMin="1534" xMax="240" yMax="2261">
      <component glyphName="uni064E" x="0" y="381" flags="0x4"/>
      <component glyphName="uni0654" x="0" y="0" flags="0x4"/>
    </TTGlyph>
    <TTGlyph name="uni0654064F" xMin="-301" yMin="1534" xMax="301" yMax="2513">
      <component glyphName="uni064F" x="0" y="455" flags="0x4"/>
      <component glyphName="uni0654" x="0" y="0" flags="0x4"/>
    </TTGlyph>
    <TTGlyph name="uni06540652" xMin="-225" yMin="1534" xMax="227" yMax="2486">
      <component glyphName="uni0652" x="0" y="385" flags="0x4"/>
      <component glyphName="uni0654" x="0" y="0" flags="0x4"/>
    </TTGlyph>
    <TTGlyph name="uni0655" xMin="-203" yMin="-541" xMax="193" yMax="-119">
      <contour>
        <pt x="-203" y="-446" on="1"/>
        <pt x="-106" y="-432" on="1"/>
        <pt x="-135" y="-414" on="0"/>
        <pt x="-178" y="-348" on="0"/>
        <pt x="-178" y="-303" on="1"/>
        <pt x="-178" y="-217" on="0"/>
        <pt x="-67" y="-119" on="0"/>
        <pt x="31" y="-119" on="1"/>
        <pt x="111" y="-119" on="0"/>
        <pt x="166" y="-150" on="1"/>
        <pt x="135" y="-242" on="1"/>
        <pt x="94" y="-217" on="0"/>
        <pt x="33" y="-217" on="1"/>
        <pt x="-12" y="-217" on="0"/>
        <pt x="-74" y="-268" on="0"/>
        <pt x="-74" y="-322" on="1"/>
        <pt x="-74" y="-387" on="0"/>
        <pt x="-12" y="-418" on="1"/>
        <pt x="8" y="-413" on="0"/>
        <pt x="172" y="-391" on="0"/>
        <pt x="193" y="-391" on="1"/>
        <pt x="193" y="-492" on="1"/>
        <pt x="147" y="-492" on="0"/>
        <pt x="-150" y="-530" on="0"/>
        <pt x="-203" y="-541" on="1"/>
      </contour>
    </TTGlyph>
    <TTGlyph name="uni0655064D" xMin="-240" yMin="-1079" xMax="240" yMax="-119">
      <component glyphName="uni064D" x="0" y="-286" flags="0x4"/>
      <component glyphName="uni0655" x="0" y="0" flags="0x4"/>
    </TTGlyph>
    <TTGlyph name="uni06550650" xMin="-240" yMin="-855" xMax="240" yMax="-119">
      <component glyphName="uni0650" x="0" y="-294" flags="0x4"/>
      <component glyphName="uni0655" x="0" y="0" flags="0x4"/>
    </TTGlyph>
    <TTGlyph name="uni0656" xMin="-59" yMin="-793" xMax="57" yMax="-395">
      <contour>
        <pt x="-59" y="-395" on="1"/>
        <pt x="57" y="-395" on="1"/>
        <pt x="57" y="-793" on="1"/>
        <pt x="-59" y="-793" on="1"/>
      </contour>
    </TTGlyph>
    <TTGlyph name="uni0657" xMin="-104" yMin="1288" xMax="139" yMax="1675">
      <contour>
        <pt x="104" y="1675" on="1"/>
        <pt x="139" y="1624" on="1"/>
        <pt x="129" y="1620" on="1"/>
        <pt x="93" y="1598" on="1"/>
        <pt x="21" y="1554" on="0"/>
        <pt x="-6" y="1520" on="1"/>
        <pt x="44" y="1504" on="0"/>
        <pt x="106" y="1436" on="0"/>
        <pt x="106" y="1399" on="1"/>
        <pt x="106" y="1355" on="0"/>
        <pt x="35" y="1288" on="0"/>
        <pt x="-12" y="1288" on="1"/>
        <pt x="-53" y="1288" on="0"/>
        <pt x="-104" y="1358" on="0"/>
        <pt x="-104" y="1409" on="1"/>
        <pt x="-104" y="1460" on="0"/>
        <pt x="-53" y="1569" on="0"/>
        <pt x="4" y="1610" on="1"/>
        <pt x="30" y="1629" on="1"/>
        <pt x="65" y="1655" on="0"/>
      </contour>
      <contour>
        <pt x="-37" y="1470" on="1"/>
        <pt x="-53" y="1443" on="0"/>
        <pt x="-53" y="1415" on="1"/>
        <pt x="-53" y="1388" on="0"/>
        <pt x="-23" y="1348" on="0"/>
        <pt x="-2" y="1348" on="1"/>
        <pt x="16" y="1348" on="0"/>
        <pt x="47" y="1381" on="0"/>
        <pt x="47" y="1395" on="1"/>
        <pt x="47" y="1416" on="0"/>
        <pt x="1" y="1457" on="0"/>
      </contour>
    </TTGlyph>
    <TTGlyph name="uni0658" xMin="-123" yMin="1335" xMax="102" yMax="1534">
      <contour>
        <pt x="102" y="1534" on="1"/>
        <pt x="102" y="1431" on="0"/>
        <pt x="46" y="1335" on="0"/>
        <pt x="-12" y="1335" on="1"/>
        <pt x="-64" y="1335" on="0"/>
        <pt x="-123" y="1413" on="0"/>
        <pt x="-123" y="1491" on="1"/>
        <pt x="-80" y="1491" on="1"/>
        <pt x="-80" y="1395" on="0"/>
        <pt x="-12" y="1395" on="1"/>
        <pt x="21" y="1395" on="0"/>
        <pt x="53" y="1458" on="0"/>
        <pt x="53" y="1532" on="1"/>
      </contour>
    </TTGlyph>
    <TTGlyph name="uni0659" xMin="-213" yMin="1300" xMax="217" yMax="1462">
      <contour>
        <pt x="217" y="1462" on="1"/>
        <pt x="135" y="1300" on="1"/>
        <pt x="-213" y="1300" on="1"/>
        <pt x="-141" y="1462" on="1"/>
      </contour>
    </TTGlyph>
    <TTGlyph name="uni065A" xMin="-289" yMin="1017" xMax="291" yMax="1425">
      <component glyphName="smallv.arabic" x="0" y="-271" flags="0x4"/>
    </TTGlyph>
    <TTGlyph name="uni065B" xMin="-270" yMin="1068" xMax="268" yMax="1476">
      <component glyphName="circumflex.arabic" x="0" y="-218" flags="0x4"/>
    </TTGlyph>
    <TTGlyph name="uni065C" xMin="-115" yMin="-81" xMax="115" yMax="165">
      <component glyphName="onedot.above" x="0" y="-1269" flags="0x4"/>
    </TTGlyph>
    <TTGlyph name="uni065D" xMin="-301" yMin="1206" xMax="301" yMax="1667">
      <contour>
        <pt x="92" y="1206" on="1"/>
        <pt x="-10" y="1206" on="0"/>
        <pt x="-193" y="1291" on="0"/>
        <pt x="-301" y="1433" on="0"/>
        <pt x="-301" y="1505" on="1"/>
        <pt x="-301" y="1576" on="0"/>
        <pt x="-204" y="1667" on="0"/>
        <pt x="-125" y="1667" on="1"/>
        <pt x="-43" y="1667" on="0"/>
        <pt x="59" y="1575" on="0"/>
        <pt x="59" y="1497" on="1"/>
        <pt x="59" y="1406" on="0"/>
        <pt x="-6" y="1323" on="1"/>
        <pt x="36" y="1309" on="0"/>
        <pt x="96" y="1309" on="1"/>
        <pt x="166" y="1309" on="0"/>
        <pt x="242" y="1360" on="1"/>
        <pt x="301" y="1274" on="1"/>
        <pt x="206" y="1206" on="0"/>
      </contour>
      <contour>
        <pt x="-96" y="1358" on="1"/>
        <pt x="-45" y="1424" on="0"/>
        <pt x="-45" y="1487" on="1"/>
        <pt x="-45" y="1529" on="0"/>
        <pt x="-90" y="1569" on="0"/>
        <pt x="-121" y="1569" on="1"/>
        <pt x="-153" y="1569" on="0"/>
        <pt x="-195" y="1529" on="0"/>
        <pt x="-195" y="1497" on="1"/>
        <pt x="-195" y="1462" on="0"/>
        <pt x="-150" y="1387" on="0"/>
      </contour>
    </TTGlyph>
    <TTGlyph name="uni065E" xMin="-254" yMin="1073" xMax="258" yMax="1581">
      <contour>
        <pt x="258" y="1483" on="1"/>
        <pt x="176" y="1321" on="1"/>
        <pt x="-254" y="1157" on="1"/>
        <pt x="-182" y="1319" on="1"/>
      </contour>
      <contour>
        <pt x="-72" y="1432" on="1"/>
        <pt x="-101" y="1432" on="0"/>
        <pt x="-141" y="1467" on="0"/>
        <pt x="-141" y="1507" on="1"/>
        <pt x="-141" y="1546" on="0"/>
        <pt x="-101" y="1581" on="0"/>
        <pt x="-72" y="1581" on="1"/>
        <pt x="-44" y="1581" on="0"/>
        <pt x="-2" y="1546" on="0"/>
        <pt x="-2" y="1507" on="1"/>
        <pt x="-2" y="1467" on="0"/>
        <pt x="-44" y="1432" on="0"/>
      </contour>
      <contour>
        <pt x="94" y="1073" on="1"/>
        <pt x="65" y="1073" on="0"/>
        <pt x="25" y="1109" on="0"/>
        <pt x="25" y="1149" on="1"/>
        <pt x="25" y="1187" on="0"/>
        <pt x="65" y="1223" on="0"/>
        <pt x="94" y="1223" on="1"/>
        <pt x="122" y="1223" on="0"/>
        <pt x="164" y="1187" on="0"/>
        <pt x="164" y="1149" on="1"/>
        <pt x="164" y="1109" on="0"/>
        <pt x="122" y="1073" on="0"/>
      </contour>
    </TTGlyph>
    <TTGlyph name="uni0660" xMin="205" yMin="389" xMax="469" yMax="772">
      <contour>
        <pt x="205" y="772" on="1"/>
        <pt x="469" y="772" on="1"/>
        <pt x="469" y="389" on="1"/>
        <pt x="205" y="389" on="1"/>
      </contour>
    </TTGlyph>
    <TTGlyph name="uni0661" xMin="205" yMin="0" xMax="387" yMax="1380">
      <contour>
        <pt x="205" y="1380" on="1"/>
        <pt x="387" y="1380" on="1"/>
        <pt x="387" y="0" on="1"/>
        <pt x="205" y="0" on="1"/>
      </contour>
    </TTGlyph>
    <TTGlyph name="uni0662" xMin="92" yMin="0" xMax="909" yMax="1380">
      <contour>
        <pt x="92" y="1235" on="1"/>
        <pt x="92" y="1380" on="1"/>
        <pt x="909" y="1380" on="1"/>
        <pt x="909" y="1214" on="1"/>
        <pt x="289" y="1214" on="1"/>
        <pt x="719" y="0" on="1"/>
        <pt x="522" y="0" on="1"/>
      </contour>
    </TTGlyph>
    <TTGlyph name="uni0663" xMin="92" yMin="0" xMax="1114" yMax="1380">
      <contour>
        <pt x="92" y="1380" on="1"/>
        <pt x="287" y="1380" on="1"/>
        <pt x="379" y="1071" on="1"/>
        <pt x="396" y="1061" on="0"/>
        <pt x="446" y="1061" on="1"/>
        <pt x="506" y="1061" on="0"/>
        <pt x="557" y="1215" on="0"/>
        <pt x="557" y="1380" on="1"/>
        <pt x="739" y="1380" on="1"/>
        <pt x="739" y="1275" on="0"/>
        <pt x="721" y="1127" on="0"/>
        <pt x="696" y="1073" on="1"/>
        <pt x="737" y="1061" on="0"/>
        <pt x="788" y="1061" on="1"/>
        <pt x="868" y="1061" on="0"/>
        <pt x="932" y="1204" on="0"/>
        <pt x="932" y="1380" on="1"/>
        <pt x="1114" y="1380" on="1"/>
        <pt x="1114" y="1352" on="1"/>
        <pt x="1114" y="1118" on="0"/>
        <pt x="967" y="907" on="0"/>
        <pt x="797" y="907" on="1"/>
        <pt x="673" y="907" on="0"/>
        <pt x="604" y="954" on="1"/>
        <pt x="559" y="909" on="0"/>
        <pt x="504" y="909" on="1"/>
        <pt x="447" y="909" on="0"/>
        <pt x="420" y="930" on="1"/>
        <pt x="723" y="0" on="1"/>
        <pt x="528" y="0" on="1"/>
      </contour>
    </TTGlyph>
    <TTGlyph name="uni0664" xMin="174" yMin="-20" xMax="913" yMax="1407">
      <contour>
        <pt x="582" y="-20" on="1"/>
        <pt x="465" y="-20" on="0"/>
        <pt x="276" y="41" on="0"/>
        <pt x="174" y="148" on="0"/>
        <pt x="174" y="211" on="1"/>
        <pt x="174" y="285" on="0"/>
        <pt x="379" y="542" on="0"/>
        <pt x="537" y="664" on="1"/>
        <pt x="432" y="748" on="1"/>
        <pt x="225" y="911" on="0"/>
        <pt x="225" y="973" on="1"/>
        <pt x="225" y="1035" on="0"/>
        <pt x="361" y="1207" on="0"/>
        <pt x="589" y="1359" on="0"/>
        <pt x="735" y="1407" on="1"/>
        <pt x="791" y="1251" on="1"/>
        <pt x="719" y="1228" on="0"/>
        <pt x="554" y="1137" on="0"/>
        <pt x="406" y="1016" on="0"/>
        <pt x="406" y="997" on="1"/>
        <pt x="406" y="968" on="0"/>
        <pt x="590" y="819" on="1"/>
        <pt x="750" y="688" on="1"/>
        <pt x="505" y="439" on="0"/>
        <pt x="417" y="337" on="0"/>
        <pt x="371" y="259" on="0"/>
        <pt x="371" y="229" on="1"/>
        <pt x="371" y="189" on="0"/>
        <pt x="501" y="133" on="0"/>
        <pt x="598" y="133" on="1"/>
        <pt x="798" y="133" on="0"/>
        <pt x="913" y="176" on="1"/>
        <pt x="913" y="25" on="1"/>
        <pt x="784" y="-20" on="0"/>
      </contour>
    </TTGlyph>
    <TTGlyph name="uni0665" xMin="133" yMin="-20" xMax="1090" yMax="1399">
      <contour>
        <pt x="608" y="-20" on="1"/>
        <pt x="359" y="-20" on="0"/>
        <pt x="133" y="255" on="0"/>
        <pt x="133" y="532" on="1"/>
        <pt x="133" y="760" on="0"/>
        <pt x="265" y="1170" on="0"/>
        <pt x="484" y="1399" on="0"/>
        <pt x="614" y="1399" on="1"/>
        <pt x="748" y="1399" on="0"/>
        <pt x="965" y="1164" on="0"/>
        <pt x="1090" y="753" on="0"/>
        <pt x="1090" y="532" on="1"/>
        <pt x="1090" y="338" on="0"/>
        <pt x="988" y="95" on="0"/>
        <pt x="786" y="-20" on="0"/>
      </contour>
      <contour>
        <pt x="612" y="137" on="1"/>
        <pt x="766" y="137" on="0"/>
        <pt x="901" y="338" on="0"/>
        <pt x="901" y="537" on="1"/>
        <pt x="901" y="733" on="0"/>
        <pt x="821" y="1068" on="0"/>
        <pt x="690" y="1243" on="0"/>
        <pt x="610" y="1243" on="1"/>
        <pt x="536" y="1243" on="0"/>
        <pt x="406" y="1058" on="0"/>
        <pt x="322" y="719" on="0"/>
        <pt x="322" y="537" on="1"/>
        <pt x="322" y="338" on="0"/>
        <pt x="459" y="137" on="0"/>
      </contour>
    </TTGlyph>
    <TTGlyph name="uni0666" xMin="0" yMin="0" xMax="817" yMax="1380">
      <contour>
        <pt x="635" y="1214" on="1"/>
        <pt x="0" y="1214" on="1"/>
        <pt x="0" y="1380" on="1"/>
        <pt x="817" y="1380" on="1"/>
        <pt x="817" y="0" on="1"/>
        <pt x="635" y="0" on="1"/>
      </contour>
    </TTGlyph>
    <TTGlyph name="uni0667" xMin="41" yMin="0" xMax="1040" yMax="1380">
      <contour>
        <pt x="41" y="1380" on="1"/>
        <pt x="229" y="1380" on="1"/>
        <pt x="477" y="442" on="1"/>
        <pt x="519" y="286" on="0"/>
        <pt x="539" y="172" on="1"/>
        <pt x="561" y="303" on="0"/>
        <pt x="602" y="442" on="1"/>
        <pt x="850" y="1380" on="1"/>
        <pt x="1040" y="1380" on="1"/>
        <pt x="653" y="0" on="1"/>
        <pt x="426" y="0" on="1"/>
      </contour>
    </TTGlyph>
    <TTGlyph name="uni0668" xMin="41" yMin="0" xMax="1040" yMax="1380">
      <contour>
        <pt x="426" y="1380" on="1"/>
        <pt x="653" y="1380" on="1"/>
        <pt x="1040" y="0" on="1"/>
        <pt x="850" y="0" on="1"/>
        <pt x="602" y="938" on="1"/>
        <pt x="558" y="1086" on="0"/>
        <pt x="539" y="1208" on="1"/>
        <pt x="519" y="1092" on="0"/>
        <pt x="477" y="938" on="1"/>
        <pt x="229" y="0" on="1"/>
        <pt x="41" y="0" on="1"/>
      </contour>
    </TTGlyph>
    <TTGlyph name="uni0669" xMin="61" yMin="0" xMax="932" yMax="1401">
      <contour>
        <pt x="760" y="551" on="1"/>
        <pt x="528" y="551" on="1"/>
        <pt x="305" y="551" on="0"/>
        <pt x="61" y="776" on="0"/>
        <pt x="61" y="983" on="1"/>
        <pt x="61" y="1173" on="0"/>
        <pt x="281" y="1401" on="0"/>
        <pt x="465" y="1401" on="1"/>
        <pt x="710" y="1401" on="0"/>
        <pt x="932" y="1083" on="0"/>
        <pt x="932" y="735" on="1"/>
        <pt x="932" y="0" on="1"/>
        <pt x="760" y="0" on="1"/>
      </contour>
      <contour>
        <pt x="758" y="711" on="1"/>
        <pt x="758" y="901" on="0"/>
        <pt x="698" y="1134" on="0"/>
        <pt x="575" y="1241" on="0"/>
        <pt x="465" y="1241" on="1"/>
        <pt x="357" y="1241" on="0"/>
        <pt x="233" y="1104" on="0"/>
        <pt x="233" y="981" on="1"/>
        <pt x="233" y="711" on="0"/>
        <pt x="524" y="711" on="1"/>
      </contour>
    </TTGlyph>
    <TTGlyph name="uni066A" xMin="102" yMin="0" xMax="1071" yMax="1380">
      <contour>
        <pt x="201" y="1245" on="1"/>
        <pt x="416" y="1245" on="1"/>
        <pt x="416" y="1030" on="1"/>
        <pt x="201" y="1030" on="1"/>
      </contour>
      <contour>
        <pt x="913" y="1380" on="1"/>
        <pt x="1071" y="1380" on="1"/>
        <pt x="260" y="0" on="1"/>
        <pt x="102" y="0" on="1"/>
      </contour>
      <contour>
        <pt x="750" y="381" on="1"/>
        <pt x="965" y="381" on="1"/>
        <pt x="965" y="166" on="1"/>
        <pt x="750" y="166" on="1"/>
      </contour>
    </TTGlyph>
    <TTGlyph name="uni066B" xMin="133" yMin="-264" xMax="446" yMax="238">
      <contour>
        <pt x="133" y="-264" on="1"/>
        <pt x="158" y="-162" on="0"/>
        <pt x="219" y="145" on="0"/>
        <pt x="233" y="238" on="1"/>
        <pt x="432" y="238" on="1"/>
        <pt x="446" y="215" on="1"/>
        <pt x="396" y="18" on="0"/>
        <pt x="270" y="-264" on="1"/>
      </contour>
    </TTGlyph>
    <TTGlyph name="uni066C" xMin="133" yMin="287" xMax="446" yMax="788">
      <contour>
        <pt x="133" y="287" on="1"/>
        <pt x="158" y="390" on="0"/>
        <pt x="220" y="698" on="0"/>
        <pt x="233" y="788" on="1"/>
        <pt x="432" y="788" on="1"/>
        <pt x="446" y="766" on="1"/>
        <pt x="398" y="573" on="0"/>
        <pt x="270" y="287" on="1"/>
      </contour>
    </TTGlyph>
    <TTGlyph name="uni066D" xMin="82" yMin="631" xMax="1044" yMax="1556">
      <contour>
        <pt x="215" y="727" on="1"/>
        <pt x="457" y="1053" on="1"/>
        <pt x="82" y="1081" on="1"/>
        <pt x="111" y="1274" on="1"/>
        <pt x="502" y="1163" on="1"/>
        <pt x="459" y="1556" on="1"/>
        <pt x="664" y="1556" on="1"/>
        <pt x="621" y="1163" on="1"/>
        <pt x="1018" y="1274" on="1"/>
        <pt x="1044" y="1081" on="1"/>
        <pt x="666" y="1053" on="1"/>
        <pt x="911" y="727" on="1"/>
        <pt x="733" y="631" on="1"/>
        <pt x="557" y="989" on="1"/>
        <pt x="399" y="631" on="1"/>
      </contour>
    </TTGlyph>
    <TTGlyph name="uni066E" xMin="133" yMin="0" xMax="1419" yMax="993">
      <contour>
        <pt x="516" y="0" on="1"/>
        <pt x="339" y="0" on="0"/>
        <pt x="133" y="213" on="0"/>
        <pt x="133" y="397" on="1"/>
        <pt x="133" y="465" on="0"/>
        <pt x="162" y="643" on="0"/>
        <pt x="184" y="705" on="1"/>
        <pt x="348" y="705" on="1"/>
        <pt x="317" y="557" on="0"/>
        <pt x="317" y="412" on="1"/>
        <pt x="317" y="300" on="0"/>
        <pt x="423" y="160" on="0"/>
        <pt x="510" y="160" on="1"/>
        <pt x="1245" y="160" on="1"/>
        <pt x="1245" y="993" on="1"/>
        <pt x="1419" y="993" on="1"/>
        <pt x="1419" y="0" on="1"/>
      </contour>
    </TTGlyph>
    <TTGlyph name="uni066E.fina" xMin="133" yMin="0" xMax="1702" yMax="993">
      <contour>
        <pt x="516" y="0" on="1"/>
        <pt x="339" y="0" on="0"/>
        <pt x="133" y="213" on="0"/>
        <pt x="133" y="397" on="1"/>
        <pt x="133" y="465" on="0"/>
        <pt x="162" y="643" on="0"/>
        <pt x="184" y="705" on="1"/>
        <pt x="348" y="705" on="1"/>
        <pt x="317" y="557" on="0"/>
        <pt x="317" y="412" on="1"/>
        <pt x="317" y="300" on="0"/>
        <pt x="423" y="160" on="0"/>
        <pt x="510" y="160" on="1"/>
        <pt x="1245" y="160" on="1"/>
        <pt x="1245" y="993" on="1"/>
        <pt x="1419" y="993" on="1"/>
        <pt x="1419" y="160" on="1"/>
        <pt x="1692" y="160" on="1"/>
        <pt x="1702" y="160" on="0"/>
        <pt x="1702" y="152" on="1"/>
        <pt x="1702" y="10" on="1"/>
        <pt x="1702" y="0" on="0"/>
        <pt x="1692" y="0" on="1"/>
      </contour>
    </TTGlyph>
    <TTGlyph name="uni066E.init" xMin="-20" yMin="0" xMax="442" yMax="993">
      <contour>
        <pt x="-10" y="0" on="1"/>
        <pt x="-20" y="0" on="0"/>
        <pt x="-20" y="10" on="1"/>
        <pt x="-20" y="152" on="1"/>
        <pt x="-20" y="160" on="0"/>
        <pt x="-10" y="160" on="1"/>
        <pt x="260" y="160" on="1"/>
        <pt x="260" y="993" on="1"/>
        <pt x="442" y="993" on="1"/>
        <pt x="442" y="0" on="1"/>
      </contour>
    </TTGlyph>
    <TTGlyph name="uni066E.medi" xMin="-20" yMin="0" xMax="719" yMax="993">
      <contour>
        <pt x="-10" y="0" on="1"/>
        <pt x="-20" y="0" on="0"/>
        <pt x="-20" y="10" on="1"/>
        <pt x="-20" y="152" on="1"/>
        <pt x="-20" y="160" on="0"/>
        <pt x="-10" y="160" on="1"/>
        <pt x="260" y="160" on="1"/>
        <pt x="260" y="993" on="1"/>
        <pt x="442" y="993" on="1"/>
        <pt x="442" y="160" on="1"/>
        <pt x="709" y="160" on="1"/>
        <pt x="719" y="160" on="0"/>
        <pt x="719" y="152" on="1"/>
        <pt x="719" y="10" on="1"/>
        <pt x="719" y="0" on="0"/>
        <pt x="709" y="0" on="1"/>
      </contour>
    </TTGlyph>
    <TTGlyph name="uni066F" xMin="133" yMin="-492" xMax="1620" yMax="993">
      <contour>
        <pt x="618" y="-492" on="1"/>
        <pt x="393" y="-492" on="0"/>
        <pt x="133" y="-226" on="0"/>
        <pt x="133" y="2" on="1"/>
        <pt x="133" y="263" on="0"/>
        <pt x="217" y="485" on="1"/>
        <pt x="387" y="485" on="1"/>
        <pt x="317" y="289" on="0"/>
        <pt x="317" y="14" on="1"/>
        <pt x="317" y="-152" on="0"/>
        <pt x="494" y="-332" on="0"/>
        <pt x="655" y="-332" on="1"/>
        <pt x="1069" y="-332" on="1"/>
        <pt x="1269" y="-332" on="0"/>
        <pt x="1446" y="-177" on="0"/>
        <pt x="1446" y="-14" on="1"/>
        <pt x="1446" y="0" on="1"/>
        <pt x="1257" y="0" on="1"/>
        <pt x="1030" y="0" on="0"/>
        <pt x="791" y="240" on="0"/>
        <pt x="791" y="467" on="1"/>
        <pt x="791" y="710" on="0"/>
        <pt x="1097" y="993" on="0"/>
        <pt x="1352" y="993" on="1"/>
        <pt x="1620" y="993" on="1"/>
        <pt x="1620" y="-12" on="1"/>
        <pt x="1620" y="-492" on="0"/>
        <pt x="1102" y="-492" on="1"/>
      </contour>
      <contour>
        <pt x="1446" y="160" on="1"/>
        <pt x="1446" y="834" on="1"/>
        <pt x="1358" y="834" on="1"/>
        <pt x="1176" y="834" on="0"/>
        <pt x="973" y="642" on="0"/>
        <pt x="973" y="469" on="1"/>
        <pt x="973" y="309" on="0"/>
        <pt x="1112" y="160" on="0"/>
        <pt x="1253" y="160" on="1"/>
      </contour>
    </TTGlyph>
    <TTGlyph name="uni066F.fina" xMin="133" yMin="-492" xMax="1855" yMax="993">
      <contour>
        <pt x="1446" y="160" on="1"/>
        <pt x="1446" y="834" on="1"/>
        <pt x="1358" y="834" on="1"/>
        <pt x="1176" y="834" on="0"/>
        <pt x="973" y="642" on="0"/>
        <pt x="973" y="469" on="1"/>
        <pt x="973" y="309" on="0"/>
        <pt x="1112" y="160" on="0"/>
        <pt x="1253" y="160" on="1"/>
      </contour>
      <contour>
        <pt x="1845" y="160" on="1"/>
        <pt x="1855" y="160" on="0"/>
        <pt x="1855" y="152" on="1"/>
        <pt x="1855" y="10" on="1"/>
        <pt x="1855" y="0" on="0"/>
        <pt x="1845" y="0" on="1"/>
        <pt x="1620" y="0" on="1"/>
        <pt x="1620" y="-12" on="1"/>
        <pt x="1620" y="-492" on="0"/>
        <pt x="1102" y="-492" on="1"/>
        <pt x="618" y="-492" on="1"/>
        <pt x="393" y="-492" on="0"/>
        <pt x="133" y="-226" on="0"/>
        <pt x="133" y="2" on="1"/>
        <pt x="133" y="263" on="0"/>
        <pt x="217" y="485" on="1"/>
        <pt x="387" y="485" on="1"/>
        <pt x="317" y="289" on="0"/>
        <pt x="317" y="14" on="1"/>
        <pt x="317" y="-152" on="0"/>
        <pt x="494" y="-332" on="0"/>
        <pt x="655" y="-332" on="1"/>
        <pt x="1069" y="-332" on="1"/>
        <pt x="1269" y="-332" on="0"/>
        <pt x="1446" y="-177" on="0"/>
        <pt x="1446" y="-14" on="1"/>
        <pt x="1446" y="0" on="1"/>
        <pt x="1257" y="0" on="1"/>
        <pt x="1030" y="0" on="0"/>
        <pt x="791" y="240" on="0"/>
        <pt x="791" y="467" on="1"/>
        <pt x="791" y="710" on="0"/>
        <pt x="1097" y="993" on="0"/>
        <pt x="1352" y="993" on="1"/>
        <pt x="1620" y="993" on="1"/>
        <pt x="1620" y="160" on="1"/>
      </contour>
    </TTGlyph>
    <TTGlyph name="uni066F.init" xMin="-20" yMin="0" xMax="1024" yMax="993">
      <contour>
        <pt x="850" y="160" on="1"/>
        <pt x="850" y="834" on="1"/>
        <pt x="762" y="834" on="1"/>
        <pt x="580" y="834" on="0"/>
        <pt x="377" y="644" on="0"/>
        <pt x="377" y="471" on="1"/>
        <pt x="377" y="160" on="0"/>
        <pt x="657" y="160" on="1"/>
      </contour>
      <contour>
        <pt x="-10" y="0" on="1"/>
        <pt x="-20" y="0" on="0"/>
        <pt x="-20" y="10" on="1"/>
        <pt x="-20" y="152" on="1"/>
        <pt x="-20" y="160" on="0"/>
        <pt x="-10" y="160" on="1"/>
        <pt x="301" y="160" on="1"/>
        <pt x="249" y="219" on="0"/>
        <pt x="195" y="387" on="0"/>
        <pt x="195" y="469" on="1"/>
        <pt x="195" y="709" on="0"/>
        <pt x="496" y="993" on="0"/>
        <pt x="756" y="993" on="1"/>
        <pt x="1024" y="993" on="1"/>
        <pt x="1024" y="0" on="1"/>
      </contour>
    </TTGlyph>
    <TTGlyph name="uni066F.medi" xMin="-20" yMin="0" xMax="1251" yMax="993">
      <contour>
        <pt x="850" y="160" on="1"/>
        <pt x="850" y="834" on="1"/>
        <pt x="762" y="834" on="1"/>
        <pt x="579" y="834" on="0"/>
        <pt x="377" y="641" on="0"/>
        <pt x="377" y="469" on="1"/>
        <pt x="377" y="160" on="0"/>
        <pt x="657" y="160" on="1"/>
      </contour>
      <contour>
        <pt x="-10" y="0" on="1"/>
        <pt x="-20" y="0" on="0"/>
        <pt x="-20" y="10" on="1"/>
        <pt x="-20" y="152" on="1"/>
        <pt x="-20" y="160" on="0"/>
        <pt x="-10" y="160" on="1"/>
        <pt x="301" y="160" on="1"/>
        <pt x="249" y="219" on="0"/>
        <pt x="195" y="387" on="0"/>
        <pt x="195" y="469" on="1"/>
        <pt x="195" y="713" on="0"/>
        <pt x="498" y="993" on="0"/>
        <pt x="756" y="993" on="1"/>
        <pt x="1024" y="993" on="1"/>
        <pt x="1024" y="160" on="1"/>
        <pt x="1241" y="160" on="1"/>
        <pt x="1247" y="160" on="0"/>
        <pt x="1250" y="155" on="1"/>
        <pt x="1251" y="150" on="1"/>
        <pt x="1251" y="8" on="1"/>
        <pt x="1251" y="0" on="0"/>
        <pt x="1241" y="0" on="1"/>
      </contour>
    </TTGlyph>
    <TTGlyph name="uni0670" xMin="-59" yMin="1661" xMax="57" yMax="2058">
      <contour>
        <pt x="-59" y="2058" on="1"/>
        <pt x="57" y="2058" on="1"/>
        <pt x="57" y="1661" on="1"/>
        <pt x="-59" y="1661" on="1"/>
      </contour>
    </TTGlyph>
    <TTGlyph name="uni0671" xMin="27" yMin="0" xMax="526" yMax="1880">
      <component glyphName="alef_alt.isol" x="0" y="0" flags="0x204"/>
      <component glyphName="wasla" x="293" y="0" flags="0x4"/>
    </TTGlyph>
    <TTGlyph name="uni0671.fina" xMin="27" yMin="0" xMax="668" yMax="1880">
      <component glyphName="alef_alt.fina" x="0" y="0" flags="0x204"/>
      <component glyphName="wasla" x="293" y="0" flags="0x4"/>
    </TTGlyph>
    <TTGlyph name="uni0672" xMin="-76" yMin="0" xMax="492" yMax="1956">
      <component glyphName="alef_alt.isol" x="0" y="0" flags="0x204"/>
      <component glyphName="wavyhamza_above" x="299" y="0" flags="0x4"/>
    </TTGlyph>
    <TTGlyph name="uni0672.fina" xMin="-76" yMin="0" xMax="668" yMax="1956">
      <component glyphName="alef_alt.fina" x="0" y="0" flags="0x204"/>
      <component glyphName="wavyhamza_above" x="299" y="0" flags="0x4"/>
    </TTGlyph>
    <TTGlyph name="uni0673" xMin="-68" yMin="-537" xMax="500" yMax="1556">
      <component glyphName="uni0627" x="0" y="0" flags="0x204"/>
      <component glyphName="wavyhamza_below" x="307" y="0" flags="0x4"/>
    </TTGlyph>
    <TTGlyph name="uni0673.fina" xMin="-68" yMin="-537" xMax="668" yMax="1556">
      <component glyphName="uni0627.fina" x="0" y="0" flags="0x204"/>
      <component glyphName="wavyhamza_below" x="307" y="0" flags="0x4"/>
    </TTGlyph>
    <TTGlyph name="uni0675" xMin="205" yMin="0" xMax="885" yMax="1435">
      <component glyphName="alef_alt.isol" x="0" y="0" flags="0x204"/>
      <component glyphName="uni0654" x="692" y="-521" flags="0x4"/>
    </TTGlyph>
    <TTGlyph name="uni0675.fina" xMin="205" yMin="0" xMax="885" yMax="1435">
      <component glyphName="alef_alt.fina" x="0" y="0" flags="0x204"/>
      <component glyphName="uni0654" x="692" y="-521" flags="0x4"/>
    </TTGlyph>
    <TTGlyph name="uni0676" xMin="133" yMin="-492" xMax="1176" yMax="1595">
      <component glyphName="uni0648" x="0" y="0" flags="0x204"/>
      <component glyphName="uni0654" x="983" y="-361" flags="0x4"/>
    </TTGlyph>
    <TTGlyph name="uni0676.fina" xMin="133" yMin="-492" xMax="1178" yMax="1595">
      <component glyphName="uni0648.fina" x="0" y="0" flags="0x204"/>
      <component glyphName="uni0654" x="985" y="-361" flags="0x4"/>
    </TTGlyph>
    <TTGlyph name="uni0677" xMin="-12" yMin="-492" xMax="1176" yMax="1595">
      <component glyphName="uni0648" x="0" y="0" flags="0x204"/>
      <component glyphName="uni0654" x="983" y="-361" flags="0x4"/>
      <component glyphName="uni064F" x="289" y="-478" flags="0x4"/>
    </TTGlyph>
    <TTGlyph name="uni0677.fina" xMin="-12" yMin="-492" xMax="1178" yMax="1595">
      <component glyphName="uni0648.fina" x="0" y="0" flags="0x204"/>
      <component glyphName="uni0654" x="985" y="-361" flags="0x4"/>
      <component glyphName="uni064F" x="289" y="-478" flags="0x4"/>
    </TTGlyph>
    <TTGlyph name="uni0678" xMin="133" yMin="-492" xMax="1647" yMax="1556">
      <component glyphName="uni0649" x="0" y="0" flags="0x204"/>
      <component glyphName="uni0654" x="1323" y="-400" flags="0x4"/>
    </TTGlyph>
    <TTGlyph name="uni0678.fina" xMin="133" yMin="-492" xMax="1995" yMax="1308">
      <component glyphName="uni0649.fina" x="0" y="0" flags="0x204"/>
      <component glyphName="uni0654" x="1247" y="-648" flags="0x4"/>
    </TTGlyph>
    <TTGlyph name="uni0679" xMin="133" yMin="0" xMax="1419" yMax="1455">
      <component glyphName="uni066E" x="0" y="0" flags="0x204"/>
      <component glyphName="uni0615" x="819" y="-210" flags="0x4"/>
    </TTGlyph>
    <TTGlyph name="uni0679.fina" xMin="133" yMin="0" xMax="1702" yMax="1455">
      <component glyphName="uni066E.fina" x="0" y="0" flags="0x204"/>
      <component glyphName="uni0615" x="819" y="-210" flags="0x4"/>
    </TTGlyph>
    <TTGlyph name="uni0679.init" xMin="-20" yMin="0" xMax="675" yMax="1665">
      <component glyphName="beh_dotless_alt.init" x="0" y="0" flags="0x204"/>
      <component glyphName="uni0615" x="489" y="0" flags="0x4"/>
    </TTGlyph>
    <TTGlyph name="uni0679.medi" xMin="-20" yMin="0" xMax="821" yMax="1665">
      <component glyphName="beh_dotless_alt.medi" x="0" y="0" flags="0x204"/>
      <component glyphName="uni0615" x="432" y="0" flags="0x4"/>
    </TTGlyph>
    <TTGlyph name="uni067A" xMin="133" yMin="0" xMax="1419" yMax="1365">
      <component glyphName="uni066E" x="0" y="0" flags="0x204"/>
      <component glyphName="twodots.vert.above" x="772" y="-439" flags="0x4"/>
    </TTGlyph>
    <TTGlyph name="uni067A.fina" xMin="133" yMin="0" xMax="1702" yMax="1365">
      <component glyphName="uni066E.fina" x="0" y="0" flags="0x204"/>
      <component glyphName="twodots.vert.above" x="772" y="-439" flags="0x4"/>
    </TTGlyph>
    <TTGlyph name="uni067A.init" xMin="-20" yMin="0" xMax="455" yMax="1804">
      <component glyphName="uni066E.init" x="0" y="0" flags="0x204"/>
      <component glyphName="twodots.vert.above" x="340" y="0" flags="0x4"/>
    </TTGlyph>
    <TTGlyph name="uni067A.medi" xMin="-20" yMin="0" xMax="821" yMax="1804">
      <component glyphName="beh_dotless_alt.medi" x="0" y="0" flags="0x204"/>
      <component glyphName="twodots.vert.above" x="412" y="0" flags="0x4"/>
    </TTGlyph>
    <TTGlyph name="uni067B" xMin="133" yMin="-780" xMax="1419" yMax="993">
      <component glyphName="uni066E" x="0" y="0" flags="0x204"/>
      <component glyphName="twodots.vert.below" x="854" y="0" flags="0x4"/>
    </TTGlyph>
    <TTGlyph name="uni067B.fina" xMin="133" yMin="-780" xMax="1702" yMax="993">
      <component glyphName="uni066E.fina" x="0" y="0" flags="0x204"/>
      <component glyphName="twodots.vert.below" x="854" y="0" flags="0x4"/>
    </TTGlyph>
    <TTGlyph name="uni067B.init" xMin="-20" yMin="-780" xMax="455" yMax="993">
      <component glyphName="uni066E.init" x="0" y="0" flags="0x204"/>
      <component glyphName="twodots.vert.below" x="340" y="0" flags="0x4"/>
    </TTGlyph>
    <TTGlyph name="uni067B.medi" xMin="-20" yMin="-780" xMax="719" yMax="993">
      <component glyphName="uni066E.medi" x="0" y="0" flags="0x204"/>
      <component glyphName="twodots.vert.below" x="340" y="0" flags="0x4"/>
    </TTGlyph>
    <TTGlyph name="uni067C" xMin="133" yMin="-327" xMax="1419" yMax="1240">
      <component glyphName="uni066E" x="0" y="0" flags="0x204"/>
      <component glyphName="twodots.above" x="778" y="-194" flags="0x4"/>
      <component glyphName="uni0652" x="829" y="-1998" flags="0x4"/>
    </TTGlyph>
</ttFont>
